<svg width="90" height="90" viewBox="0 0 90 90" fill="none" xmlns="http://www.w3.org/2000/svg">
<path d="M15.7521 11.6643C11.0234 15.7981 7.13078 20.8899 4.47172 26.5658C4.35522 26.7323 4.19074 27.0651 3.98857 27.4795C3.8892 27.6765 3.78983 27.9109 3.6699 28.1589C3.55339 28.4068 3.45402 28.6718 3.35465 28.9401C3.25528 29.2051 3.13534 29.47 3.03597 29.752C2.9366 30.0169 2.8201 30.2818 2.73443 30.5468C2.55282 31.0631 2.36778 31.5454 2.23414 31.9089C2.43632 31.2771 2.61793 30.6657 2.83723 30.0679C3.05311 29.47 3.28611 28.8892 3.50542 28.3253C3.73843 27.7615 3.98857 27.1976 4.22158 26.6473L4.40662 26.2329L4.60536 25.8355C4.74243 25.5706 4.87606 25.3056 5.0097 25.0407C5.7944 23.4952 6.67846 22.004 7.68246 20.4924C6.12678 22.7649 4.7904 25.1901 3.68703 27.7105C3.90633 27.2146 4.13934 26.7323 4.35522 26.2329C4.60536 25.754 4.85893 25.2547 5.10907 24.7723C5.34208 24.2764 5.64363 23.7941 5.9109 23.3151C6.19531 22.8328 6.46259 22.3335 6.77783 21.8715C7.96687 19.9456 9.35122 18.1045 10.8555 16.345C13.8812 12.809 17.5717 9.74176 21.6322 7.3029C23.1194 6.44013 24.49 5.56037 26.1279 4.76214C26.5288 4.56513 26.9469 4.34774 27.3821 4.16432C27.8138 3.98429 28.2833 3.80086 28.7664 3.60046C29.253 3.40345 29.7533 3.25399 30.2878 3.08755C30.8224 2.92111 31.3912 2.75467 31.9909 2.6222C29.0337 3.53592 26.1622 4.76214 23.438 6.27369C20.6796 7.78184 18.1062 9.59231 15.7521 11.6643ZM7.8812 20.146C7.98058 19.9965 8.10051 19.8301 8.21701 19.6806C8.10051 19.8301 7.99771 19.9795 7.8812 20.146ZM0.294682 42.826C0.311815 42.5271 0.346081 42.2146 0.363214 41.9157C0.328948 42.2282 0.311815 42.5611 0.280975 42.877C0.263843 43.0434 0.24671 43.1929 0.24671 43.3593C0.24671 43.5087 0.229576 43.6718 0.229576 43.8212C0.212443 44.4361 0.19531 45.0509 0.19531 45.6147C0.212443 44.9829 0.229576 44.3715 0.24671 43.7567C0.24671 43.6073 0.24671 43.4408 0.263843 43.2914C0.280975 43.1249 0.294682 42.9755 0.294682 42.826ZM39.4437 1.95983C45.1251 1.2601 51.0223 1.64393 56.7207 3.23701C53.6299 2.35725 50.3404 1.77641 47.0131 1.576C43.6893 1.37899 40.3484 1.60997 37.189 2.22478C37.9395 2.10929 38.6933 2.04135 39.4437 1.95983ZM23.3044 7.49991C25.7921 6.07328 28.4683 4.86404 31.2747 3.95032C28.4991 4.84706 25.8092 6.02233 23.3215 7.46595C20.8132 8.90956 18.5071 10.5875 16.4854 12.4116C18.5243 10.6045 20.8132 8.94353 23.3044 7.49991ZM84.3084 33.7499C85.8435 38.896 86.4123 44.4361 85.8607 50.078C85.8949 49.8946 85.8949 49.6976 85.9121 49.5142C85.9292 49.3308 85.9463 49.1337 85.96 48.9503C85.9943 48.5665 86.0286 48.1861 86.0457 47.7886C86.0628 47.4082 86.0628 47.0074 86.08 46.61C86.08 46.4096 86.0937 46.2126 86.0937 46.0121C86.0937 45.8151 86.1108 45.6147 86.0937 45.4143C86.08 44.6195 86.1622 43.9062 86.1793 43.5223C85.9943 41.4503 85.6927 39.4089 85.1753 37.021C85.1102 36.6541 84.9423 35.8593 84.8087 35.129C84.6408 34.6976 84.4729 34.2323 84.3084 33.7499ZM51.0223 1.17858C51.173 1.19557 51.3238 1.22953 51.4746 1.24652C51.1079 1.19557 50.755 1.12763 50.3883 1.09706C50.6076 1.12763 50.8235 1.1616 51.0223 1.17858ZM72.562 10.2037C72.8292 10.4211 73.0965 10.6351 73.3809 10.8695C73.1136 10.6521 72.8464 10.4211 72.562 10.2037ZM0.0136991 47.5237C0.0274064 47.8702 0.078805 48.22 0.113072 48.5835C0.147337 48.9503 0.19531 49.3308 0.24671 49.7146C0.263843 49.8946 0.280975 50.095 0.311815 50.2954C0.346081 50.4924 0.380347 50.6759 0.414614 50.8729C0.479719 51.2737 0.548252 51.6711 0.596224 52.0685L0.647623 52.3674C0.664756 52.4659 0.681889 52.5679 0.712729 52.6664C0.764128 52.8668 0.798394 53.0638 0.846366 53.2642C0.932032 53.6616 1.01427 54.076 1.09994 54.4768C1.19931 54.8742 1.29868 55.2717 1.39805 55.6861C1.50085 56.0835 1.60022 56.4843 1.71673 56.8817C1.83323 57.2621 1.96687 57.646 2.08337 58.0264C2.19988 58.4069 2.31638 58.7737 2.45002 59.1371C2.58366 59.504 2.7173 59.8505 2.85436 60.1833C2.988 60.5162 3.10451 60.8627 3.25528 61.1616C3.53626 61.7934 3.78983 62.3742 4.0571 62.8871C3.8892 62.3912 3.7213 61.8749 3.55339 61.362C3.6699 61.576 3.85493 61.9429 4.0571 62.3912C4.10508 62.5067 4.15648 62.6222 4.22158 62.7377C4.29011 62.8532 4.33809 62.9891 4.40662 63.1045C4.54026 63.3525 4.67389 63.6175 4.80753 63.8994C4.94117 64.1643 5.07481 64.4463 5.22558 64.7282C5.37635 64.9965 5.52712 65.2615 5.67789 65.5264C5.95887 66.0393 6.22615 66.5217 6.47972 66.9021C6.39405 66.7221 6.29468 66.5556 6.19531 66.3552C6.09251 66.1718 5.99314 65.9748 5.89377 65.7914C5.6916 65.4109 5.45859 65.0271 5.24271 64.6297C5.6916 65.4109 5.6916 65.4109 6.12678 66.1718C5.76013 65.4279 5.29068 64.5957 4.88977 63.6854C4.7904 63.451 4.67389 63.22 4.57452 62.9891C4.52312 62.8702 4.47172 62.7547 4.40662 62.6392C4.35522 62.5237 4.30725 62.3912 4.25585 62.2723C4.0571 61.7934 3.85493 61.2941 3.65619 60.7982C2.90233 58.7907 2.25128 56.6473 1.8161 54.7248C1.75099 54.4904 1.71673 54.2424 1.66533 54.0115C1.61736 53.7771 1.58309 53.5461 1.53169 53.3151C1.50085 53.0808 1.44945 52.8668 1.41518 52.6494C1.38092 52.4354 1.33295 52.235 1.31581 52.021C1.21644 51.2058 1.11364 50.4924 1.06567 49.9116C0.997137 48.7669 1.01427 48.1861 1.14791 48.485C1.39805 49.0998 1.71673 52.3674 2.8201 56.3654C3.38891 58.3593 4.15648 60.5468 5.09194 62.6562C5.34208 63.1861 5.57509 63.7024 5.82524 64.2323C6.09251 64.7452 6.35979 65.2445 6.63049 65.7404C6.6956 65.8729 6.76413 65.9918 6.82923 66.1242C6.89777 66.2397 6.98001 66.3722 7.04511 66.4877C7.19588 66.7391 7.32952 66.97 7.48029 67.201C7.61393 67.4354 7.7647 67.6664 7.89834 67.8973C8.04911 68.1317 8.19988 68.3457 8.35065 68.5631C8.23414 68.3627 8.11422 68.1793 7.99771 67.9823C7.8812 67.7819 7.78183 67.5848 7.66533 67.3844C7.44602 66.987 7.23015 66.5726 6.99714 66.1582C6.77783 65.7404 6.57909 65.309 6.35979 64.8776C6.26042 64.6636 6.14391 64.4463 6.04454 64.2323C5.94517 64.0149 5.84237 63.8009 5.743 63.5665C5.54425 63.1215 5.35922 62.6901 5.15705 62.2418C4.97544 61.7934 4.80753 61.328 4.62249 60.8797C4.54026 60.6487 4.44088 60.4313 4.35522 60.2003C4.27298 59.966 4.19074 59.735 4.12221 59.504L3.8892 58.8043C3.80353 58.5733 3.7213 58.3423 3.65619 58.1079L3.23814 56.6813L3.13534 56.3348L3.05311 55.968L2.8852 55.2547C2.63506 54.2934 2.48429 53.3287 2.30268 52.3674C2.01827 50.4415 1.79897 48.5359 1.79897 46.6779C1.83323 47.1093 1.8675 47.5067 1.90176 47.8702C1.94974 48.237 2.00114 48.6005 2.06624 48.9843C2.10051 49.1813 2.11764 49.3647 2.15191 49.5787C2.18275 49.7961 2.19988 50.0101 2.25128 50.2445C2.33352 50.7098 2.41918 51.2397 2.50142 51.8545C2.51855 52.0515 2.56995 52.252 2.60079 52.4354L2.7173 53.0162L2.95373 54.1779L3.23814 55.3226L3.38891 55.9035C3.43689 56.1005 3.48829 56.2839 3.53626 56.4673C3.98857 57.9755 4.47172 59.487 5.07481 60.9476C6.22615 63.8824 7.49742 66.4401 9.21758 68.7126C9.36836 68.9435 9.51913 69.1779 9.68703 69.3919C10.0023 69.8573 10.273 70.3056 10.5882 70.771C10.6739 70.9035 10.7733 71.0189 10.8555 71.1174C10.9412 71.2329 11.0405 71.3348 11.1056 71.4333C11.2736 71.6338 11.4243 71.8138 11.5751 71.9802C11.7259 72.1467 11.8595 72.3131 11.976 72.4626C12.1096 72.612 12.2433 72.7615 12.3769 72.8939C12.6442 73.1929 12.9115 73.4918 13.2301 73.8552C13.3775 74.0386 13.5625 74.2221 13.7647 74.4361C13.9634 74.6535 14.1656 74.8844 14.3986 75.1324C14.4329 75.1324 14.3815 75.0509 14.2821 74.9184C14.4158 75.0848 14.5837 75.2479 14.7653 75.4483C14.9503 75.6317 15.1491 75.8151 15.3512 76.0122C15.55 76.2126 15.7521 76.396 15.9509 76.593C16.0537 76.6915 16.1359 76.7764 16.2353 76.8749C16.3381 76.9598 16.4203 77.0583 16.5026 77.1399C16.5711 77.1399 16.6362 77.1399 16.8041 77.2418C21.3992 81.1888 26.8783 84.2255 32.8612 85.9035C33.3135 86.0189 33.7453 86.1514 34.1976 86.2669C34.6499 86.3654 35.0851 86.4673 35.534 86.5658C35.7533 86.6168 35.9863 86.6643 36.2022 86.7153C36.4215 86.7492 36.6545 86.7968 36.8704 86.8308C37.3227 86.9157 37.7578 86.9802 38.2067 87.0651C38.5939 87.1127 38.9777 87.1636 39.3615 87.2146C39.7453 87.2622 40.1291 87.3301 40.53 87.3641C40.9309 87.3946 41.3147 87.4286 41.7156 87.4456C42.1165 87.4795 42.5174 87.5101 42.9218 87.5101C43.3227 87.5271 43.7064 87.5611 44.0388 87.595C44.3746 87.629 44.6419 87.6766 44.8407 87.6766C45.3581 87.646 45.8926 87.629 46.4272 87.595C46.5642 87.595 46.6979 87.578 46.8315 87.578C46.9652 87.5611 47.0988 87.5441 47.2324 87.5271C47.4997 87.4965 47.767 87.4795 48.048 87.4456C48.3152 87.4116 48.5997 87.3946 48.8841 87.3641C49.1685 87.3301 49.4357 87.2791 49.7373 87.2282C50.0217 87.1806 50.3061 87.1467 50.6076 87.0957C50.755 87.0787 50.9058 87.0651 51.0565 87.0312C51.2073 86.9972 51.3581 86.9632 51.5088 86.9463C51.6905 86.9327 51.992 86.8817 52.3449 86.8308C52.6773 86.7832 53.0782 86.7323 53.462 86.6643C53.8972 86.5149 54.3666 86.3824 54.8669 86.2329C55.052 86.2024 55.2507 86.1344 55.4357 86.0835L55.9874 85.9204C56.3541 85.8185 56.7207 85.7031 57.1045 85.6045C57.4746 85.4721 57.8412 85.3532 58.1907 85.2207L58.7424 85.0407L59.0097 84.9388L59.277 84.8403C60.7162 84.2934 62.1176 83.6956 63.4712 82.9823V82.9992C63.807 82.8328 64.1565 82.6494 64.506 82.466C64.8589 82.2859 65.2084 82.0685 65.5614 81.8715C66.2776 81.4707 66.98 80.9918 67.7167 80.5264C68.0834 80.2954 68.4158 80.0271 68.7858 79.7791L69.3204 79.3987C69.502 79.2662 69.6699 79.1473 69.8378 79.0149C70.506 78.468 71.2084 77.9551 71.8424 77.3742C72.161 77.0923 72.4763 76.8274 72.795 76.5454C73.0965 76.2601 73.3981 75.9782 73.679 75.6963C74.1142 75.2988 74.5151 74.8844 74.8989 74.487L75.5191 73.8213C75.735 73.5903 75.92 73.3423 76.1359 73.1079L76.739 72.3776L76.8898 72.1976L77.0405 72.0142L77.3215 71.6338C77.2393 71.8138 77.2393 71.8817 77.2564 71.9327C77.1742 72.0142 77.1056 72.1127 77.0234 72.2146C76.9377 72.3131 76.8555 72.4116 76.7561 72.5101C76.6054 72.6766 76.4546 72.86 76.3038 73.0264C76.8726 72.4116 77.3729 71.8647 77.7738 71.3994C77.9417 71.1684 78.1096 70.9204 78.2741 70.6691C78.442 70.4041 78.6099 70.1392 78.7778 69.8742C78.9423 69.6093 79.1274 69.3274 79.3124 69.0454C79.4803 68.7601 79.6619 68.4646 79.8469 68.1657C80.7995 66.7221 81.6014 65.1766 82.3689 63.6344L83.1708 61.841L83.4038 61.2295C83.5545 60.8287 83.7224 60.4143 83.8732 60.0169C84.024 59.6025 84.1405 59.1881 84.2913 58.7737C84.4078 58.5088 84.3735 58.7567 84.4078 58.7907C84.8601 57.3301 85.1925 55.8185 85.494 54.2934C86.0628 51.5726 86.3472 48.7669 86.3472 45.9476C86.3781 45.6147 86.3781 45.2818 86.3781 44.9524C86.3781 44.6195 86.3952 44.2866 86.3952 43.9537C86.3609 43.7737 86.3472 43.5563 86.313 43.3253C86.2787 43.091 86.2444 42.843 86.2136 42.5611L86.1451 41.7662C86.1279 41.5013 86.1108 41.2329 86.0628 40.985C85.9943 40.4551 85.912 39.9388 85.8435 39.4089C85.8264 39.2255 85.7955 39.0454 85.7441 38.845C85.7099 38.6446 85.679 38.4476 85.6276 38.2472C85.5934 38.0332 85.5454 37.8158 85.5111 37.6018C85.4769 37.3674 85.4255 37.1365 85.3775 36.9021C85.261 36.4231 85.1445 35.9238 85.0246 35.4109C84.9766 35.146 84.8909 34.8776 84.8087 34.6127C84.7264 34.3477 84.6579 34.0658 84.5757 33.7839C83.9246 31.5454 82.972 29.0556 81.7521 26.6337C81.6014 26.2499 81.4677 25.951 81.3821 25.7846C81.2005 25.4381 80.9983 25.1052 80.8167 24.7723C80.6145 24.4429 80.4466 24.11 80.2307 23.7941C80.0286 23.4782 79.8298 23.1657 79.6276 22.8498C79.4289 22.5339 79.2267 22.235 79.0109 21.9361C78.8258 21.6711 78.6442 21.4231 78.4763 21.1718C78.2913 20.9238 78.1268 20.6589 77.9417 20.4279C77.558 19.9456 77.1879 19.4632 76.8384 19.0013C76.4546 18.5529 76.0708 18.1045 75.7179 17.6731C75.6356 17.5577 75.5363 17.4558 75.4335 17.3573C75.3341 17.2587 75.2519 17.1568 75.1525 17.0583C74.9674 16.8579 74.7824 16.6609 74.6008 16.4605C74.2479 16.0631 73.8641 15.7132 73.5146 15.3668C73.3467 15.2003 73.1616 15.0339 72.9971 14.8674C72.9115 14.7859 72.8292 14.701 72.7436 14.6195C72.6613 14.5346 72.5791 14.47 72.4934 14.4021C71.8252 13.8212 71.2564 13.2744 70.739 12.877C70.1393 12.3776 70.1873 12.3471 70.5882 12.578C70.7904 12.6935 71.0748 12.877 71.4243 13.0909C71.7601 13.3253 72.1439 13.6073 72.5277 13.9062C72.7299 14.0556 72.9286 14.2051 73.1308 14.3545C73.3295 14.521 73.5146 14.6704 73.6962 14.8165C74.0662 15.1324 74.4329 15.4143 74.7344 15.6657C75.317 16.1786 75.7007 16.4945 75.6014 16.345C74.5665 14.8505 72.8292 13.0434 70.321 11.1174C69.0531 10.1731 67.6311 9.16092 65.9794 8.21323C65.1776 7.7173 64.273 7.26893 63.3718 6.76961C62.4363 6.32124 61.4837 5.8423 60.4489 5.41092C59.3112 4.92858 59.7293 5.07804 60.4489 5.326C60.7984 5.45847 61.2336 5.60793 61.5831 5.72682C61.936 5.85929 62.1862 5.95779 62.217 5.95779C62.0525 5.85929 61.8675 5.75739 61.6688 5.62491C61.4666 5.50942 61.2336 5.41092 60.9971 5.29543C60.2467 4.99652 59.5134 4.68062 58.7424 4.43266L58.0742 4.19828C57.8584 4.11676 57.6254 4.03184 57.406 3.98429L56.0525 3.58347C56.2855 3.65141 56.5391 3.71595 56.7721 3.78388C58.2079 4.19828 59.5957 4.6976 60.8327 5.2275C60.6305 5.12899 60.4146 5.02709 60.1953 4.92858C59.9143 4.79611 59.6299 4.66364 59.3284 4.54815C59.0268 4.43266 58.7082 4.29679 58.41 4.1813L57.9406 4.00127L57.7076 3.89937L57.4746 3.81785C56.8372 3.60046 56.2204 3.38646 55.6516 3.18605C58.8761 4.00127 62.0011 5.17654 64.9583 6.70508L65.51 6.98701C65.695 7.08551 65.8766 7.18402 66.0617 7.28592L67.1479 7.89733C67.5146 8.09774 67.8504 8.32872 68.1999 8.56309L69.1011 9.29339L70.1222 10.0237C70.4546 10.2717 70.8075 10.5026 71.1228 10.771C71.7773 11.2839 72.4455 11.7832 73.0622 12.3471L73.9977 13.1589L74.8989 14.0217C75.5191 14.5855 76.0708 15.2003 76.6396 15.7981C76.7733 15.9476 76.9206 16.0971 77.0543 16.2465L77.4552 16.7085L78.2741 17.6562C78.5414 17.9721 78.795 18.3015 79.0451 18.6344L79.4289 19.1337C79.5625 19.2968 79.679 19.4632 79.7955 19.6297C81.7521 22.3165 83.4038 25.2037 84.7093 28.2574C83.7224 25.968 82.5026 23.8111 81.1491 21.7866C79.7955 19.7791 78.2913 17.9041 76.6876 16.2126C78.1405 17.8056 79.494 19.5142 80.7139 21.2907C81.9166 23.0808 83.0029 24.9727 83.9555 26.9327L84.6408 28.4068C84.7573 28.6582 84.8601 28.9062 84.9595 29.1541L85.261 29.9184C85.3604 30.1664 85.4597 30.4143 85.5591 30.6827L85.8264 31.4605L86.0937 32.2418L86.2273 32.6222L86.3472 33.0196C86.4946 33.5529 86.6453 34.0658 86.7961 34.5957C86.9298 35.129 87.0463 35.6589 87.1799 36.1888C87.2484 36.4537 87.3135 36.7221 87.3649 36.987L87.5157 37.7988L87.6665 38.614C87.6836 38.7465 87.7144 38.879 87.7316 39.0115L87.783 39.4259L87.9989 41.1684L88.1325 42.9109L88.1668 43.3423C88.1668 43.4918 88.1668 43.6412 88.1839 43.7737L88.201 44.6365L88.2182 45.5162C88.2182 45.8151 88.201 46.0971 88.201 46.396L88.1668 47.2723C88.1496 47.5712 88.1496 47.8532 88.1325 48.1521L87.9989 49.8946C87.9817 50.0441 87.968 50.1765 87.9509 50.326L87.8995 50.7574L87.783 51.6202L87.7316 52.0515L87.7007 52.2689L87.6665 52.4829L87.5157 53.3457C86.7139 57.9415 85.1102 62.3573 82.9377 66.4537C83.1365 66.1242 83.3558 65.7404 83.5717 65.36C83.791 64.9626 84.024 64.5651 84.2227 64.1168C84.1405 64.2968 84.0583 64.4802 83.9555 64.6636L83.671 65.2105L83.1057 66.3077C82.9206 66.6711 82.7047 67.021 82.5026 67.3674C82.3038 67.7173 82.1017 68.0808 81.8858 68.4306L81.2176 69.4598C80.9983 69.8063 80.7824 70.1562 80.5323 70.4721C80.0457 71.1344 79.5968 71.8138 79.076 72.4456C78.7607 72.826 78.442 73.2098 78.1097 73.5903L77.1057 74.684C77.3558 74.4361 77.9417 73.8077 78.3598 73.3593C75.1353 77.2588 71.2736 80.6079 66.98 83.1963C62.7036 85.8016 57.992 87.5781 53.229 88.5733C53.9966 88.4238 54.3838 88.3593 54.7333 88.3083C54.4831 88.3593 54.2159 88.4238 53.9657 88.4748C53.7122 88.5223 53.4449 88.5903 53.1776 88.6412C52.4786 88.7567 51.7761 88.8892 51.0737 88.9877C50.3712 89.0726 49.6688 89.1541 48.9869 89.2391C49.6688 89.1711 50.3712 89.0896 51.0737 89.0047C51.7761 88.9062 52.4786 88.7737 53.1639 88.6582C53.4449 88.6242 53.7293 88.5393 54.0137 88.4918C54.2981 88.4238 54.5825 88.3729 54.8669 88.3083C55.0348 88.2914 55.2164 88.2574 55.4357 88.2098C55.6516 88.1589 55.9189 88.0774 56.2718 87.9585C58.8418 87.2791 61.1822 86.3994 62.8201 85.5876C63.6219 85.2207 64.3724 84.7893 65.1262 84.3919C65.51 84.1915 65.8766 83.9605 66.2467 83.7601C66.6134 83.5461 66.98 83.3287 67.3467 83.1147C67.6996 82.8838 68.0491 82.6494 68.4158 82.4354C68.7687 82.201 69.1182 81.987 69.454 81.7391C70.1393 81.2567 70.8247 80.7914 71.4586 80.2785C74.0491 78.271 76.3381 76.0631 78.2262 73.6888C79.0931 72.578 78.8258 72.826 78.3598 73.3729C78.5928 73.0774 78.8429 72.7615 79.076 72.4626L79.6276 71.7968L80.1485 71.1005C80.4809 70.6351 80.8475 70.1901 81.1662 69.6908C81.4849 69.2085 81.8172 68.7295 82.1188 68.2302C82.4203 67.7343 82.7047 67.218 83.0029 66.7221C84.257 64.4157 85.2918 62.0074 86.0937 59.5516C86.1793 59.3206 86.2616 59.0726 86.3472 58.8382C86.4295 58.6073 86.4946 58.3593 86.5631 58.1079C86.4809 58.3423 86.4295 58.5903 86.3472 58.8382C88.2833 52.4829 88.7356 45.7982 87.8001 39.3919C87.7487 38.9096 87.6493 38.4476 87.5671 37.9653L87.4472 37.252C87.4163 37.021 87.3649 36.7696 87.3135 36.5386C87.0977 35.5909 86.9126 34.6467 86.6282 33.7159C86.1279 31.8409 85.4597 30.0169 84.7264 28.2404L84.8601 28.5393L84.9766 28.8382L85.2267 29.453C85.3946 29.8674 85.5591 30.2649 85.7099 30.6962C85.8607 31.114 85.9943 31.5454 86.1451 31.9598L86.3609 32.5882L86.546 33.237L86.9126 34.5142C87.0326 34.9456 87.1148 35.377 87.2313 35.8083L87.3821 36.4537L87.4643 36.7866L87.5328 37.1195L87.7658 38.4306C87.8481 38.862 87.9166 39.3104 87.968 39.7587L88.1496 41.0835C88.1839 41.5318 88.2182 41.9632 88.2661 42.4116C88.3004 42.86 88.3518 43.2914 88.3518 43.7397C88.3689 44.1881 88.3826 44.6195 88.3998 45.0679C88.3998 45.2818 88.4169 45.5162 88.4169 45.7302L88.3998 46.396C88.3998 46.841 88.3826 47.2723 88.3826 47.7207C88.3689 48.1691 88.3347 48.6005 88.3004 49.0318C88.8007 44.3715 88.434 39.1609 87.1148 34.1168C88.016 37.3674 88.5026 40.754 88.6191 44.1541C88.6362 44.487 88.6533 44.8029 88.6533 45.1154C88.6533 45.2818 88.667 45.4313 88.667 45.5977C88.667 45.7642 88.667 45.9136 88.667 46.0801C88.667 46.7085 88.6533 47.3403 88.6533 47.9381C88.6191 48.5359 88.5848 49.1168 88.5677 49.6467C88.5505 50.1765 88.4854 50.6759 88.4683 51.1242C88.8521 47.8056 88.8521 45.0169 88.7184 42.3946C89.1536 48.1045 88.5197 53.9945 86.6967 59.6195C86.6145 59.9014 86.5117 60.1664 86.4295 60.4483C86.3781 60.5808 86.3472 60.7302 86.2958 60.8627L86.4295 60.4483C86.5117 60.1833 86.6145 59.9014 86.6967 59.6365C87.7007 56.5658 88.434 53.3151 88.7698 49.9965C89.1022 46.6779 89.0371 43.3253 88.5677 40.1392L88.6191 40.703C88.6362 40.8865 88.6533 41.0835 88.667 41.2669C88.6842 41.6473 88.7013 42.0312 88.7356 42.4116C88.6533 41.1174 88.4683 39.8403 88.2833 38.5631C88.1668 37.9313 88.0503 37.3029 87.9337 36.6711C87.783 36.0393 87.6322 35.4279 87.4986 34.7961C86.8646 32.3063 86.0114 29.8844 84.9766 27.5611C83.9383 25.2377 82.7047 23.0162 81.2827 20.9068C79.8641 18.8179 78.2604 16.8409 76.5197 14.9999C76.7733 15.2343 77.0234 15.4823 77.2736 15.7302C77.5237 15.9782 77.7738 16.2601 78.024 16.5454C78.2741 16.8274 78.5414 17.1093 78.795 17.4082C79.0451 17.7207 79.2953 18.0196 79.5454 18.3525C80.5631 19.6297 81.5328 21.0733 82.4512 22.5679C84.257 25.5876 85.7099 28.9062 86.7653 31.8274C85.1102 26.5488 82.3518 21.4707 78.6613 17.0753C74.9846 12.6596 70.3724 8.92654 65.2256 6.22274C60.0788 3.50195 54.3975 1.84095 48.6853 1.29407C45.8275 1.01214 42.9697 1.01214 40.1462 1.24652C37.3398 1.49448 34.5642 2.00739 31.9086 2.75467L33.3307 2.35725C33.7967 2.22478 34.2833 2.12288 34.7664 2.00739C35.719 1.75942 36.6887 1.60997 37.6585 1.42654C39.5945 1.12763 41.5511 0.913636 43.5214 0.879669C45.4917 0.798147 47.4654 0.896652 49.4357 1.06309C49.9223 1.11404 50.4226 1.17858 50.9058 1.22953C51.1559 1.2601 51.4095 1.27709 51.6425 1.32804L52.3758 1.44353C52.8624 1.52845 53.3626 1.59298 53.8458 1.69149C54.3324 1.79339 54.8155 1.90888 55.3021 2.00739C54.932 1.92586 54.5483 1.84095 54.1645 1.75942C53.9657 1.70847 53.7807 1.66092 53.5785 1.62695C53.3798 1.59298 53.1776 1.54543 52.9789 1.51146C52.5608 1.42654 52.1599 1.36201 51.7419 1.27709C51.6905 1.2601 51.6254 1.2601 51.574 1.24652C53.8972 1.60997 56.1382 2.12288 58.3415 2.83959C58.9754 3.05358 59.6128 3.27097 60.2467 3.48497C60.8155 3.71595 61.3844 3.93334 61.9497 4.16432C59.9452 3.31853 57.9063 2.60521 55.8024 2.05834C52.3278 1.14461 48.7504 0.648691 45.1936 0.533201C44.659 0.499234 44.1725 0.516217 43.7236 0.516217C43.2884 0.516217 42.8875 0.516217 42.5517 0.516217C41.8664 0.533201 41.3489 0.546788 40.9994 0.546788C40.2798 0.546788 40.1805 0.499234 40.4477 0.414315C40.715 0.332794 41.3832 0.234288 42.185 0.132386C42.5859 0.084832 43.0383 0.0678476 43.4871 0.0508641C43.9395 0.0338807 44.4055 -8.67359e-05 44.8407 0.0168967C45.944 0.0508646 47.0474 0.0508637 48.1508 0.166353C48.418 0.183337 48.7025 0.217305 48.9697 0.234288C49.1034 0.247876 49.237 0.247875 49.3706 0.264859L49.7716 0.31581C50.3061 0.383746 50.8578 0.448283 51.3923 0.516217C51.9269 0.597739 52.4614 0.696244 52.996 0.798147C53.2633 0.845702 53.5306 0.896652 53.7978 0.947603C54.0651 0.995157 54.3152 1.06309 54.5825 1.12763C55.0999 1.24652 55.6345 1.36201 56.1519 1.49448C56.6728 1.64393 57.1902 1.77641 57.6905 1.92586C59.7293 2.54067 61.7339 3.25399 63.6391 4.14733L64.3586 4.46323C64.5917 4.57872 64.8247 4.6976 65.0577 4.81309C65.5271 5.04407 65.9931 5.27845 66.4626 5.52641C67.3638 6.0563 68.2821 6.53864 69.1525 7.11948C76.1702 11.5658 81.8515 17.8702 85.4255 25.3226C85.5283 25.5366 85.6448 25.754 85.7441 25.985L86.0286 26.6473C86.2136 27.0957 86.4123 27.5441 86.5974 27.9924C86.7653 28.4408 86.9298 28.9062 87.0977 29.3545C87.1799 29.5855 87.2656 29.8029 87.3478 30.0339L87.5671 30.7302L88.016 32.1229L88.3347 33.5189L88.5197 34.2153L88.667 34.9286L88.9857 36.3552C89.7224 40.1731 89.9726 44.0896 89.7533 47.9721C89.671 49.0658 89.6196 50.2785 89.4552 51.5047C89.4209 51.8036 89.3866 52.1195 89.3352 52.4354C89.2873 52.7479 89.2359 53.0468 89.1879 53.3457C89.1365 53.6446 89.0851 53.9605 89.02 54.2594C88.9857 54.4089 88.9686 54.5583 88.9343 54.7078C88.9035 54.8573 88.8692 55.0067 88.8349 55.1562C88.7013 55.737 88.5677 56.3179 88.4512 56.8647C88.3004 57.4116 88.1496 57.9279 88.016 58.4068C87.9509 58.6582 87.8824 58.8892 87.8172 59.1032C87.7316 59.3206 87.6665 59.5346 87.5979 59.735C87.4643 60.1324 87.3307 60.4823 87.2313 60.7982C86.0114 63.9673 84.3906 67.021 82.4375 69.9082C81.4677 71.3654 80.3815 72.7275 79.2439 74.0896C78.9595 74.4191 78.6442 74.752 78.3598 75.0848C78.0582 75.4143 77.7738 75.7472 77.4415 76.0631C76.8041 76.6915 76.1873 77.3403 75.5191 77.9381C75.1833 78.237 74.8681 78.5529 74.5151 78.8518C74.1656 79.1338 73.8127 79.4327 73.4803 79.7146C73.3124 79.8641 73.1308 80.0101 72.9629 80.146L72.4112 80.5604C72.0445 80.8423 71.6916 81.1073 71.325 81.3892C69.8207 82.4354 68.2993 83.4646 66.6476 84.3274C65.8458 84.7893 64.9926 85.1901 64.1565 85.6045C63.9577 85.7031 63.7384 85.8016 63.5226 85.9035L62.8715 86.1854L62.217 86.4673L61.9018 86.6168L61.566 86.7492C61.1308 86.9157 60.6819 87.0787 60.2467 87.2452L59.9143 87.3776C59.7944 87.4116 59.695 87.4456 59.5785 87.4965L58.8932 87.7105L58.2079 87.9279C57.9749 88.0094 57.759 88.0774 57.5226 88.1419C57.0565 88.2744 56.6042 88.3899 56.1382 88.5223C52.8281 89.4191 49.3364 89.9014 45.8104 89.966C45.3752 89.966 44.9263 89.9999 44.4911 89.9829C44.056 89.966 43.6037 89.9524 43.1719 89.9524L42.5037 89.9354C42.2844 89.9354 42.0685 89.9014 41.8355 89.8844C41.4003 89.8505 40.948 89.8165 40.4957 89.7689L40.1633 89.735C40.0468 89.718 39.9475 89.701 39.8275 89.684L39.1593 89.6025C38.7276 89.5346 38.2753 89.487 37.8401 89.4191L36.5208 89.1711L35.8698 89.0556C35.6505 89.0217 35.4346 88.9537 35.2187 88.9062L33.9132 88.5903L33.5808 88.5088L33.2621 88.4069L32.6111 88.2268C32.1759 88.091 31.7407 87.9925 31.3227 87.843L30.0548 87.4116L29.4209 87.1976L28.8007 86.9463L27.5637 86.4503C27.1456 86.2669 26.7447 86.0835 26.3438 85.9035C25.9429 85.72 25.5248 85.5366 25.1411 85.3226C24.3564 84.9082 23.5545 84.5074 22.787 84.059C22.4032 83.8281 22.016 83.6276 21.6322 83.3797C21.2656 83.1487 20.8818 82.8973 20.5151 82.6664L19.9634 82.3029L19.4289 81.9191C19.0588 81.6711 18.7093 81.4062 18.3598 81.1582C18.0068 80.8899 17.6573 80.6079 17.3215 80.343C16.9891 80.0611 16.6191 79.8131 16.3038 79.5142C13.6311 77.2418 11.2393 74.718 9.18674 71.9972C7.14791 69.2764 5.45859 66.3722 4.10508 63.4204C2.75156 60.4653 1.75099 57.4286 1.0828 54.4429C0.39748 51.4537 0.0274065 48.502 -0.106232 45.6657C-0.0890988 46.1956 -0.0376994 46.8274 0.0136991 47.5237ZM88.0503 33.1861C87.9166 32.6392 87.783 32.1229 87.6151 31.627C87.4472 31.1276 87.2827 30.6657 87.1319 30.2173C86.964 29.7689 86.7653 29.3376 86.5974 28.9231C85.8778 27.2452 85.076 25.8355 84.2741 24.2934C83.1536 22.201 81.8858 20.1765 80.4466 18.2846C80.0799 17.8226 79.7133 17.3573 79.3604 16.8749C78.9766 16.4265 78.5928 15.9782 78.209 15.5332C78.024 15.2988 77.8252 15.0848 77.6059 14.8844L77.0063 14.239C76.8041 14.0217 76.6054 13.8077 76.3861 13.6073C76.1702 13.4068 75.9714 13.2098 75.7521 12.9924C75.3341 12.595 74.916 12.1806 74.4672 11.7968C74.032 11.4164 73.5968 11.0359 73.1445 10.6521C72.6956 10.2886 72.2433 9.93877 71.791 9.57532C71.5751 9.3919 71.325 9.22546 71.1091 9.05902C70.8726 8.89597 70.6396 8.72953 70.4066 8.56309C70.1702 8.39665 69.9543 8.23021 69.7042 8.06377C69.4712 7.91432 69.2347 7.74788 68.9846 7.60182C68.5014 7.3029 68.0491 6.97002 67.566 6.70508C67.0794 6.42315 66.5962 6.14122 66.1268 5.87288C65.6436 5.62491 65.1433 5.35997 64.6568 5.11201C67.1993 6.38918 69.6048 7.89733 71.8424 9.62288C70.3381 8.47817 68.8338 7.49991 67.2816 6.58959C67.0143 6.44013 66.747 6.29067 66.4969 6.14122L66.0959 5.90684L65.695 5.70983C65.1433 5.44149 64.6088 5.15956 64.04 4.87763C63.4712 4.62967 62.8852 4.38171 62.3027 4.11676C61.7167 3.8654 61.0999 3.65141 60.4797 3.42043C60.8498 3.58347 61.3158 3.78388 61.8332 3.99788C62.1005 4.09978 62.3507 4.23225 62.6179 4.34774C62.8852 4.46323 63.1559 4.5957 63.4232 4.71459C63.6905 4.84706 63.9406 4.94557 64.1907 5.07804C64.4238 5.21051 64.6568 5.326 64.8589 5.44149C65.2598 5.65888 65.5922 5.85929 65.7601 5.97478C65.1913 5.67586 64.6259 5.37695 64.04 5.11201C64.6259 5.41092 65.2085 5.70983 65.8115 6.02233C65.7944 6.00875 65.7773 6.00875 65.7601 5.99176C71.3421 9.01146 76.2867 13.2098 80.1793 18.1861C82.1188 20.6759 83.8218 23.3457 85.1925 26.1514C86.5631 28.9707 87.6493 31.9089 88.4169 34.9116C88.3347 34.2968 88.1839 33.7329 88.0503 33.1861ZM62.2684 4.33076C62.7687 4.56513 63.2895 4.79611 63.807 5.02709C63.3033 4.79611 62.7858 4.56513 62.2684 4.33076ZM67.2302 10.771C66.6785 10.4551 66.1131 10.0882 65.4757 9.77233L66.0788 10.1222L66.6648 10.489C67.0485 10.737 67.4323 10.985 67.8161 11.2329C68.5528 11.7662 69.3204 12.2791 70.0365 12.86C71.4929 13.9707 72.8464 15.2173 74.1485 16.5284L75.1011 17.5237C75.269 17.6901 75.4026 17.8702 75.5534 18.0366L76.0023 18.5529L76.4546 19.0658C76.6054 19.2323 76.739 19.4327 76.8898 19.6127C77.1742 19.9795 77.4552 20.343 77.7396 20.7098C78.0068 21.0903 78.2741 21.4537 78.5414 21.8376C78.675 22.021 78.8087 22.218 78.9423 22.4014L79.3124 22.9823C79.5625 23.3797 79.8127 23.7601 80.0628 24.1609C80.2958 24.5583 80.5323 24.9727 80.7653 25.3702H80.7824C79.3432 22.7479 77.2222 19.7621 74.916 17.3063C74.6316 17.0074 74.3335 16.6915 74.0662 16.4096C73.9326 16.2601 73.7818 16.114 73.6311 15.9782C73.4803 15.8457 73.3467 15.6962 73.1959 15.5638C72.9115 15.2988 72.6442 15.0169 72.3598 14.752C72.0754 14.504 71.8081 14.2526 71.5408 14.0217C71.4072 13.9062 71.2736 13.7907 71.157 13.6718C71.0919 13.6242 71.0234 13.5563 70.9754 13.5087C70.9069 13.4578 70.8418 13.4068 70.7733 13.3423C70.5231 13.1249 70.273 12.9279 70.0365 12.7275C69.8035 12.5271 69.5877 12.3471 69.3855 12.1636C69.1696 11.9972 68.9846 11.8308 68.803 11.6813C68.2993 11.4164 67.799 11.0835 67.2302 10.771ZM18.8258 10.951C20.546 9.65684 22.3689 8.47818 24.257 7.43538L25.6927 6.68809C25.9258 6.55562 26.1793 6.45372 26.4295 6.33823L27.1628 5.99176C27.4129 5.87288 27.6493 5.75739 27.8995 5.65888L28.6499 5.35997L29.4038 5.06105L29.7875 4.9116L30.1713 4.77913C30.6887 4.5957 31.2062 4.43266 31.7099 4.24923C32.2273 4.09978 32.7618 3.93334 33.2793 3.78388C33.7967 3.61744 34.3312 3.50195 34.8658 3.36948C35.4003 3.23701 35.9349 3.10453 36.4694 3.01961C36.2364 3.07056 35.9863 3.10453 35.7533 3.15209L35.0508 3.31853C34.5814 3.43402 34.1154 3.51893 33.6459 3.65141C32.7276 3.91635 31.775 4.14733 30.8738 4.48021C29.0337 5.06105 27.2484 5.82532 25.5111 6.65413C23.2873 7.76486 21.2005 9.076 19.261 10.5196C17.3215 11.9632 15.5671 13.5563 13.9806 15.2343C15.502 13.6888 17.1228 12.2621 18.8258 10.951ZM56.0046 5.6419C55.6345 5.54339 55.2678 5.44149 54.9012 5.35997C54.5311 5.27845 54.1473 5.21051 53.7636 5.12899C53.0131 4.96255 52.2421 4.86404 51.4917 4.74516C52.2593 4.87763 53.0131 4.99652 53.7636 5.17654C54.1302 5.26146 54.5174 5.34298 54.8841 5.4279C55.2507 5.52641 55.6174 5.62491 55.9874 5.72682C55.7202 5.6419 55.9703 5.65888 56.0046 5.6419ZM41.1502 4.31377C40.9652 4.34774 40.763 4.39869 40.53 4.43266C40.297 4.46323 40.0468 4.53116 39.7796 4.56513L40.1976 4.4972L40.4135 4.46323L40.6294 4.44625C40.9138 4.43266 41.1982 4.39869 41.4654 4.38171C41.7499 4.36472 42.0343 4.33076 42.3015 4.31377C42.4352 4.29679 42.5859 4.29679 42.7196 4.29679L43.1376 4.2832C42.4694 4.24923 41.8184 4.29679 41.1502 4.31377ZM20.498 12.0957C20.3472 12.1976 20.1965 12.3131 20.0457 12.4116C19.8949 12.5101 19.7613 12.646 19.6276 12.7445C19.9806 12.4626 20.3472 12.2146 20.7139 11.9462C20.8989 11.8138 21.0805 11.6813 21.2656 11.5658C21.4506 11.4333 21.6322 11.3009 21.8344 11.1854L22.9857 10.4551L23.2701 10.2717L23.5717 10.1052C23.7704 9.98972 23.9554 9.89122 24.1576 9.77233C23.7875 9.95576 23.4894 10.0882 23.3215 10.1901C22.9857 10.3871 22.6705 10.6045 22.3518 10.8185C22.1839 10.9204 22.0331 11.0189 21.8686 11.1344C21.7007 11.2329 21.55 11.3348 21.3992 11.4503C21.0977 11.6643 20.7961 11.8817 20.498 12.0957Z" fill="#7C2248"/>
</svg>
