<svg width="91" height="90" viewBox="0 0 91 90" fill="none" xmlns="http://www.w3.org/2000/svg">
<path d="M74.6979 11.6645C79.4266 15.7983 83.3193 20.89 85.9783 26.566C86.0948 26.7324 86.2593 27.0653 86.4615 27.4797C86.5608 27.6767 86.6602 27.9111 86.7801 28.1591C86.8967 28.407 86.996 28.672 87.0954 28.9403C87.1948 29.2053 87.3147 29.4702 87.4141 29.7521C87.5134 30.0171 87.6299 30.282 87.7156 30.547C87.8972 31.0633 88.0823 31.5456 88.2159 31.9091C88.0137 31.2773 87.8321 30.6659 87.6128 30.068C87.3969 29.4702 87.1639 28.8894 86.9446 28.3255C86.7116 27.7616 86.4615 27.1978 86.2285 26.6475L86.0434 26.2331L85.8447 25.8357C85.7076 25.5707 85.574 25.3058 85.4403 25.0409C84.6556 23.4953 83.7716 22.0042 82.7676 20.4926C84.3233 22.765 85.6596 25.1903 86.763 27.7107C86.5437 27.2148 86.3107 26.7324 86.0948 26.2331C85.8447 25.7542 85.5911 25.2549 85.341 24.7725C85.108 24.2766 84.8064 23.7943 84.5391 23.3153C84.2547 22.833 83.9875 22.3337 83.6722 21.8717C82.4832 19.9457 81.0988 18.1047 79.5945 16.3452C76.5688 12.8092 72.8784 9.74194 68.8178 7.30309C67.3307 6.44031 65.96 5.56056 64.3221 4.76232C63.9212 4.56531 63.5032 4.34792 63.068 4.1645C62.6362 3.98447 62.1668 3.80105 61.6836 3.60064C61.197 3.40363 60.6968 3.25417 60.1622 3.08773C59.6277 2.92129 59.0588 2.75485 58.4592 2.62238C61.4164 3.5361 64.2879 4.76232 67.012 6.27387C69.7704 7.78203 72.3438 9.59249 74.6979 11.6645ZM82.5688 20.1462C82.4695 19.9967 82.3495 19.8303 82.233 19.6808C82.3495 19.8303 82.4523 19.9797 82.5688 20.1462ZM90.1554 42.8262C90.1382 42.5273 90.104 42.2148 90.0868 41.9159C90.1211 42.2284 90.1382 42.5612 90.1691 42.8771C90.1862 43.0436 90.2033 43.193 90.2033 43.3595C90.2033 43.5089 90.2205 43.672 90.2205 43.8214C90.2376 44.4362 90.2547 45.051 90.2547 45.6149C90.2376 44.9831 90.2205 44.3717 90.2033 43.7569C90.2033 43.6074 90.2033 43.441 90.1862 43.2915C90.1691 43.1251 90.1554 42.9756 90.1554 42.8262ZM51.0063 1.96001C45.325 1.26029 39.4278 1.64412 33.7293 3.23719C36.8201 2.35743 40.1097 1.77659 43.4369 1.57618C46.7607 1.37917 50.1017 1.61015 53.261 2.22496C52.5106 2.10947 51.7567 2.04154 51.0063 1.96001ZM67.1457 7.5001C64.6579 6.07347 61.9817 4.86423 59.1753 3.9505C61.9509 4.84724 64.6408 6.02251 67.1285 7.46613C69.6368 8.90974 71.9429 10.5877 73.9646 12.4118C71.9258 10.6047 69.6368 8.94371 67.1457 7.5001ZM6.14165 33.7501C4.60653 38.8962 4.03771 44.4362 4.58939 50.0782C4.55513 49.8948 4.55513 49.6978 4.53799 49.5144C4.52086 49.3309 4.50372 49.1339 4.49002 48.9505C4.45575 48.5667 4.42149 48.1862 4.40436 47.7888C4.38722 47.4084 4.38723 47.0076 4.37009 46.6101C4.37009 46.4097 4.35638 46.2127 4.35638 46.0123C4.35638 45.8153 4.33925 45.6149 4.35638 45.4145C4.37009 44.6197 4.28785 43.9063 4.27072 43.5225C4.45576 41.4505 4.7573 39.4091 5.27472 37.0212C5.33982 36.6543 5.50772 35.8595 5.64136 35.1292C5.80927 34.6978 5.97717 34.2324 6.14165 33.7501ZM39.4278 1.17876C39.277 1.19575 39.1262 1.22972 38.9755 1.2467C39.3421 1.19575 39.6951 1.12781 40.0617 1.09724C39.8424 1.12781 39.6265 1.16178 39.4278 1.17876ZM17.8881 10.2039C17.6208 10.4213 17.3535 10.6353 17.0691 10.8697C17.3364 10.6523 17.6037 10.4213 17.8881 10.2039ZM90.4363 47.5239C90.4226 47.8703 90.3712 48.2202 90.337 48.5837C90.3027 48.9505 90.2547 49.3309 90.2033 49.7148C90.1862 49.8948 90.1691 50.0952 90.1382 50.2956C90.104 50.4926 90.0697 50.676 90.0354 50.8731C89.9703 51.2739 89.9018 51.6713 89.8538 52.0687L89.8024 52.3676C89.7853 52.4661 89.7682 52.568 89.7373 52.6665C89.6859 52.8669 89.6516 53.064 89.6037 53.2644C89.518 53.6618 89.4358 54.0762 89.3501 54.477C89.2507 54.8744 89.1514 55.2718 89.052 55.6862C88.9492 56.0837 88.8498 56.4845 88.7333 56.8819C88.6168 57.2623 88.4832 57.6462 88.3667 58.0266C88.2502 58.407 88.1337 58.7739 88 59.1373C87.8664 59.5042 87.7327 59.8506 87.5957 60.1835C87.462 60.5164 87.3455 60.8629 87.1948 61.1618C86.9138 61.7936 86.6602 62.3744 86.3929 62.8873C86.5608 62.3914 86.7287 61.8751 86.8967 61.3622C86.7801 61.5762 86.5951 61.943 86.3929 62.3914C86.345 62.5069 86.2936 62.6224 86.2285 62.7379C86.1599 62.8534 86.112 62.9892 86.0434 63.1047C85.9098 63.3527 85.7761 63.6176 85.6425 63.8996C85.5089 64.1645 85.3752 64.4464 85.2245 64.7284C85.0737 64.9967 84.9229 65.2616 84.7722 65.5266C84.4912 66.0395 84.2239 66.5218 83.9703 66.9023C84.056 66.7222 84.1554 66.5558 84.2547 66.3554C84.3575 66.172 84.4569 65.975 84.5563 65.7915C84.7584 65.4111 84.9915 65.0273 85.2073 64.6299C84.7584 65.4111 84.7584 65.4111 84.3233 66.172C84.6899 65.4281 85.1594 64.5959 85.5603 63.6856C85.6596 63.4512 85.7761 63.2202 85.8755 62.9892C85.9269 62.8703 85.9783 62.7549 86.0434 62.6394C86.0948 62.5239 86.1428 62.3914 86.1942 62.2725C86.3929 61.7936 86.5951 61.2943 86.7939 60.7983C87.5477 58.7909 88.1988 56.6475 88.6339 54.725C88.6991 54.4906 88.7333 54.2426 88.7847 54.0116C88.8327 53.7773 88.867 53.5463 88.9184 53.3153C88.9492 53.0809 89.0006 52.8669 89.0349 52.6496C89.0691 52.4356 89.1171 52.2352 89.1342 52.0212C89.2336 51.2059 89.3364 50.4926 89.3844 49.9118C89.4529 48.7671 89.4358 48.1862 89.3021 48.4851C89.052 49.1 88.7333 52.3676 87.6299 56.3656C87.0611 58.3595 86.2936 60.547 85.3581 62.6563C85.108 63.1862 84.8749 63.7025 84.6248 64.2324C84.3575 64.7453 84.0903 65.2447 83.8196 65.7406C83.7544 65.8731 83.6859 65.9919 83.6208 66.1244C83.5523 66.2399 83.47 66.3724 83.4049 66.4879C83.2542 66.7392 83.1205 66.9702 82.9698 67.2012C82.8361 67.4356 82.6853 67.6665 82.5517 67.8975C82.4009 68.1319 82.2502 68.3459 82.0994 68.5633C82.2159 68.3629 82.3358 68.1794 82.4523 67.9824C82.5688 67.782 82.6682 67.585 82.7847 67.3846C83.004 66.9872 83.2199 66.5728 83.4529 66.1584C83.6722 65.7406 83.871 65.3092 84.0903 64.8778C84.1896 64.6638 84.3061 64.4464 84.4055 64.2324C84.5049 64.015 84.6077 63.8011 84.707 63.5667C84.9058 63.1217 85.0908 62.6903 85.293 62.2419C85.4746 61.7936 85.6425 61.3282 85.8275 60.8799C85.9098 60.6489 86.0092 60.4315 86.0948 60.2005C86.1771 59.9661 86.2593 59.7352 86.3278 59.5042L86.5608 58.8044C86.6465 58.5735 86.7287 58.3425 86.7939 58.1081L87.2119 56.6815L87.3147 56.335L87.3969 55.9682L87.5648 55.2549C87.815 54.2936 87.9658 53.3289 88.1474 52.3676C88.4318 50.4417 88.6511 48.5361 88.6511 46.6781C88.6168 47.1095 88.5825 47.5069 88.5483 47.8703C88.5003 48.2372 88.4489 48.6006 88.3838 48.9845C88.3495 49.1815 88.3324 49.3649 88.2981 49.5789C88.2673 49.7963 88.2502 50.0103 88.1988 50.2447C88.1165 50.71 88.0309 51.2399 87.9486 51.8547C87.9315 52.0517 87.8801 52.2521 87.8493 52.4356L87.7327 53.0164L87.4963 54.1781L87.2119 55.3228L87.0611 55.9036C87.0132 56.1006 86.9618 56.2841 86.9138 56.4675C86.4615 57.9756 85.9783 59.4872 85.3752 60.9478C84.2239 63.8826 82.9526 66.4403 81.2325 68.7127C81.0817 68.9437 80.9309 69.1781 80.763 69.3921C80.4478 69.8574 80.1771 70.3058 79.8618 70.7712C79.7761 70.9036 79.6768 71.0191 79.5945 71.1176C79.5089 71.2331 79.4095 71.335 79.3444 71.4335C79.1765 71.6339 79.0257 71.814 78.8749 71.9804C78.7242 72.1468 78.5905 72.3133 78.474 72.4627C78.3404 72.6122 78.2068 72.7616 78.0731 72.8941C77.8058 73.193 77.5386 73.4919 77.2199 73.8554C77.0725 74.0388 76.8875 74.2222 76.6853 74.4362C76.4866 74.6536 76.2844 74.8846 76.0514 75.1326C76.0172 75.1326 76.0686 75.0511 76.1679 74.9186C76.0343 75.085 75.8664 75.2481 75.6848 75.4485C75.4997 75.6319 75.301 75.8153 75.0988 76.0123C74.9001 76.2127 74.6979 76.3962 74.4992 76.5932C74.3964 76.6917 74.3141 76.7766 74.2148 76.8751C74.112 76.96 74.0297 77.0585 73.9475 77.14C73.8789 77.14 73.8138 77.14 73.6459 77.242C69.0508 81.189 63.5717 84.2256 57.5888 85.9036C57.1365 86.0191 56.7048 86.1516 56.2524 86.2671C55.8001 86.3656 55.365 86.4675 54.9161 86.566C54.6968 86.6169 54.4638 86.6645 54.2479 86.7155C54.0286 86.7494 53.7956 86.797 53.5797 86.8309C53.1274 86.9159 52.6922 86.9804 52.2433 87.0653C51.8561 87.1129 51.4723 87.1638 51.0885 87.2148C50.7048 87.2623 50.321 87.3303 49.9201 87.3642C49.5192 87.3948 49.1354 87.4288 48.7345 87.4458C48.3335 87.4797 47.9326 87.5103 47.5283 87.5103C47.1274 87.5273 46.7436 87.5612 46.4112 87.5952C46.0754 87.6292 45.8081 87.6767 45.6094 87.6767C45.092 87.6462 44.5574 87.6292 44.0229 87.5952C43.8858 87.5952 43.7522 87.5782 43.6185 87.5782C43.4849 87.5612 43.3512 87.5443 43.2176 87.5273C42.9503 87.4967 42.6831 87.4797 42.4021 87.4458C42.1348 87.4118 41.8504 87.3948 41.566 87.3642C41.2816 87.3303 41.0143 87.2793 40.7128 87.2284C40.4283 87.1808 40.1439 87.1468 39.8424 87.0959C39.6951 87.0789 39.5443 87.0653 39.3935 87.0313C39.2427 86.9974 39.092 86.9634 38.9412 86.9464C38.7596 86.9328 38.458 86.8819 38.1051 86.8309C37.7727 86.7834 37.3718 86.7324 36.988 86.6645C36.5528 86.515 36.0834 86.3826 35.5831 86.2331C35.3981 86.2025 35.1993 86.1346 35.0143 86.0837L34.4626 85.9206C34.096 85.8187 33.7293 85.7032 33.3455 85.6047C32.9755 85.4722 32.6088 85.3534 32.2593 85.2209L31.7076 85.0409L31.4403 84.939L31.1731 84.8405C29.7339 84.2936 28.3324 83.6958 26.9789 82.9824V82.9994C26.6431 82.833 26.2936 82.6496 25.944 82.4661C25.5911 82.2861 25.2416 82.0687 24.8887 81.8717C24.1725 81.4709 23.47 80.9919 22.7333 80.5266C22.3667 80.2956 22.0343 80.0273 21.6642 79.7793L21.1297 79.3989C20.948 79.2664 20.7801 79.1475 20.6122 79.015C19.9441 78.4682 19.2416 77.9553 18.6077 77.3744C18.289 77.0925 17.9737 76.8275 17.6551 76.5456C17.3535 76.2603 17.052 75.9784 16.771 75.6964C16.3358 75.299 15.9349 74.8846 15.5511 74.4872L14.9309 73.8214C14.715 73.5905 14.53 73.3425 14.3141 73.1081L13.711 72.3778L13.5603 72.1978L13.4095 72.0144L13.1285 71.6339C13.2108 71.814 13.2108 71.8819 13.1936 71.9328C13.2759 72.0144 13.3444 72.1129 13.4266 72.2148C13.5123 72.3133 13.5945 72.4118 13.6939 72.5103C13.8447 72.6767 13.9955 72.8602 14.1462 73.0266C13.5774 72.4118 13.0771 71.8649 12.6762 71.3996C12.5083 71.1686 12.3404 70.9206 12.1759 70.6693C12.008 70.4043 11.8401 70.1394 11.6722 69.8744C11.5077 69.6095 11.3227 69.3275 11.1377 69.0456C10.9698 68.7603 10.7881 68.4648 10.6031 68.1659C9.6505 66.7222 8.84867 65.1767 8.08111 63.6346L7.27929 61.8411L7.04628 61.2297C6.89551 60.8289 6.7276 60.4145 6.57683 60.0171C6.42606 59.6027 6.30955 59.1883 6.15878 58.7739C6.04228 58.5089 6.07655 58.7569 6.04228 58.7909C5.58997 57.3303 5.25759 55.8187 4.95604 54.2936C4.38723 51.5728 4.10281 48.7671 4.10281 45.9478C4.07197 45.6149 4.07197 45.282 4.07197 44.9525C4.07197 44.6197 4.05485 44.2868 4.05485 43.9539C4.08911 43.7739 4.10282 43.5565 4.13708 43.3255C4.17135 43.0911 4.20562 42.8432 4.23646 42.5612L4.30498 41.7664C4.32212 41.5015 4.33925 41.2331 4.38722 40.9851C4.45575 40.4553 4.53799 39.939 4.60653 39.4091C4.62366 39.2256 4.6545 39.0456 4.7059 38.8452C4.74017 38.6448 4.771 38.4478 4.8224 38.2474C4.85667 38.0334 4.90464 37.816 4.93891 37.602C4.97317 37.3676 5.02457 37.1366 5.07255 36.9023C5.18905 36.4233 5.30556 35.924 5.42549 35.4111C5.47346 35.1462 5.55912 34.8778 5.64136 34.6129C5.7236 34.3479 5.79213 34.066 5.87437 33.7841C6.52543 31.5456 7.47803 29.0558 8.6979 26.6339C8.84867 26.2501 8.98231 25.9512 9.06798 25.7847C9.24959 25.4383 9.45176 25.1054 9.63337 24.7725C9.83554 24.443 10.0034 24.1102 10.2193 23.7943C10.4215 23.4784 10.6202 23.1659 10.8224 22.85C11.0211 22.5341 11.2233 22.2352 11.4392 21.9362C11.6242 21.6713 11.8058 21.4233 11.9737 21.172C12.1588 20.924 12.3233 20.6591 12.5083 20.4281C12.8921 19.9457 13.2622 19.4634 13.6117 19.0015C13.9954 18.5531 14.3792 18.1047 14.7322 17.6733C14.8144 17.5578 14.9138 17.4559 15.0166 17.3574C15.1159 17.2589 15.1982 17.157 15.2976 17.0585C15.4826 16.8581 15.6676 16.6611 15.8492 16.4607C16.2022 16.0633 16.586 15.7134 16.9355 15.3669C17.1034 15.2005 17.2884 15.0341 17.4529 14.8676C17.5386 14.7861 17.6208 14.7012 17.7065 14.6197C17.7887 14.5347 17.8709 14.4702 17.9566 14.4023C18.6248 13.8214 19.1936 13.2746 19.711 12.8771C20.3107 12.3778 20.2627 12.3472 19.8618 12.5782C19.6596 12.6937 19.3752 12.8771 19.0257 13.0911C18.6899 13.3255 18.3061 13.6074 17.9223 13.9063C17.7202 14.0558 17.5214 14.2053 17.3193 14.3547C17.1205 14.5212 16.9355 14.6706 16.7539 14.8167C16.3838 15.1326 16.0172 15.4145 15.7156 15.6659C15.1331 16.1788 14.7493 16.4947 14.8487 16.3452C15.8835 14.8506 17.6208 13.0436 20.1291 11.1176C21.3969 10.1733 22.819 9.1611 24.4706 8.21341C25.2724 7.71749 26.1771 7.26912 27.0783 6.7698C28.0137 6.32143 28.9663 5.84249 30.0012 5.4111C31.1388 4.92876 30.7207 5.07822 30.0012 5.32618C29.6516 5.45866 29.2165 5.60811 28.867 5.727C28.514 5.85947 28.2639 5.95798 28.233 5.95798C28.3975 5.85947 28.5825 5.75757 28.7813 5.6251C28.9835 5.50961 29.2165 5.4111 29.4529 5.29561C30.2033 4.9967 30.9366 4.6808 31.7076 4.43284L32.3758 4.19847C32.5917 4.11694 32.8247 4.03203 33.044 3.98447L34.3975 3.58366C34.1645 3.65159 33.9109 3.71613 33.6779 3.78406C32.2422 4.19847 30.8544 4.69779 29.6174 5.22768C29.8195 5.12917 30.0354 5.02727 30.2547 4.92876C30.5357 4.79629 30.8201 4.66382 31.1217 4.54833C31.4232 4.43284 31.7419 4.29697 32.04 4.18148L32.5094 4.00146L32.7425 3.89955L32.9755 3.81803C33.6128 3.60064 34.2296 3.38664 34.7984 3.18624C31.574 4.00146 28.4489 5.17673 25.4917 6.70526L24.9401 6.98719C24.755 7.08569 24.5734 7.1842 24.3884 7.2861L23.3021 7.89752C22.9355 8.09792 22.5997 8.3289 22.2502 8.56328L21.349 9.29358L20.3278 10.0239C19.9955 10.2718 19.6425 10.5028 19.3273 10.7712C18.6728 11.2841 18.0046 11.7834 17.3878 12.3472L16.4523 13.1591L15.5511 14.0218C14.9309 14.5857 14.3792 15.2005 13.8104 15.7983C13.6768 15.9478 13.5294 16.0972 13.3958 16.2467L12.9949 16.7087L12.1759 17.6563C11.9086 17.9722 11.6551 18.3017 11.4049 18.6346L11.0211 19.1339C10.8875 19.297 10.771 19.4634 10.6545 19.6299C8.6979 22.3167 7.04628 25.2039 5.74074 28.2576C6.7276 25.9682 7.94747 23.8112 9.30098 21.7868C10.6545 19.7793 12.1588 17.9043 13.7624 16.2127C12.3096 17.8058 10.956 19.5144 9.73617 21.2909C8.53342 23.0809 7.44719 24.9729 6.49459 26.9328L5.80927 28.407C5.69277 28.6584 5.58996 28.9063 5.49059 29.1543L5.18905 29.9186C5.08968 30.1665 4.99031 30.4145 4.89094 30.6828L4.62366 31.4607L4.35638 32.2419L4.22275 32.6224L4.10281 33.0198C3.95547 33.5531 3.8047 34.066 3.65393 34.5959C3.52029 35.1292 3.40378 35.6591 3.27015 36.189C3.20161 36.4539 3.13651 36.7222 3.08511 36.9872L2.93434 37.799L2.78357 38.6142C2.76643 38.7467 2.7356 38.8792 2.71847 39.0116L2.66707 39.426L2.45118 41.1686L2.31755 42.9111L2.28328 43.3425C2.28328 43.4919 2.28328 43.6414 2.26615 43.7739L2.24901 44.6366L2.23189 45.5164C2.23189 45.8153 2.24901 46.0972 2.24901 46.3962L2.28328 47.2725C2.30042 47.5714 2.30042 47.8534 2.31755 48.1523L2.45118 49.8948C2.46832 50.0443 2.48202 50.1767 2.49916 50.3262L2.55056 50.7576L2.66707 51.6203L2.71847 52.0517L2.7493 52.2691L2.78357 52.4831L2.93434 53.3459C3.73617 57.9417 5.33982 62.3574 7.5123 66.4539C7.31355 66.1244 7.09425 65.7406 6.87837 65.3602C6.65907 64.9627 6.42606 64.5653 6.22732 64.117C6.30955 64.297 6.39179 64.4804 6.49459 64.6638L6.779 65.2107L7.34439 66.3078C7.52943 66.6713 7.74531 67.0212 7.94748 67.3676C8.14622 67.7175 8.34839 68.0809 8.56427 68.4308L9.23246 69.46C9.45176 69.8065 9.66763 70.1563 9.91778 70.4722C10.4044 71.1346 10.8532 71.814 11.3741 72.4458C11.6893 72.8262 12.008 73.21 12.3404 73.5905L13.3444 74.6842C13.0942 74.4362 12.5083 73.8078 12.0903 73.3595C15.3147 77.2589 19.1765 80.6081 23.47 83.1964C27.7464 85.8017 32.458 87.5782 37.221 88.5735C36.4535 88.424 36.0663 88.3595 35.7168 88.3085C35.9669 88.3595 36.2342 88.424 36.4843 88.475C36.7379 88.5225 37.0052 88.5905 37.2724 88.6414C37.9715 88.7569 38.6739 88.8894 39.3764 88.9879C40.0788 89.0728 40.7813 89.1543 41.4632 89.2392C40.7813 89.1713 40.0788 89.0898 39.3764 89.0049C38.6739 88.9064 37.9715 88.7739 37.2861 88.6584C37.0052 88.6244 36.7207 88.5395 36.4363 88.492C36.1519 88.424 35.8675 88.3731 35.5831 88.3085C35.4152 88.2915 35.2336 88.2576 35.0143 88.21C34.7984 88.1591 34.5311 88.0776 34.1782 87.9587C31.6082 87.2793 29.2679 86.3996 27.6299 85.5877C26.8281 85.2209 26.0777 84.7895 25.3238 84.3921C24.9401 84.1917 24.5734 83.9607 24.2033 83.7603C23.8367 83.5463 23.47 83.3289 23.1034 83.1149C22.7504 82.8839 22.4009 82.6496 22.0343 82.4356C21.6813 82.2012 21.3318 81.9872 20.996 81.7392C20.3107 81.2569 19.6254 80.7915 18.9915 80.2786C16.4009 78.2712 14.112 76.0633 12.2239 73.689C11.357 72.5782 11.6242 72.8262 12.0903 73.3731C11.8572 73.0775 11.6071 72.7617 11.3741 72.4627L10.8224 71.797L10.3016 71.1006C9.96918 70.6353 9.60253 70.1903 9.28386 69.691C8.96518 69.2087 8.6328 68.7297 8.33126 68.2304C8.02972 67.7345 7.7453 67.2182 7.44719 66.7222C6.19305 64.4159 5.15821 62.0076 4.35638 59.5517C4.27072 59.3208 4.18848 59.0728 4.10281 58.8384C4.02057 58.6074 3.95547 58.3595 3.88694 58.1081C3.96918 58.3425 4.02057 58.5905 4.10281 58.8384C2.16677 52.4831 1.71446 45.7983 2.64993 39.3921C2.70133 38.9097 2.8007 38.4478 2.88294 37.9655L3.00287 37.2521C3.03371 37.0212 3.08511 36.7698 3.13651 36.5388C3.35239 35.5911 3.53743 34.6468 3.82184 33.7161C4.32212 31.8411 4.9903 30.0171 5.7236 28.2406L5.58996 28.5395L5.47346 28.8384L5.22332 29.4532C5.05541 29.8676 4.89093 30.265 4.74016 30.6964C4.58939 31.1142 4.45575 31.5456 4.30498 31.96L4.08911 32.5884L3.90407 33.2372L3.53742 34.5144C3.41749 34.9457 3.33525 35.3771 3.21875 35.8085L3.06798 36.4539L2.98574 36.7868L2.9172 37.1197L2.68419 38.4308C2.60196 38.8622 2.53342 39.3106 2.48202 39.7589L2.30041 41.0837C2.26615 41.532 2.23188 41.9634 2.18391 42.4118C2.14965 42.8602 2.09825 43.2915 2.09825 43.7399C2.08112 44.1883 2.06741 44.6197 2.05028 45.068C2.05028 45.282 2.03314 45.5164 2.03314 45.7304L2.05028 46.3962C2.05028 46.8411 2.0674 47.2725 2.0674 47.7209C2.08111 48.1693 2.11538 48.6006 2.14965 49.032C1.64936 44.3717 2.01601 39.1611 3.33526 34.1169C2.43406 37.3676 1.94747 40.7542 1.83097 44.1543C1.81384 44.4872 1.7967 44.8031 1.7967 45.1156C1.7967 45.282 1.78299 45.4315 1.78299 45.5979C1.78299 45.7644 1.78299 45.9138 1.78299 46.0803C1.78299 46.7087 1.7967 47.3404 1.7967 47.9383C1.83097 48.5361 1.86523 49.1169 1.88237 49.6468C1.8995 50.1767 1.96461 50.676 1.98174 51.1244C1.59796 47.8058 1.59796 45.0171 1.7316 42.3948C1.29642 48.1047 1.93034 53.9947 3.7533 59.6197C3.83554 59.9016 3.93834 60.1665 4.02057 60.4485C4.07197 60.5809 4.10281 60.7304 4.15421 60.8629L4.02057 60.4485C3.93834 60.1835 3.83554 59.9016 3.7533 59.6367C2.7493 56.566 2.016 53.3153 1.6802 49.9967C1.34782 46.6781 1.41292 43.3255 1.88237 40.1394L1.83097 40.7032C1.81384 40.8866 1.7967 41.0837 1.78299 41.2671C1.76586 41.6475 1.74873 42.0313 1.71447 42.4118C1.79671 41.1176 1.98174 39.8404 2.16678 38.5633C2.28328 37.9315 2.39979 37.3031 2.51629 36.6713C2.66707 36.0395 2.81784 35.4281 2.95147 34.7963C3.5854 32.3065 4.43862 29.8846 5.47346 27.5612C6.51173 25.2379 7.7453 23.0164 9.16735 20.907C10.586 18.818 12.1896 16.8411 13.9303 15.0001C13.6768 15.2345 13.4266 15.4824 13.1765 15.7304C12.9263 15.9784 12.6762 16.2603 12.4261 16.5456C12.1759 16.8275 11.9086 17.1095 11.6551 17.4084C11.4049 17.7209 11.1548 18.0198 10.9046 18.3527C9.88694 19.6299 8.91721 21.0735 7.99888 22.568C6.19305 25.5877 4.74016 28.9063 3.68477 31.8275C5.33982 26.549 8.09825 21.4709 11.7887 17.0755C15.4655 12.6597 20.0777 8.92673 25.2245 6.22292C30.3712 3.50213 36.0526 1.84113 41.7647 1.29425C44.6225 1.01233 47.4803 1.01232 50.3038 1.2467C53.1102 1.49466 55.8858 2.00757 58.5414 2.75485L57.1194 2.35743C56.6534 2.22496 56.1668 2.12306 55.6836 2.00757C54.731 1.75961 53.7613 1.61015 52.7916 1.42673C50.8555 1.12781 48.8989 0.913819 46.9286 0.879852C44.9583 0.79833 42.9846 0.896835 41.0143 1.06328C40.5277 1.11423 40.0274 1.17876 39.5443 1.22972C39.2941 1.26029 39.0406 1.27727 38.8076 1.32822L38.0743 1.44371C37.5877 1.52863 37.0874 1.59317 36.6042 1.69167C36.1177 1.79357 35.6345 1.90906 35.1479 2.00757C35.518 1.92605 35.9018 1.84113 36.2856 1.75961C36.4843 1.70866 36.6693 1.6611 36.8715 1.62713C37.0703 1.59317 37.2724 1.54561 37.4712 1.51165C37.8892 1.42673 38.2901 1.36219 38.7082 1.27727C38.7596 1.26029 38.8247 1.26029 38.8761 1.2467C36.5528 1.61015 34.3118 2.12306 32.1085 2.83977C31.4746 3.05376 30.8373 3.27116 30.2033 3.48515C29.6345 3.71613 29.0657 3.93352 28.5003 4.1645C30.5049 3.31871 32.5437 2.60539 34.6476 2.05852C38.1222 1.1448 41.6996 0.648874 45.2564 0.533384C45.791 0.499417 46.2776 0.516401 46.7265 0.516401C47.1616 0.516401 47.5626 0.516401 47.8984 0.516401C48.5837 0.533384 49.1011 0.546971 49.4506 0.546971C50.1702 0.546971 50.2696 0.499417 50.0023 0.414498C49.735 0.332977 49.0668 0.234471 48.265 0.132569C47.8641 0.0850151 47.4118 0.0680307 46.9629 0.0510472C46.5106 0.0340638 46.0446 9.63709e-05 45.6094 0.0170799C44.506 0.0510477 43.4026 0.0510468 42.2993 0.166536C42.032 0.18352 41.7476 0.217488 41.4803 0.234471C41.3467 0.248059 41.213 0.248058 41.0794 0.265042L40.6785 0.315993C40.1439 0.383929 39.5923 0.448466 39.0577 0.516401C38.5231 0.597922 37.9886 0.696427 37.454 0.79833C37.1868 0.845885 36.9195 0.896835 36.6522 0.947786C36.3849 0.99534 36.1348 1.06328 35.8675 1.12781C35.3501 1.2467 34.8156 1.36219 34.2981 1.49466C33.7773 1.64412 33.2599 1.77659 32.7596 1.92605C30.7207 2.54086 28.7162 3.25417 26.811 4.14751L26.0914 4.46341C25.8584 4.5789 25.6254 4.69779 25.3924 4.81328C24.9229 5.04425 24.4569 5.27863 23.9875 5.52659C23.0863 6.05648 22.1679 6.53882 21.2976 7.11966C14.2799 11.566 8.59853 17.8703 5.02457 25.3228C4.92177 25.5368 4.80527 25.7542 4.7059 25.9852L4.42149 26.6475C4.23645 27.0959 4.03771 27.5443 3.85267 27.9926C3.68477 28.441 3.52029 28.9063 3.35238 29.3547C3.27015 29.5857 3.18449 29.8031 3.10225 30.0341L2.88294 30.7304L2.43406 32.1231L2.11538 33.5191L1.93034 34.2155L1.78299 34.9288L1.46432 36.3554C0.727601 40.1733 0.477457 44.0898 0.69676 47.9722C0.778999 49.066 0.830401 50.2786 0.994878 51.5049C1.02914 51.8038 1.06341 52.1197 1.1148 52.4356C1.16278 52.7481 1.21418 53.047 1.26215 53.3459C1.31355 53.6448 1.36495 53.9607 1.43006 54.2596C1.46432 54.4091 1.48146 54.5585 1.51572 54.708C1.54656 54.8574 1.58083 55.0069 1.61509 55.1563C1.74873 55.7372 1.88237 56.318 1.99888 56.8649C2.14965 57.4118 2.30042 57.9281 2.43406 58.407C2.49916 58.6584 2.56769 58.8894 2.63279 59.1034C2.71846 59.3208 2.78357 59.5347 2.8521 59.7352C2.98574 60.1326 3.11938 60.4824 3.21875 60.7983C4.43862 63.9675 6.05941 67.0212 8.01258 69.9084C8.98231 71.3656 10.0685 72.7277 11.2062 74.0898C11.4906 74.4193 11.8058 74.7521 12.0903 75.085C12.3918 75.4145 12.6762 75.7474 13.0086 76.0633C13.6459 76.6917 14.2627 77.3405 14.9309 77.9383C15.2667 78.2372 15.582 78.5531 15.9349 78.852C16.2844 79.1339 16.6374 79.4328 16.9697 79.7148C17.1377 79.8642 17.3193 80.0103 17.4872 80.1462L18.0389 80.5606C18.4055 80.8425 18.7584 81.1074 19.1251 81.3894C20.6294 82.4356 22.1508 83.4648 23.8024 84.3275C24.6042 84.7895 25.4575 85.1903 26.2936 85.6047C26.4923 85.7032 26.7116 85.8017 26.9275 85.9036L27.5785 86.1856L28.233 86.4675L28.5483 86.617L28.8841 86.7494C29.3193 86.9159 29.7682 87.0789 30.2033 87.2453L30.5357 87.3778C30.6556 87.4118 30.755 87.4458 30.8715 87.4967L31.5568 87.7107L32.2422 87.9281C32.4752 88.0096 32.691 88.0775 32.9275 88.1421C33.3935 88.2746 33.8458 88.39 34.3118 88.5225C37.6219 89.4193 41.1137 89.9016 44.6397 89.9661C45.0748 89.9661 45.5237 90.0001 45.9589 89.9831C46.3941 89.9661 46.8464 89.9525 47.2781 89.9525L47.9463 89.9356C48.1656 89.9356 48.3815 89.9016 48.6145 89.8846C49.0497 89.8506 49.502 89.8167 49.9543 89.7691L50.2867 89.7352C50.4032 89.7182 50.5026 89.7012 50.6225 89.6842L51.2907 89.6027C51.7225 89.5347 52.1748 89.4872 52.61 89.4193L53.9292 89.1713L54.5803 89.0558C54.7996 89.0218 55.0154 88.9539 55.2313 88.9063L56.5369 88.5905L56.8692 88.5089L57.1879 88.407L57.839 88.227C58.2741 88.0911 58.7093 87.9926 59.1274 87.8432L60.3952 87.4118L61.0291 87.1978L61.6494 86.9464L62.8864 86.4505C63.3044 86.2671 63.7053 86.0837 64.1062 85.9036C64.5072 85.7202 64.9252 85.5368 65.309 85.3228C66.0937 84.9084 66.8955 84.5076 67.6631 84.0592C68.0469 83.8282 68.4341 83.6278 68.8178 83.3799C69.1845 83.1489 69.5683 82.8975 69.9349 82.6665L70.4866 82.3031L71.0211 81.9193C71.3912 81.6713 71.7407 81.4063 72.0903 81.1584C72.4432 80.89 72.7927 80.6081 73.1285 80.3432C73.4609 80.0612 73.831 79.8133 74.1462 79.5144C76.819 77.2419 79.2108 74.7182 81.2633 71.9974C83.3021 69.2766 84.9915 66.3724 86.345 63.4206C87.6985 60.4655 88.6991 57.4288 89.3672 54.443C90.0526 51.4539 90.4226 48.5021 90.5563 45.6659C90.5391 46.1958 90.4877 46.8275 90.4363 47.5239ZM2.39979 33.1862C2.53342 32.6394 2.66706 32.1231 2.83497 31.6271C3.00287 31.1278 3.16735 30.6659 3.31812 30.2175C3.48602 29.7691 3.68477 29.3377 3.85267 28.9233C4.57226 27.2453 5.37409 25.8357 6.17592 24.2936C7.29642 22.2012 8.56427 20.1767 10.0034 18.2847C10.3701 17.8228 10.7367 17.3574 11.0897 16.8751C11.4735 16.4267 11.8572 15.9784 12.241 15.5334C12.4261 15.299 12.6248 15.085 12.8441 14.8846L13.4438 14.2392C13.6459 14.0218 13.8447 13.8078 14.064 13.6074C14.2799 13.407 14.4786 13.21 14.6979 12.9926C15.1159 12.5952 15.534 12.1808 15.9829 11.797C16.4181 11.4165 16.8532 11.0361 17.3056 10.6523C17.7544 10.2888 18.2068 9.93896 18.6591 9.5755C18.8749 9.39208 19.1251 9.22564 19.341 9.0592C19.5774 8.89616 19.8104 8.72972 20.0434 8.56328C20.2799 8.39684 20.4957 8.2304 20.7459 8.06396C20.9789 7.9145 21.2153 7.74806 21.4655 7.602C21.9486 7.30309 22.4009 6.9702 22.8841 6.70526C23.3707 6.42333 23.8538 6.1414 24.3233 5.87306C24.8064 5.6251 25.3067 5.36015 25.7933 5.11219C23.2507 6.38936 20.8452 7.89751 18.6077 9.62306C20.112 8.47836 21.6162 7.5001 23.1685 6.58977C23.4358 6.44031 23.703 6.29086 23.9532 6.1414L24.3541 5.90703L24.755 5.71001C25.3067 5.44167 25.8413 5.15974 26.4101 4.87781C26.9789 4.62985 27.5648 4.38189 28.1474 4.11694C28.7333 3.86559 29.3501 3.65159 29.9703 3.42061C29.6002 3.58366 29.1342 3.78406 28.6168 3.99806C28.3495 4.09996 28.0994 4.23243 27.8321 4.34792C27.5648 4.46341 27.2941 4.59589 27.0269 4.71477C26.7596 4.84724 26.5094 4.94575 26.2593 5.07822C26.0263 5.21069 25.7933 5.32618 25.5911 5.44167C25.1902 5.65906 24.8578 5.85947 24.6899 5.97496C25.2587 5.67605 25.8241 5.37713 26.4101 5.11219C25.8241 5.4111 25.2416 5.71002 24.6385 6.02251C24.6556 6.00893 24.6728 6.00893 24.6899 5.99194C19.108 9.01165 14.1634 13.21 10.2707 18.1862C8.33125 20.676 6.62823 23.3459 5.25758 26.1516C3.88694 28.9709 2.8007 31.9091 2.03314 34.9118C2.11538 34.297 2.26615 33.7331 2.39979 33.1862ZM28.1816 4.33094C27.6813 4.56531 27.1605 4.79629 26.6431 5.02727C27.1468 4.79629 27.6642 4.56531 28.1816 4.33094ZM23.2199 10.7712C23.7716 10.4553 24.337 10.0884 24.9743 9.77252L24.3712 10.1224L23.7853 10.4892C23.4015 10.7372 23.0177 10.9852 22.6339 11.2331C21.8972 11.7664 21.1297 12.2793 20.4135 12.8602C18.9572 13.9709 17.6037 15.2175 16.3016 16.5286L15.349 17.5239C15.1811 17.6903 15.0474 17.8703 14.8966 18.0368L14.4478 18.5531L13.9954 19.066C13.8447 19.2324 13.711 19.4328 13.5603 19.6129C13.2759 19.9797 12.9949 20.3432 12.7105 20.71C12.4432 21.0905 12.1759 21.4539 11.9086 21.8377C11.775 22.0212 11.6414 22.2182 11.5077 22.4016L11.1377 22.9824C10.8875 23.3799 10.6374 23.7603 10.3872 24.1611C10.1542 24.5585 9.91778 24.9729 9.68477 25.3703H9.66764C11.1068 22.7481 13.2279 19.7623 15.534 17.3065C15.8184 17.0076 16.1165 16.6917 16.3838 16.4097C16.5174 16.2603 16.6682 16.1142 16.819 15.9784C16.9697 15.8459 17.1034 15.6964 17.2542 15.564C17.5386 15.299 17.8058 15.0171 18.0903 14.7521C18.3747 14.5042 18.6419 14.2528 18.9092 14.0218C19.0429 13.9063 19.1765 13.7909 19.293 13.672C19.3581 13.6244 19.4266 13.5565 19.4746 13.5089C19.5431 13.458 19.6082 13.407 19.6768 13.3425C19.9269 13.1251 20.1771 12.9281 20.4135 12.7277C20.6465 12.5273 20.8624 12.3472 21.0645 12.1638C21.2804 11.9974 21.4655 11.8309 21.6471 11.6815C22.1508 11.4165 22.6511 11.0837 23.2199 10.7712ZM71.6242 10.9512C69.9041 9.65703 68.0811 8.47836 66.1931 7.43556L64.7573 6.68828C64.5243 6.5558 64.2707 6.4539 64.0206 6.33841L63.2873 5.99194C63.0371 5.87306 62.8007 5.75757 62.5506 5.65906L61.8001 5.36015L61.0463 5.06124L60.6625 4.91178L60.2787 4.77931C59.7613 4.59588 59.2439 4.43284 58.7402 4.24942C58.2227 4.09996 57.6882 3.93352 57.1708 3.78406C56.6534 3.61762 56.1188 3.50213 55.5843 3.36966C55.0497 3.23719 54.5152 3.10472 53.9806 3.0198C54.2136 3.07075 54.4638 3.10472 54.6968 3.15227L55.3992 3.31871C55.8687 3.4342 56.3347 3.51912 56.8041 3.65159C57.7225 3.91654 58.6751 4.14751 59.5763 4.4804C61.4164 5.06124 63.2016 5.8255 64.9389 6.65431C67.1628 7.76504 69.2496 9.07618 71.1891 10.5198C73.1285 11.9634 74.8829 13.5565 76.4695 15.2345C74.9481 13.689 73.3273 12.2623 71.6242 10.9512ZM34.4455 5.64208C34.8156 5.54357 35.1822 5.44167 35.5488 5.36015C35.9189 5.27863 36.3027 5.21069 36.6865 5.12917C37.4369 4.96273 38.2079 4.86423 38.9583 4.74534C38.1908 4.87781 37.4369 4.9967 36.6865 5.17673C36.3198 5.26165 35.9326 5.34317 35.566 5.42809C35.1993 5.52659 34.8327 5.6251 34.4626 5.727C34.7299 5.64208 34.4797 5.65906 34.4455 5.64208ZM49.2998 4.31395C49.4849 4.34792 49.6871 4.39887 49.9201 4.43284C50.1531 4.46341 50.4032 4.53135 50.6705 4.56531L50.2524 4.49738L50.0366 4.46341L49.8207 4.44643C49.5363 4.43284 49.2519 4.39887 48.9846 4.38189C48.7002 4.36491 48.4158 4.33094 48.1485 4.31395C48.0149 4.29697 47.8641 4.29697 47.7305 4.29697L47.3124 4.28338C47.9806 4.24942 48.6317 4.29697 49.2998 4.31395ZM69.952 12.0959C70.1028 12.1978 70.2536 12.3133 70.4044 12.4118C70.5551 12.5103 70.6888 12.6462 70.8224 12.7447C70.4695 12.4627 70.1028 12.2148 69.7362 11.9464C69.5511 11.814 69.3695 11.6815 69.1845 11.566C68.9994 11.4335 68.8178 11.301 68.6157 11.1856L67.4643 10.4553L67.1799 10.2718L66.8784 10.1054C66.6796 9.98991 66.4946 9.8914 66.2924 9.77252C66.6625 9.95594 66.9606 10.0884 67.1285 10.1903C67.4643 10.3873 67.7796 10.6047 68.0982 10.8187C68.2662 10.9206 68.4169 11.0191 68.5814 11.1346C68.7493 11.2331 68.9001 11.335 69.0508 11.4505C69.3524 11.6645 69.6539 11.8819 69.952 12.0959Z" fill="#470960"/>
</svg>
