<svg width="51" height="101" viewBox="0 0 51 101" fill="none" xmlns="http://www.w3.org/2000/svg">
<mask id="mask0_152_127" style="mask-type:luminance" maskUnits="userSpaceOnUse" x="0" y="0" width="30" height="60">
<path d="M0 0H29.5878V59.9542H0V0Z" fill="white"/>
</mask>
<g mask="url(#mask0_152_127)">
<path d="M7.82276 0C7.92009 0.206823 7.94036 0.433922 7.98497 0.65291C8.16341 1.54103 8.33779 2.42915 8.51622 3.31727C8.73115 4.39194 8.94203 5.4666 9.17319 6.54127C9.55439 8.34995 9.89504 10.1708 10.3087 11.9754C10.5358 12.973 10.7872 13.9625 11.0873 14.9399C11.3225 15.6982 11.4239 16.4769 11.4969 17.2636C11.5618 17.9692 11.4482 18.6424 11.2333 19.3075C11.0589 19.8469 10.8683 20.3862 10.7223 20.9337C10.4385 22.0084 10.2965 23.0992 10.2762 24.2104C10.2641 24.843 10.0816 25.4229 9.80177 25.9826C9.70444 26.1813 9.57061 26.3516 9.42056 26.5138C9.09614 26.8464 8.74332 27.1465 8.35806 27.4101C8.12691 27.5682 7.91603 27.7507 7.7376 27.9697C7.56322 28.1846 7.57538 28.2982 7.7822 28.4766C7.88764 28.5699 8.0093 28.6186 8.15124 28.6267C9.01503 28.6672 9.84637 28.5415 10.6007 28.0792C11.0914 27.775 11.4685 27.3452 11.7118 26.822C12.0079 26.1813 12.2755 25.5284 12.454 24.843C12.4864 24.7092 12.5148 24.5754 12.5472 24.4416C12.5675 24.3767 12.5918 24.2996 12.6811 24.3239C12.7743 24.3442 12.7541 24.4294 12.7459 24.4943C12.7297 24.6078 12.7094 24.7254 12.6811 24.839C12.5026 25.5649 12.385 26.303 12.1904 27.0248C12.1295 27.2357 12.0728 27.4466 12.0079 27.6574C11.8943 28.0062 11.9024 28.355 12.0079 28.7078C12.1944 29.312 12.4175 29.9 12.6567 30.484C13.0947 31.5627 13.5367 32.6374 13.9504 33.7283C14.1815 34.3366 14.4208 34.9408 14.6844 35.537C14.9845 36.2223 15.2035 36.9361 15.4022 37.6579C15.5279 38.1 15.6496 38.542 15.8158 38.9719C15.901 39.1949 16.0064 39.4098 16.1362 39.6126C16.193 39.7059 16.2619 39.791 16.3593 39.8478C16.5215 39.9492 16.631 39.9289 16.7405 39.7708C16.9513 39.4626 17.0487 39.1138 17.0771 38.7448C17.1095 38.3433 17.0324 37.954 16.9311 37.5687C16.7486 36.8631 16.4931 36.1818 16.2863 35.4883C16.0146 34.5799 15.7712 33.6675 15.4509 32.7753C15.3981 32.6212 15.3576 32.459 15.3535 32.2927C15.3535 32.2319 15.3576 32.167 15.4346 32.1467C15.5076 32.1305 15.5522 32.171 15.5847 32.2278C15.609 32.2684 15.6293 32.313 15.6496 32.3576C15.7672 32.6334 15.8929 32.9051 16.0024 33.1889C16.1849 33.6391 16.4039 34.073 16.6472 34.4948C17.0365 35.1679 17.438 35.8411 17.8719 36.49C18.172 36.9361 18.4113 37.4227 18.6627 37.9012C18.8736 38.2946 19.0763 38.692 19.2872 39.0813C19.4291 39.3571 19.5914 39.6166 19.782 39.86C19.9726 40.1073 20.2037 40.3101 20.4917 40.4277C20.7309 40.521 20.8161 40.4764 20.9175 40.2371C20.9499 40.156 20.9459 40.0749 20.9499 39.9938C20.9823 39.5112 20.8566 39.057 20.7147 38.6028C20.6295 38.3311 20.5079 38.0837 20.374 37.8364C19.928 37.0172 19.5549 36.1656 19.2021 35.3018C19.0196 34.8516 18.8452 34.3974 18.6262 33.9594C18.5086 33.7202 18.4234 33.4688 18.3383 33.2133C18.0828 32.463 17.7543 31.7533 17.3285 31.0883C17.1379 30.7922 16.9594 30.4921 16.7972 30.1839C16.7648 30.119 16.6999 30.042 16.7891 29.9852C16.8783 29.9284 16.9148 30.0258 16.9554 30.0825C17.2352 30.4881 17.5353 30.8814 17.7665 31.3194C17.7908 31.3721 17.807 31.437 17.8881 31.4573C17.8719 31.3154 17.8557 31.1815 17.8395 31.0477C17.8111 30.8247 17.7746 30.5976 17.7543 30.3745C17.734 30.1312 17.6813 29.9 17.5921 29.677C17.4745 29.3891 17.4542 29.0768 17.4055 28.7727C17.3974 28.7078 17.4055 28.6388 17.4826 28.6267C17.5596 28.6145 17.588 28.6713 17.6042 28.7362C17.6489 28.9227 17.6935 29.1093 17.7421 29.308C17.7989 29.2715 17.7908 29.2269 17.7908 29.1823C17.7948 28.9308 17.7948 28.6753 17.7989 28.4239C17.8192 27.1302 17.8638 25.8407 17.9814 24.5551C18.1679 22.5396 18.6465 20.5971 19.4819 18.7479C19.5103 18.683 19.5508 18.6181 19.5427 18.537C19.3318 18.8127 19.1331 19.0885 18.9952 19.4129C18.7276 20.0375 18.5329 20.6863 18.3423 21.3352C18.3099 21.4325 18.2815 21.5339 18.245 21.6271C18.2166 21.7001 18.1761 21.7772 18.0868 21.7529C18.0017 21.7326 17.9773 21.6555 17.9773 21.5744C17.9733 21.4649 17.9733 21.3595 17.9936 21.25C18.0706 20.812 18.2247 20.4024 18.395 19.9969C18.4883 19.7779 18.5897 19.5589 18.7073 19.3521C18.9912 18.8655 19.2507 18.3707 19.5103 17.8719C20.4876 15.9983 21.9759 14.6925 23.8941 13.8693C24.3564 13.6706 24.8187 13.48 25.3094 13.3583C25.7677 13.2448 26.2219 13.2285 26.6842 13.2975C26.8464 13.3218 27.0086 13.338 27.1667 13.3705C27.2884 13.3948 27.3898 13.3745 27.4952 13.3137C27.994 13.0339 28.4766 12.7257 28.8984 12.3323C29.0444 12.1985 29.1863 12.0565 29.2917 11.8862C29.4256 11.6713 29.385 11.5172 29.1579 11.3996C28.9268 11.2779 28.6713 11.2333 28.4198 11.1846C26.7855 10.8805 25.2202 11.1076 23.7075 11.8011C22.2638 12.4621 20.9702 13.338 19.9117 14.5506C18.8006 15.8239 18.0625 17.296 17.6651 18.9506C17.6529 19.0033 17.6448 19.0561 17.6448 19.1128C17.6691 20.151 17.588 21.1851 17.5434 22.2192C17.515 22.9938 17.4907 23.7684 17.5637 24.5429C17.5677 24.624 17.5677 24.7092 17.5596 24.7903C17.5556 24.843 17.5191 24.8795 17.4664 24.8876C17.4177 24.8958 17.3731 24.8674 17.3569 24.8187C17.3244 24.7254 17.3001 24.6322 17.2839 24.5389C17.2352 24.2428 17.1987 23.9427 17.1906 23.6386C17.1703 23.0344 17.0892 22.4382 17.0608 21.834C17.0284 21.1364 17.0973 20.447 17.2312 19.7657C17.2839 19.494 17.296 19.2223 17.2758 18.9466C17.2068 17.9895 16.9838 17.0811 16.4971 16.2457C16.2984 15.9051 16.1281 15.5441 15.9456 15.1913C15.5482 14.4167 15.3049 13.5935 15.1913 12.7257C15.0656 11.7646 14.9723 10.8034 15.0169 9.83015C15.0453 9.17319 15.0737 8.51622 15.098 7.8552C15.1467 6.69132 15.1143 5.52338 15.0534 4.35949C15.0088 3.54437 14.9602 2.72519 14.9399 1.91007C14.9277 1.47615 14.9237 1.04628 14.9237 0.612357C14.9237 0.547471 14.9074 0.478531 14.9764 0.385258C14.9967 0.579914 15.021 0.742128 15.0332 0.904342C15.1427 2.26288 15.2521 3.62548 15.3535 4.98402C15.4427 6.13574 15.4144 7.29151 15.3779 8.44322C15.3495 9.3354 15.2968 10.2276 15.3698 11.1198C15.4427 12.0565 15.5279 12.9933 15.8483 13.8896C15.9983 14.3032 16.1849 14.6966 16.3836 15.0899C16.5255 15.3698 16.6675 15.6496 16.8175 15.9294C17.1906 16.6066 17.442 17.3244 17.5394 18.099C17.5475 18.1396 17.5556 18.1801 17.5637 18.2207C17.5677 18.2328 17.5759 18.245 17.584 18.2612C17.6448 18.1882 17.657 18.0949 17.6854 18.0138C18.245 16.3106 19.1818 14.8385 20.4795 13.63C21.9394 12.2715 23.6589 11.3712 25.5973 10.921C26.2462 10.771 26.9072 10.7629 27.5642 10.8278C27.9981 10.8724 28.428 10.921 28.8457 11.0508C28.9308 11.0792 29.0119 11.1076 29.0971 11.14C29.3364 11.2292 29.5351 11.359 29.5878 11.6348C29.5878 11.6632 29.5878 11.6916 29.5878 11.7159C29.5391 11.9876 29.3607 12.1782 29.1782 12.3647C28.8092 12.7338 28.3915 13.0379 27.9535 13.3137C27.8967 13.3502 27.8399 13.3867 27.7832 13.4191C27.7953 13.4435 27.7953 13.4637 27.8034 13.4637C28.1644 13.5124 28.5131 13.6422 28.8862 13.6422C28.9105 13.6422 28.9389 13.6462 28.9673 13.6503C29.0403 13.6625 29.093 13.703 29.0971 13.7841C29.0971 13.8733 29.0363 13.922 28.9552 13.9301C28.8659 13.9342 28.7767 13.926 28.6916 13.9179C28.2495 13.8814 27.8115 13.8449 27.3736 13.8003C27.1911 13.7801 27.0289 13.8044 26.8585 13.8814C26.376 14.1004 25.8771 14.2708 25.3743 14.437C23.7359 14.9845 22.2598 15.828 20.9418 16.9473C20.7917 17.0771 20.666 17.2271 20.5606 17.3974C19.9766 18.3423 19.5508 19.3562 19.1858 20.3984C18.7438 21.6596 18.4843 22.9654 18.2977 24.2834C18.099 25.6663 18.0909 27.0613 18.0584 28.4523C18.0463 29.0565 18.0503 29.6608 18.0503 30.265C18.0463 30.9788 18.2004 31.6682 18.3788 32.3535C18.4275 32.5401 18.5248 32.7063 18.61 32.8767C18.8371 33.3309 19.0398 33.7972 19.1291 34.3001C19.1574 34.4583 19.2061 34.6042 19.275 34.7462C19.4656 35.1477 19.6481 35.5573 19.855 35.9506C20.1429 36.4981 20.3943 37.0577 20.6093 37.6376C20.7958 38.1527 21.1121 38.5744 21.4933 38.9556C22.13 39.5883 22.8316 40.1357 23.6062 40.5859C23.813 40.7035 24.0198 40.8251 24.2185 40.9549C24.8268 41.3402 25.5487 41.2023 26.011 40.6386C26.307 40.2777 26.4408 39.8519 26.4814 39.3896C26.526 38.8826 26.5503 38.3757 26.5422 37.8688C26.5382 37.52 26.5503 37.1672 26.4936 36.8225C26.4854 36.7739 26.4814 36.7252 26.4692 36.6806C26.453 36.5792 26.4084 36.5427 26.2989 36.5711C26.0394 36.6441 25.7758 36.6238 25.5162 36.5508C25.3135 36.494 25.1391 36.3967 25.0052 36.2345C24.8998 36.1047 24.9201 35.9912 25.0701 35.9466C25.3905 35.8492 25.7149 35.8411 26.0312 35.9547C26.161 35.9993 26.2746 36.0885 26.3435 36.2102C26.4084 36.3278 26.4895 36.3318 26.5949 36.2872C26.7085 36.2385 26.8261 36.2021 26.9356 36.1453C27.1343 36.0439 27.329 35.9344 27.5236 35.8168C27.6007 35.7681 27.7021 35.7032 27.6777 35.5978C27.6574 35.5005 27.5398 35.5005 27.4547 35.4883C27.3411 35.468 27.2276 35.4518 27.11 35.4518C26.5341 35.4559 25.9583 35.4599 25.3783 35.468C24.8755 35.4761 24.3888 35.6181 23.8941 35.7073C23.7684 35.7316 23.6386 35.7519 23.5129 35.7681C23.4318 35.7803 23.3588 35.76 23.3304 35.6749C23.3061 35.5938 23.3547 35.5451 23.4156 35.5086C23.4804 35.468 23.5453 35.4275 23.6102 35.391C23.9549 35.2126 24.2266 34.949 24.4618 34.6407C24.5835 34.4826 24.7011 34.3244 24.843 34.1825C24.9931 34.0324 25.1553 33.927 25.3824 33.9635C25.5 33.9838 25.5446 33.9392 25.5243 33.8297C25.4554 33.4566 25.4554 33.0794 25.4229 32.7023C25.4189 32.6617 25.4148 32.6212 25.3783 32.5725C25.2405 32.6901 25.0864 32.7793 24.912 32.828C24.7052 32.8807 24.5064 32.8807 24.3199 32.7753C23.9752 32.5847 23.8576 32.2643 23.8535 31.8953C23.8454 31.5911 23.9509 31.3194 24.1496 31.0842C24.2996 30.9058 24.4456 30.7273 24.5875 30.5408C24.8471 30.2001 25.058 29.8352 25.1229 29.4012C25.1958 28.8781 25.1391 28.3752 24.9444 27.8845C24.843 27.6372 24.6646 27.5196 24.401 27.5398C23.9955 27.5723 23.5899 27.6128 23.1966 27.7304C22.6248 27.9008 22.0408 27.9616 21.4487 27.9819C21.2094 27.994 20.9742 28.0224 20.739 28.0468C20.5119 28.0751 20.2929 28.0427 20.0739 27.9859C20.0618 27.9859 20.0496 27.9819 20.0334 27.9778C19.9361 27.9332 19.8144 27.8967 19.8185 27.7629C19.8225 27.6291 19.9482 27.6209 20.0456 27.6007C20.3132 27.5398 20.5768 27.4831 20.8526 27.4871C20.9053 27.4871 20.958 27.4952 21.027 27.4547C20.954 27.406 20.881 27.4182 20.8161 27.4182C20.5809 27.4141 20.3578 27.3776 20.1348 27.3006C19.8631 27.2073 19.6603 27.0329 19.5386 26.7734C19.2994 26.2665 19.2507 25.7393 19.4251 25.1959C19.5021 24.9566 19.6481 24.77 19.8509 24.6362C20.1104 24.4659 20.3862 24.3361 20.6823 24.255C20.9499 24.178 21.2176 24.1942 21.4893 24.255C21.8989 24.3442 22.3166 24.401 22.7383 24.4375C22.8235 24.4456 22.9127 24.4416 23.0019 24.4334C22.8032 24.3645 22.5964 24.3523 22.3936 24.3118C22.057 24.2428 21.7204 24.1536 21.3798 24.1009C20.52 23.9671 19.8185 24.2591 19.2791 24.9444C19.198 25.0458 19.1169 25.1512 19.1088 25.2891C19.1047 25.3297 19.0844 25.3581 19.0479 25.3581C19.0115 25.3621 18.9871 25.3297 18.975 25.2972C18.9182 25.1837 18.9344 25.0701 18.979 24.9606C19.0561 24.7781 19.1696 24.6281 19.2953 24.4821C19.6481 24.0806 20.0699 23.7968 20.6093 23.7238C20.9256 23.6792 21.2338 23.7197 21.5379 23.8008C22.1868 23.9792 22.8438 24.1212 23.5007 24.251C23.671 24.2834 23.7521 24.3523 23.7481 24.4497C23.7481 24.547 23.6629 24.6119 23.4926 24.6403C23.1641 24.697 22.8275 24.6646 22.499 24.6322C22.0813 24.5916 21.6677 24.5227 21.2541 24.4213C20.9905 24.3523 20.7309 24.4253 20.4754 24.5105C20.3092 24.5673 20.1551 24.6524 19.9969 24.7335C19.7455 24.8593 19.5833 25.058 19.4981 25.3297C19.3683 25.7555 19.3764 26.1772 19.5589 26.5909C19.6887 26.8829 19.9077 27.0532 20.2118 27.1262C20.3943 27.1667 20.5768 27.183 20.7593 27.183C21.2013 27.1789 21.6393 27.2073 22.0813 27.2316C22.4423 27.2519 22.7991 27.2154 23.156 27.1505C23.2168 27.1384 23.2777 27.1262 23.3344 27.1181C23.4237 27.1019 23.5048 27.1059 23.5494 27.1951C23.5899 27.2762 23.5656 27.3533 23.5129 27.4222C23.4886 27.4547 23.448 27.475 23.448 27.5358C23.6386 27.5479 23.8211 27.4993 24.0076 27.475C24.1739 27.4547 24.3442 27.4506 24.5146 27.4547C24.697 27.4547 24.8349 27.5398 24.9363 27.698C25.0904 27.9373 25.1634 28.213 25.2202 28.4847C25.354 29.1093 25.3013 29.7094 24.9809 30.2772C24.8146 30.5773 24.6322 30.8652 24.4375 31.1491C24.3199 31.3235 24.2266 31.5141 24.182 31.725C24.1617 31.8426 24.1536 31.9602 24.178 32.0737C24.2672 32.4955 24.5957 32.678 25.0052 32.536C25.0336 32.4792 24.985 32.4468 24.9688 32.4062C24.9241 32.3089 24.8958 32.2156 24.8958 32.1062C24.8998 31.9683 24.9525 31.8831 25.0539 31.8466C25.1756 31.8061 25.2729 31.8507 25.3459 31.9399C25.4148 32.0291 25.4676 32.1224 25.5892 32.1508C25.65 32.167 25.6582 32.2521 25.6582 32.313C25.6622 32.8118 25.6663 33.3146 25.6703 33.8175C25.6703 33.8865 25.6257 33.9432 25.6054 34.0162C25.796 34.1014 25.9866 34.1582 26.1894 34.1784C26.2584 34.1865 26.3597 34.1744 26.3638 34.2798C26.3678 34.3853 26.2665 34.3731 26.1975 34.3893C26.0637 34.4258 25.9299 34.4218 25.792 34.4015C25.7352 34.3893 25.6744 34.3771 25.6136 34.365C25.208 34.3082 25.2648 34.2514 24.9201 34.6002C24.7092 34.8151 24.4983 35.0301 24.2591 35.2734C24.4983 35.2288 24.7011 35.1923 24.8998 35.1517C25.1026 35.1112 25.3053 35.1031 25.5081 35.1031C25.9907 35.1071 26.4733 35.1112 26.9559 35.1233C27.1667 35.1314 27.3776 35.1436 27.5763 35.2288C27.7264 35.2937 27.8845 35.3666 27.9048 35.5573C27.917 35.7357 27.7994 35.8452 27.6656 35.9385C27.3492 36.1574 27.0126 36.3318 26.6558 36.4697C26.5544 36.5062 26.5301 36.5427 26.5503 36.6603C26.6193 37.0415 26.6598 37.4308 26.6842 37.8201C26.7085 38.2824 26.7207 38.7407 26.6882 39.199C26.6598 39.6004 26.5625 39.9857 26.3841 40.3466C26.1691 40.7805 25.8325 41.0887 25.4027 41.2915C25.1229 41.4253 24.8309 41.4497 24.5308 41.3483C23.9671 41.1617 23.4683 40.8657 22.9979 40.5088C22.4625 40.0952 21.9516 39.6572 21.4609 39.1868C21.4122 39.1422 21.3717 39.0854 21.3108 39.0611C21.2703 39.0611 21.2784 39.0854 21.2784 39.1057C21.3352 39.9735 21.3757 40.8454 21.2743 41.7133C21.1851 42.4676 21.0148 43.2016 20.7431 43.9072C20.4795 44.5926 20.0375 45.136 19.3967 45.5091C18.4761 46.0444 17.4907 46.4012 16.4525 46.604C15.3657 46.8189 14.2748 46.9933 13.1799 47.1515C11.6388 47.3786 10.1181 47.6949 8.62572 48.1369C6.65076 48.7209 5.0489 49.8523 3.83635 51.5434C3.21994 52.4031 2.72113 53.3318 2.28721 54.2929C1.78435 55.3919 1.3626 56.5193 1.00573 57.6751C0.815124 58.2915 0.588025 58.8917 0.324427 59.4797C0.263597 59.6095 0.198712 59.7393 0.125716 59.8609C0.0932729 59.9136 0.0608294 59.9501 0 59.9542C0 59.869 0 59.7879 0 59.7068C0.0689406 59.6663 0.0689414 59.5933 0.0932729 59.5284C0.535306 58.3645 0.843512 57.152 1.26121 55.9759C1.6708 54.8242 2.15339 53.709 2.72519 52.6262C3.25239 51.6245 3.9053 50.7202 4.72042 49.9375C5.88836 48.8142 7.27529 48.0964 8.84065 47.7192C9.99642 47.4435 11.1684 47.2366 12.3404 47.0623C13.5448 46.8838 14.7493 46.7459 15.9456 46.527C16.9716 46.3364 17.9773 46.0809 18.902 45.574C18.9547 45.5456 19.0074 45.5172 19.0601 45.4847C19.8266 45.0833 20.3092 44.4506 20.5484 43.6152C20.8201 42.6703 20.9823 41.7052 20.9702 40.7156C20.9702 40.6873 20.9661 40.6629 20.9621 40.6183C20.6214 40.8008 20.3538 40.6264 20.0942 40.4521C19.8306 40.2696 19.6157 40.0262 19.4292 39.7626C19.1047 39.3125 18.8492 38.8177 18.5897 38.3271C18.1355 37.4673 17.657 36.6238 17.1338 35.8006C16.8378 35.3342 16.5823 34.8395 16.3106 34.3569C16.2781 34.3001 16.2416 34.2433 16.2011 34.1703C16.1687 34.2433 16.2011 34.2879 16.2133 34.3366C16.4931 35.2815 16.777 36.2264 17.0527 37.1753C17.1663 37.5606 17.2595 37.958 17.2839 38.3635C17.3082 38.7204 17.2758 39.0773 17.1582 39.4179C17.0933 39.6166 17.0041 39.7991 16.8702 39.9614C16.7161 40.1438 16.5417 40.1803 16.3228 40.079C16.1524 39.9979 16.0267 39.8681 15.9253 39.7059C15.7226 39.3896 15.5604 39.0489 15.4427 38.688C15.2765 38.1608 15.1143 37.6295 14.9521 37.0983C14.802 36.5995 14.6317 36.1088 14.4208 35.6302C13.9828 34.6245 13.6138 33.5945 13.2245 32.5685C12.8271 31.5262 12.3688 30.5084 11.9998 29.454C11.9024 29.1741 11.801 28.8984 11.7321 28.6104C11.6632 28.3104 11.6672 28.0103 11.7524 27.7142C11.797 27.5723 11.8375 27.4263 11.8781 27.2803C11.8903 27.2357 11.9105 27.1911 11.8903 27.1424C11.8416 27.1505 11.8294 27.1951 11.8092 27.2276C11.3104 28.0305 10.6088 28.5375 9.69633 28.7524C9.18535 28.87 8.67438 28.8984 8.15935 28.8862C7.87548 28.8822 7.65243 28.7483 7.474 28.5334C7.30773 28.3306 7.29556 28.1522 7.42939 27.9251C7.50644 27.7872 7.61593 27.6737 7.73354 27.5682C7.87953 27.4344 8.03769 27.3168 8.20396 27.2073C8.41078 27.0735 8.59327 26.9153 8.78793 26.7612C9.35568 26.307 9.67199 25.6987 9.8626 25.0093C9.98831 24.547 10.0167 24.0725 10.0532 23.6021C10.1667 22.2071 10.4182 20.8445 10.8643 19.5184C10.9454 19.2832 11.0103 19.0439 11.0751 18.8087C11.2374 18.2531 11.2414 17.6894 11.2009 17.1176C11.136 16.2052 10.9251 15.3292 10.6777 14.4573C10.2519 12.9649 9.92748 11.4523 9.62739 9.93154C9.30701 8.32562 8.97853 6.7197 8.62166 5.11784C8.46756 4.43655 8.38645 3.73903 8.2729 3.04962C8.14313 2.23044 8.01336 1.41126 7.88764 0.59208C7.8552 0.397424 7.81465 0.202767 7.82276 0ZM22.0813 15.1751C22.0448 15.1751 22.0205 15.1994 21.9921 15.2197C21.2013 15.8037 20.5606 16.5296 20.0456 17.3771C20.0334 17.3974 20.0091 17.4177 20.0334 17.4583C20.1956 17.3042 20.3497 17.15 20.4795 16.9676C20.9175 16.339 21.4203 15.7672 22.0124 15.2765C22.0448 15.2521 22.0813 15.2319 22.0935 15.1873C22.1543 15.171 22.2071 15.1427 22.2273 15.0656C22.1665 15.094 22.1097 15.1143 22.0813 15.1751ZM21.688 15.9578C21.6961 15.974 21.7083 15.9862 21.7204 16.0024C21.7772 15.9659 21.8299 15.9294 21.8867 15.8929C22.7708 15.317 23.6913 14.8061 24.6849 14.4411C25.1877 14.2586 25.7028 14.1085 26.2016 13.9058C26.2665 13.8774 26.3435 13.8733 26.4084 13.7679C24.5794 13.999 23.0262 14.7412 21.688 15.9578ZM26.3273 36.3683C26.0677 35.9466 25.4635 35.8168 25.1026 36.0844C25.4594 36.3927 25.865 36.4332 26.3273 36.3683ZM25.2121 32.3698C25.2283 32.2603 25.2445 32.1832 25.1999 32.1062C25.1837 32.0859 25.1634 32.0697 25.131 32.0737C25.0985 32.0778 25.0904 32.1062 25.0904 32.1305C25.0904 32.2156 25.0985 32.3008 25.2121 32.3698Z" fill="#7C2248"/>
</g>
<mask id="mask1_152_127" style="mask-type:luminance" maskUnits="userSpaceOnUse" x="21" y="0" width="30" height="60">
<path d="M21.6434 0H51V59.9542H21.6434V0Z" fill="white"/>
</mask>
<g mask="url(#mask1_152_127)">
<path d="M43.4084 0C43.3111 0.206823 43.2908 0.433922 43.2462 0.65291C43.0637 1.54103 42.8934 2.42915 42.7149 3.31727C42.4959 4.39194 42.2851 5.4666 42.058 6.54127C41.6768 8.34995 41.3361 10.1708 40.9225 11.9754C40.6954 12.973 40.4439 13.9625 40.1398 14.9399C39.9046 15.6982 39.8032 16.4769 39.7302 17.2636C39.6653 17.9692 39.7829 18.6424 39.9979 19.3075C40.1722 19.8469 40.3628 20.3862 40.5088 20.9337C40.7887 22.0084 40.9346 23.0992 40.9549 24.2104C40.9671 24.843 41.1496 25.423 41.4253 25.9826C41.5267 26.1813 41.6565 26.3516 41.8106 26.5138C42.135 26.8464 42.4878 27.1465 42.869 27.4101C43.1043 27.5682 43.3151 27.7507 43.4895 27.9697C43.6639 28.1846 43.6517 28.2982 43.449 28.4766C43.3395 28.5699 43.2178 28.6186 43.0799 28.6267C42.2121 28.6672 41.3807 28.5415 40.6305 28.0792C40.1357 27.775 39.7586 27.3452 39.5193 26.822C39.2233 26.1813 38.9516 25.5284 38.7772 24.843C38.7407 24.7092 38.7164 24.5754 38.6799 24.4416C38.6637 24.3767 38.6353 24.2996 38.546 24.324C38.4568 24.3442 38.473 24.4294 38.4852 24.4943C38.5014 24.6078 38.5217 24.7254 38.5501 24.839C38.7285 25.5649 38.8421 26.303 39.0408 27.0248C39.0976 27.2357 39.1584 27.4466 39.2233 27.6574C39.3368 28.0062 39.3287 28.355 39.2192 28.7078C39.0367 29.312 38.8096 29.9 38.5744 30.484C38.1365 31.5627 37.6944 32.6374 37.2767 33.7283C37.0456 34.3366 36.8104 34.9408 36.5468 35.537C36.2467 36.2223 36.0277 36.9361 35.829 37.6579C35.7032 38.1 35.5775 38.542 35.4153 38.9719C35.3261 39.1949 35.2247 39.4098 35.0949 39.6126C35.0341 39.7059 34.9652 39.791 34.8719 39.8478C34.7097 39.9492 34.6002 39.9289 34.4907 39.7708C34.2798 39.4626 34.1825 39.1138 34.1541 38.7448C34.1217 38.3433 34.1987 37.954 34.3001 37.5687C34.4826 36.8631 34.734 36.1818 34.9449 35.4883C35.2126 34.5799 35.4599 33.6675 35.7762 32.7753C35.833 32.6212 35.8736 32.459 35.8776 32.2927C35.8776 32.2319 35.8736 32.167 35.7965 32.1467C35.7235 32.1305 35.6789 32.171 35.6465 32.2278C35.6221 32.2684 35.6019 32.313 35.5816 32.3576C35.4599 32.6334 35.3383 32.9051 35.2247 33.1889C35.0463 33.6391 34.8273 34.073 34.584 34.4948C34.1906 35.1679 33.7932 35.8411 33.3593 36.49C33.0592 36.9361 32.8199 37.4227 32.5644 37.9012C32.3576 38.2946 32.1548 38.692 31.9439 39.0813C31.798 39.3571 31.6357 39.6167 31.4492 39.86C31.2586 40.1073 31.0274 40.3101 30.7355 40.4277C30.4962 40.521 30.411 40.4764 30.3137 40.2371C30.2813 40.156 30.2853 40.0749 30.2772 39.9938C30.2488 39.5112 30.3705 39.057 30.5165 38.6028C30.6016 38.3311 30.7233 38.0837 30.8571 37.8364C31.2991 37.0172 31.6763 36.1656 32.0251 35.3018C32.2116 34.8516 32.386 34.3974 32.605 33.9594C32.7226 33.7202 32.8037 33.4688 32.8929 33.2133C33.1443 32.463 33.4769 31.7533 33.9027 31.0883C34.0892 30.7922 34.2677 30.4921 34.4339 30.1839C34.4664 30.119 34.5313 30.042 34.442 29.9852C34.3528 29.9284 34.3123 30.0258 34.2717 30.0825C33.9919 30.4881 33.6918 30.8814 33.4647 31.3194C33.4404 31.3721 33.4241 31.437 33.339 31.4573C33.3593 31.3154 33.3755 31.1815 33.3917 31.0477C33.4201 30.8247 33.4566 30.5976 33.4769 30.3745C33.4971 30.1312 33.5458 29.9001 33.6391 29.677C33.7567 29.3891 33.7729 29.0768 33.8216 28.7727C33.8337 28.7078 33.8216 28.6388 33.7445 28.6267C33.6715 28.6145 33.6431 28.6713 33.6269 28.7362C33.5823 28.9227 33.5377 29.1093 33.489 29.308C33.4323 29.2715 33.4363 29.2269 33.4363 29.1823C33.4323 28.9308 33.4323 28.6753 33.4282 28.4239C33.412 27.1303 33.3674 25.8407 33.2457 24.5551C33.0592 22.5396 32.5806 20.5971 31.7493 18.7479C31.7209 18.683 31.6763 18.6181 31.6885 18.537C31.8953 18.8127 32.098 19.0885 32.2319 19.4129C32.4995 20.0375 32.6982 20.6863 32.8888 21.3352C32.9172 21.4325 32.9497 21.5339 32.9821 21.6271C33.0105 21.7001 33.0511 21.7772 33.1443 21.7529C33.2295 21.7326 33.2538 21.6555 33.2538 21.5744C33.2579 21.4649 33.2579 21.3595 33.2376 21.25C33.1605 20.812 33.0064 20.4024 32.8321 19.9969C32.7388 19.7779 32.6415 19.5589 32.5198 19.3521C32.24 18.8655 31.9764 18.3707 31.7168 17.8719C30.7395 15.9983 29.2553 14.6925 27.3371 13.8693C26.8748 13.6706 26.4125 13.48 25.9177 13.3583C25.4635 13.2448 25.0093 13.2285 24.547 13.2975C24.3848 13.3218 24.2226 13.338 24.0644 13.3705C23.9428 13.3948 23.8414 13.3745 23.7319 13.3137C23.2331 13.0339 22.7545 12.7257 22.3287 12.3323C22.1827 12.1985 22.0449 12.0565 21.9394 11.8862C21.8056 11.6713 21.8421 11.5172 22.0692 11.3996C22.3003 11.2779 22.5599 11.2333 22.8113 11.1846C24.4456 10.8805 26.011 11.1076 27.5196 11.8011C28.9673 12.4621 30.261 13.338 31.3154 14.5506C32.4306 15.8239 33.1687 17.296 33.5661 18.9506C33.5782 19.0033 33.5864 19.0561 33.5823 19.1128C33.558 20.151 33.6431 21.1851 33.6837 22.2192C33.7161 22.9938 33.7405 23.7684 33.6675 24.5429C33.6594 24.624 33.6634 24.7092 33.6675 24.7903C33.6715 24.843 33.7121 24.8795 33.7607 24.8876C33.8135 24.8958 33.8581 24.8674 33.8743 24.8187C33.9027 24.7254 33.9311 24.6322 33.9473 24.5389C33.9959 24.2428 34.0324 23.9427 34.0406 23.6386C34.0568 23.0344 34.1419 22.4382 34.1703 21.834C34.1987 21.1365 34.1298 20.447 33.9959 19.7657C33.9432 19.494 33.9311 19.2223 33.9513 18.9466C34.0243 17.9895 34.2474 17.0811 34.734 16.2457C34.9327 15.9051 35.099 15.5441 35.2815 15.1913C35.683 14.4167 35.9263 13.5935 36.0398 12.7257C36.1656 11.7646 36.2548 10.8034 36.2102 9.83015C36.1818 9.17319 36.1574 8.51622 36.1291 7.8552C36.0845 6.69132 36.1169 5.52338 36.1777 4.35949C36.2183 3.54437 36.2669 2.72519 36.2872 1.91007C36.2994 1.47615 36.3075 1.04628 36.3034 0.612357C36.3034 0.547471 36.3237 0.478531 36.2548 0.385258C36.2304 0.579914 36.2102 0.742128 36.1939 0.904342C36.0885 2.26288 35.979 3.62548 35.8736 4.98402C35.7884 6.13574 35.8168 7.29151 35.8533 8.44322C35.8817 9.3354 35.9344 10.2276 35.8614 11.1198C35.7844 12.0565 35.6992 12.9933 35.3788 13.8896C35.2328 14.3032 35.0422 14.6966 34.8435 15.0899C34.7016 15.3698 34.5637 15.6496 34.4137 15.9294C34.0406 16.6066 33.7851 17.3244 33.6877 18.099C33.6837 18.1396 33.6756 18.1801 33.6675 18.2207C33.6634 18.2328 33.6553 18.245 33.6431 18.2612C33.5823 18.1882 33.5742 18.0949 33.5458 18.0138C32.9862 16.3106 32.0494 14.8385 30.7517 13.63C29.2918 12.2715 27.5723 11.3712 25.6298 10.921C24.9809 10.771 24.324 10.7629 23.667 10.8278C23.2331 10.8724 22.8032 10.921 22.3814 11.0508C22.3003 11.0792 22.2152 11.1076 22.1341 11.14C21.8948 11.2292 21.6961 11.359 21.6434 11.6348C21.6434 11.6632 21.6434 11.6916 21.6434 11.7159C21.692 11.9876 21.8705 12.1782 22.053 12.3647C22.4179 12.7338 22.8356 13.0379 23.2777 13.3137C23.3344 13.3502 23.3912 13.3867 23.4439 13.4191C23.4358 13.4435 23.4318 13.4637 23.4277 13.4637C23.0627 13.5124 22.714 13.6422 22.3449 13.6422C22.3166 13.6422 22.2882 13.6462 22.2638 13.6503C22.1868 13.6625 22.1341 13.703 22.1341 13.7841C22.1341 13.8733 22.1949 13.922 22.276 13.9301C22.3612 13.9342 22.4504 13.926 22.5396 13.9179C22.9776 13.8814 23.4196 13.8449 23.8576 13.8003C24.036 13.7801 24.2023 13.8044 24.3686 13.8814C24.8511 14.1004 25.354 14.2708 25.8569 14.437C27.4952 14.9845 28.9673 15.828 30.2853 16.9473C30.4394 17.0771 30.5651 17.2271 30.6706 17.3974C31.2505 18.3423 31.6803 19.3562 32.0453 20.3984C32.4874 21.6596 32.7428 22.9654 32.9334 24.2834C33.1322 25.6663 33.1362 27.0613 33.1687 28.4523C33.1849 29.0565 33.1808 29.6608 33.1808 30.265C33.1808 30.9788 33.0308 31.6682 32.8523 32.3535C32.8037 32.5401 32.7063 32.7063 32.6171 32.8767C32.39 33.3309 32.1913 33.7972 32.098 34.3001C32.0737 34.4583 32.0251 34.6042 31.9561 34.7462C31.7615 35.1477 31.579 35.5573 31.3721 35.9506C31.0883 36.4981 30.8368 37.0577 30.6219 37.6376C30.4313 38.1527 30.115 38.5744 29.7378 38.9556C29.1011 39.5883 28.3955 40.1357 27.6209 40.5859C27.4141 40.7035 27.2114 40.8251 27.0086 40.9549C26.4043 41.3402 25.6784 41.2023 25.2202 40.6386C24.9241 40.2777 24.7863 39.8519 24.7457 39.3896C24.7011 38.8826 24.6808 38.3757 24.6849 37.8688C24.6889 37.52 24.6808 37.1672 24.7376 36.8225C24.7417 36.7739 24.7498 36.7252 24.7579 36.6806C24.7782 36.5792 24.8228 36.5427 24.9282 36.5711C25.1918 36.6441 25.4554 36.6238 25.7149 36.5508C25.9136 36.494 26.0921 36.3967 26.2259 36.2345C26.3313 36.1047 26.307 35.9912 26.157 35.9466C25.8407 35.8492 25.5162 35.8411 25.1959 35.9547C25.0661 35.9993 24.9566 36.0885 24.8876 36.2102C24.8228 36.3278 24.7417 36.3318 24.6322 36.2872C24.5227 36.2386 24.401 36.2021 24.2956 36.1453C24.0969 36.0439 23.8981 35.9344 23.7075 35.8168C23.6264 35.7681 23.5291 35.7032 23.5494 35.5978C23.5737 35.5005 23.6873 35.5005 23.7724 35.4883C23.886 35.468 24.0036 35.4518 24.1171 35.4518C24.697 35.4559 25.2729 35.4599 25.8488 35.468C26.3557 35.4761 26.8423 35.6181 27.3371 35.7073C27.4628 35.7316 27.5885 35.7519 27.7183 35.7681C27.7953 35.7803 27.8724 35.76 27.9008 35.6749C27.9251 35.5938 27.8724 35.5451 27.8115 35.5086C27.7507 35.468 27.6858 35.4275 27.6209 35.391C27.2762 35.2126 27.0005 34.949 26.7653 34.6407C26.6477 34.4826 26.526 34.3244 26.3881 34.1825C26.2381 34.0324 26.0759 33.927 25.8447 33.9635C25.7271 33.9838 25.6865 33.9392 25.7068 33.8297C25.7758 33.4566 25.7758 33.0794 25.8082 32.7023C25.8123 32.6617 25.8163 32.6212 25.8528 32.5725C25.9907 32.6901 26.1448 32.7793 26.3192 32.828C26.522 32.8807 26.7207 32.8807 26.9113 32.7753C27.2519 32.5847 27.3695 32.2643 27.3776 31.8953C27.3817 31.5911 27.2803 31.3194 27.0816 31.0842C26.9315 30.9058 26.7815 30.7273 26.6436 30.5408C26.3841 30.2001 26.1732 29.8352 26.1083 29.4012C26.0313 28.8781 26.0921 28.3752 26.2867 27.8845C26.3841 27.6372 26.5666 27.5196 26.8261 27.5398C27.2357 27.5723 27.6412 27.6128 28.0305 27.7304C28.6023 27.9008 29.1904 27.9616 29.7824 27.9819C30.0177 27.994 30.2529 28.0224 30.4921 28.0468C30.7192 28.0751 30.9382 28.0427 31.1572 27.9859C31.1694 27.9859 31.1815 27.9819 31.1937 27.9778C31.2951 27.9332 31.4168 27.8967 31.4127 27.7629C31.4046 27.6291 31.2829 27.6209 31.1815 27.6007C30.9179 27.5398 30.6543 27.4831 30.3786 27.4871C30.3259 27.4871 30.2691 27.4952 30.2042 27.4547C30.2731 27.406 30.3502 27.4182 30.4151 27.4182C30.6462 27.4141 30.8733 27.3776 31.0923 27.3006C31.3681 27.2073 31.5709 27.0329 31.6925 26.7734C31.9277 26.2665 31.9764 25.7393 31.802 25.1959C31.725 24.9566 31.583 24.77 31.3762 24.6362C31.1207 24.4659 30.8449 24.3361 30.5449 24.255C30.2772 24.178 30.0095 24.1942 29.7419 24.255C29.3282 24.3442 28.9105 24.401 28.4928 24.4375C28.4077 24.4456 28.3185 24.4416 28.2293 24.4334C28.4239 24.3645 28.6348 24.3523 28.8335 24.3118C29.1741 24.2428 29.5107 24.1536 29.8514 24.1009C30.7111 23.9671 31.4127 24.2591 31.9521 24.9444C32.0332 25.0458 32.1143 25.1512 32.1224 25.2891C32.1264 25.3297 32.1467 25.3581 32.1832 25.3581C32.2197 25.3621 32.24 25.3297 32.2562 25.2972C32.3089 25.1837 32.2968 25.0701 32.2481 24.9606C32.1751 24.7781 32.0615 24.6281 31.9358 24.4821C31.583 24.0806 31.1613 23.7968 30.6219 23.7238C30.3056 23.6792 29.9933 23.7197 29.6932 23.8008C29.0444 23.9792 28.3874 24.1212 27.7264 24.251C27.5601 24.2834 27.479 24.3523 27.479 24.4497C27.4831 24.547 27.5642 24.6119 27.7345 24.6403C28.067 24.697 28.3996 24.6646 28.7321 24.6322C29.1498 24.5916 29.5635 24.5227 29.973 24.4213C30.2407 24.3523 30.5002 24.4253 30.7517 24.5105C30.922 24.5673 31.0761 24.6524 31.2343 24.7335C31.4816 24.8593 31.6479 25.058 31.729 25.3297C31.8628 25.7555 31.8547 26.1772 31.6722 26.5909C31.5425 26.8829 31.3235 27.0532 31.0153 27.1262C30.8368 27.1667 30.6543 27.183 30.4719 27.183C30.0298 27.1789 29.5878 27.2073 29.1498 27.2316C28.7889 27.2519 28.428 27.2154 28.0751 27.1505C28.0143 27.1384 27.9535 27.1262 27.8927 27.1181C27.8075 27.1019 27.7264 27.1059 27.6818 27.1951C27.6412 27.2762 27.6615 27.3533 27.7183 27.4222C27.7386 27.4547 27.7832 27.475 27.7791 27.5358C27.5926 27.548 27.406 27.4993 27.2235 27.475C27.0532 27.4547 26.8869 27.4506 26.7166 27.4547C26.5301 27.4547 26.3962 27.5398 26.2949 27.698C26.1407 27.9373 26.0678 28.213 26.0069 28.4847C25.8772 29.1093 25.9299 29.7094 26.2462 30.2772C26.4165 30.5773 26.599 30.8652 26.7896 31.1491C26.9113 31.3235 27.0045 31.5141 27.0451 31.725C27.0694 31.8426 27.0735 31.9602 27.0532 32.0737C26.964 32.4955 26.6355 32.678 26.2259 32.536C26.1935 32.4792 26.2421 32.4468 26.2624 32.4062C26.307 32.3089 26.3354 32.2156 26.3313 32.1062C26.3273 31.9683 26.2786 31.8831 26.1772 31.8466C26.0556 31.8061 25.9542 31.8507 25.8853 31.9399C25.8163 32.0291 25.7636 32.1224 25.6379 32.1508C25.5771 32.167 25.573 32.2521 25.5689 32.313C25.5649 32.8118 25.5649 33.3146 25.5608 33.8175C25.5608 33.8865 25.6054 33.9432 25.6257 34.0162C25.4351 34.1014 25.2445 34.1582 25.0377 34.1784C24.9688 34.1865 24.8674 34.1744 24.8633 34.2798C24.8593 34.3853 24.9647 34.3731 25.0336 34.3893C25.1634 34.4258 25.3013 34.4218 25.4351 34.4015C25.4959 34.3893 25.5568 34.3771 25.6176 34.365C26.0231 34.3082 25.9664 34.2514 26.3111 34.6002C26.5179 34.8151 26.7288 35.0301 26.968 35.2734C26.7288 35.2288 26.5301 35.1923 26.3273 35.1517C26.1286 35.1112 25.9218 35.1031 25.719 35.1031C25.2364 35.1071 24.7538 35.1112 24.2753 35.1233C24.0644 35.1314 23.8535 35.1436 23.6548 35.2288C23.5007 35.2937 23.3426 35.3667 23.3263 35.5573C23.3101 35.7357 23.4318 35.8452 23.5656 35.9385C23.8779 36.1574 24.2185 36.3318 24.5754 36.4697C24.6768 36.5062 24.7011 36.5427 24.6768 36.6603C24.6119 37.0415 24.5713 37.4308 24.547 37.8201C24.5186 38.2824 24.5105 38.7407 24.5429 39.199C24.5673 39.6004 24.6646 39.9857 24.843 40.3466C25.058 40.7805 25.3986 41.0887 25.8285 41.2915C26.1083 41.4253 26.3962 41.4497 26.7004 41.3483C27.26 41.1617 27.7629 40.8657 28.2293 40.5088C28.7686 40.0952 29.2796 39.6572 29.7662 39.1868C29.8149 39.1422 29.8595 39.0854 29.9203 39.0611C29.9568 39.0611 29.9528 39.0854 29.9487 39.1057C29.896 39.9735 29.8514 40.8454 29.9568 41.7133C30.046 42.4676 30.2164 43.2016 30.4881 43.9072C30.7517 44.5926 31.1897 45.136 31.8304 45.5091C32.751 46.0444 33.7364 46.4012 34.7786 46.604C35.8614 46.8189 36.9564 46.9933 38.0513 47.1515C39.5883 47.3786 41.1131 47.6949 42.6054 48.1369C44.5804 48.7209 46.1823 49.8523 47.3948 51.5434C48.0072 52.4032 48.506 53.3318 48.9439 54.2929C49.4428 55.3919 49.8645 56.5193 50.2214 57.6751C50.412 58.2915 50.6391 58.8917 50.9067 59.4797C50.9635 59.6095 51.0324 59.7393 51.1054 59.8609C51.1338 59.9136 51.1663 59.9501 51.2271 59.9542C51.2271 59.869 51.2271 59.7879 51.2271 59.7068C51.1622 59.6663 51.1622 59.5933 51.1379 59.5284C50.6959 58.3645 50.3836 57.152 49.9659 55.9759C49.5604 54.8242 49.0737 53.709 48.506 52.6262C47.9788 51.6245 47.3259 50.7202 46.5107 49.9375C45.3387 48.8142 43.9518 48.0964 42.3865 47.7192C41.2307 47.4435 40.0627 47.2366 38.8867 47.0623C37.6863 46.8838 36.4778 46.7459 35.2815 46.527C34.2555 46.3364 33.2538 46.0809 32.3292 45.574C32.2765 45.5456 32.2238 45.5172 32.167 45.4847C31.4005 45.0833 30.922 44.4506 30.6787 43.6152C30.407 42.6703 30.2488 41.7052 30.261 40.7156C30.261 40.6873 30.265 40.6629 30.2691 40.6183C30.6097 40.8008 30.8774 40.6264 31.1329 40.4521C31.4005 40.2696 31.6114 40.0262 31.802 39.7626C32.1264 39.3125 32.3819 38.8177 32.6415 38.3271C33.0957 37.4673 33.5742 36.6238 34.0933 35.8006C34.3893 35.3342 34.6448 34.8395 34.9206 34.3569C34.953 34.3001 34.9855 34.2433 35.0301 34.1703C35.0625 34.2433 35.0301 34.2879 35.0179 34.3366C34.7381 35.2815 34.4542 36.2264 34.1784 37.1753C34.0649 37.5606 33.9676 37.958 33.9432 38.3636C33.923 38.7204 33.9554 39.0773 34.0689 39.4179C34.1338 39.6166 34.223 39.7991 34.3569 39.9614C34.511 40.1438 34.6894 40.1803 34.9043 40.079C35.0787 39.9979 35.2004 39.8681 35.3018 39.7059C35.5086 39.3896 35.6708 39.0489 35.7844 38.688C35.9506 38.1608 36.1169 37.6295 36.2751 37.0983C36.4292 36.5995 36.5995 36.1088 36.8063 35.6302C37.2483 34.6245 37.6133 33.5945 38.0026 32.5685C38.4001 31.5262 38.8624 30.5084 39.2314 29.454C39.3287 29.1741 39.4261 28.8984 39.495 28.6105C39.568 28.3104 39.5599 28.0103 39.4747 27.7142C39.4342 27.5723 39.3936 27.4263 39.3531 27.2803C39.3368 27.2357 39.3206 27.1911 39.3368 27.1424C39.3896 27.1505 39.4017 27.1951 39.422 27.2276C39.9208 28.0305 40.6183 28.5375 41.5348 28.7524C42.0418 28.87 42.5568 28.8984 43.0718 28.8862C43.3516 28.8822 43.5787 28.7483 43.7572 28.5334C43.9194 28.3306 43.9356 28.1522 43.8018 27.9251C43.7207 27.7872 43.6112 27.6737 43.4976 27.5682C43.3516 27.4344 43.1894 27.3168 43.0272 27.2073C42.8204 27.0735 42.6338 26.9153 42.4432 26.7612C41.8714 26.307 41.5551 25.6987 41.3686 25.0093C41.2428 24.547 41.2145 24.0725 41.178 23.6021C41.0644 22.2071 40.813 20.8445 40.3628 19.5184C40.2858 19.2832 40.2209 19.0439 40.152 18.8087C39.9938 18.2531 39.9897 17.6894 40.0303 17.1176C40.0911 16.2052 40.3061 15.3292 40.5534 14.4573C40.9793 12.9649 41.3037 11.4523 41.6038 9.93154C41.9201 8.32562 42.2526 6.7197 42.6095 5.11784C42.7636 4.43655 42.8447 3.73903 42.9542 3.04962C43.084 2.23044 43.2178 1.41126 43.3435 0.59208C43.3719 0.397424 43.4165 0.202767 43.4084 0ZM29.1458 15.1751C29.1823 15.1751 29.2106 15.1994 29.235 15.2197C30.0298 15.8037 30.6706 16.5296 31.1856 17.3771C31.1978 17.3974 31.2221 17.4177 31.1978 17.4583C31.0355 17.3042 30.8774 17.15 30.7517 16.9676C30.3096 16.339 29.8108 15.7672 29.2188 15.2765C29.1863 15.2521 29.1498 15.2319 29.1376 15.1873C29.0768 15.171 29.0241 15.1427 29.0038 15.0656C29.0647 15.094 29.1214 15.1143 29.1458 15.1751ZM29.5432 15.9578C29.531 15.974 29.5229 15.9862 29.5107 16.0024C29.454 15.9659 29.3972 15.9294 29.3404 15.8929C28.4563 15.317 27.5358 14.8061 26.5422 14.4411C26.0394 14.2586 25.5243 14.1085 25.0296 13.9058C24.9647 13.8774 24.8836 13.8733 24.8228 13.7679C26.6517 13.999 28.2049 14.7412 29.5432 15.9578ZM24.9039 36.3683C25.1594 35.9466 25.7677 35.8168 26.1286 36.0844C25.7717 36.3927 25.3662 36.4332 24.9039 36.3683ZM26.0191 32.3698C25.9988 32.2603 25.9826 32.1832 26.0313 32.1062C26.0475 32.0859 26.0678 32.0697 26.0961 32.0737C26.1326 32.0778 26.1367 32.1062 26.1367 32.1305C26.1407 32.2156 26.1326 32.3008 26.0191 32.3698Z" fill="#470960"/>
</g>
<path d="M25.062 82.1045C25.1148 82.0518 25.1999 82.0478 25.2526 82.0964C25.3054 82.1451 25.3094 82.2302 25.2567 82.283C25.208 82.3357 25.1229 82.3397 25.0701 82.2911C25.0134 82.2384 25.0134 82.1572 25.062 82.1045Z" fill="#470960"/>
<path d="M24.5064 81.5286C24.5632 81.484 24.6443 81.484 24.693 81.5367C24.7417 81.5935 24.7417 81.6746 24.6849 81.7273C24.6322 81.776 24.547 81.776 24.4983 81.7192C24.4497 81.6624 24.4537 81.5773 24.5064 81.5286Z" fill="#470960"/>
<path d="M23.9955 80.9203C24.0522 80.8757 24.1374 80.8838 24.182 80.9406C24.2266 80.9973 24.2185 81.0784 24.1617 81.1271C24.1049 81.1717 24.0198 81.1636 23.9711 81.1068C23.9265 81.046 23.9346 80.9649 23.9955 80.9203Z" fill="#470960"/>
<path d="M23.5291 80.2714C23.59 80.2308 23.6711 80.2471 23.7116 80.3079C23.7562 80.3647 23.74 80.4458 23.6792 80.4904C23.6184 80.5309 23.5332 80.5188 23.4926 80.4539C23.448 80.3971 23.4643 80.312 23.5291 80.2714Z" fill="#470960"/>
<path d="M23.1114 79.5901C23.1763 79.5536 23.2574 79.578 23.2939 79.6388C23.3304 79.7037 23.3061 79.7848 23.2452 79.8213C23.1803 79.8578 23.0992 79.8375 23.0627 79.7726C23.0222 79.7078 23.0465 79.6266 23.1114 79.5901Z" fill="#470960"/>
<path d="M22.7464 78.8804C22.8154 78.848 22.8924 78.8764 22.9249 78.9413C22.9533 79.0102 22.9289 79.0872 22.864 79.1197C22.7951 79.1521 22.714 79.1237 22.6856 79.0589C22.6532 78.994 22.6815 78.9129 22.7464 78.8804Z" fill="#470960"/>
<path d="M22.4382 78.1465C22.5072 78.1221 22.5802 78.1546 22.6086 78.2235C22.637 78.2884 22.6045 78.3654 22.5356 78.3938C22.4666 78.4222 22.3896 78.3898 22.3612 78.3208C22.3328 78.2478 22.3693 78.1748 22.4382 78.1465Z" fill="#470960"/>
<path d="M22.1828 77.3922C22.2517 77.3719 22.3287 77.4084 22.349 77.4773C22.3693 77.5463 22.3328 77.6233 22.2598 77.6436C22.1909 77.6679 22.1179 77.6274 22.0935 77.5584C22.0733 77.4854 22.1098 77.4125 22.1828 77.3922Z" fill="#470960"/>
<path d="M21.9881 76.6176C22.057 76.6054 22.13 76.65 22.1463 76.719C22.1584 76.792 22.1179 76.8609 22.0449 76.8771C21.9719 76.8974 21.8989 76.8528 21.8827 76.7798C21.8705 76.7028 21.9151 76.6338 21.9881 76.6176Z" fill="#470960"/>
<path d="M21.8502 75.8349C21.9232 75.8228 21.9881 75.8755 22.0003 75.9444C22.0084 76.0174 21.9597 76.0864 21.8867 76.0945C21.8137 76.1067 21.7448 76.058 21.7367 75.985C21.7245 75.912 21.7772 75.8431 21.8502 75.8349Z" fill="#470960"/>
<path d="M21.7691 75.0401C21.8421 75.036 21.907 75.0928 21.9151 75.1617C21.9191 75.2347 21.8624 75.2996 21.7894 75.3037C21.7164 75.3118 21.6515 75.255 21.6474 75.182C21.6434 75.109 21.6961 75.0441 21.7691 75.0401Z" fill="#470960"/>
<path d="M21.7529 74.2452C21.8259 74.2452 21.8826 74.302 21.8826 74.375C21.8826 74.448 21.8259 74.5088 21.7529 74.5088C21.6758 74.5129 21.619 74.4521 21.615 74.375C21.615 74.302 21.6758 74.2452 21.7529 74.2452Z" fill="#470960"/>
<path d="M21.7894 73.4463C21.8624 73.4544 21.9191 73.5193 21.911 73.5923C21.907 73.6653 21.8421 73.718 21.7691 73.714C21.6961 73.7099 21.6393 73.645 21.6474 73.572C21.6515 73.495 21.7164 73.4423 21.7894 73.4463Z" fill="#470960"/>
<path d="M21.8908 72.6555C21.9638 72.6677 22.0124 72.7366 22.0003 72.8055C21.9881 72.8785 21.9232 72.9313 21.8502 72.9191C21.7772 72.911 21.7245 72.842 21.7367 72.769C21.7488 72.6961 21.8178 72.6433 21.8908 72.6555Z" fill="#470960"/>
<path d="M22.0448 71.8768C22.1178 71.8931 22.1625 71.962 22.1462 72.035C22.13 72.1039 22.0611 72.1526 21.9881 72.1364C21.9151 72.1202 21.8705 72.0512 21.8867 71.9782C21.8989 71.9012 21.9759 71.8566 22.0448 71.8768Z" fill="#470960"/>
<path d="M22.2598 71.1064C22.3328 71.1307 22.3693 71.2037 22.349 71.2726C22.3287 71.3416 22.2517 71.3821 22.1828 71.3619C22.1098 71.3416 22.0733 71.2645 22.0935 71.1956C22.1179 71.1266 22.1909 71.0861 22.2598 71.1064Z" fill="#470960"/>
<path d="M22.5356 70.3602C22.6045 70.3886 22.637 70.4657 22.6086 70.5306C22.5802 70.5995 22.5072 70.636 22.4382 70.6076C22.3693 70.5833 22.3328 70.5022 22.3612 70.4332C22.3896 70.3643 22.4666 70.3319 22.5356 70.3602Z" fill="#470960"/>
<path d="M22.864 69.6343C22.9289 69.6668 22.9533 69.7438 22.9249 69.8087C22.8924 69.8777 22.8154 69.902 22.7464 69.8736C22.6815 69.8412 22.6532 69.7601 22.6856 69.6952C22.714 69.6262 22.7951 69.5978 22.864 69.6343Z" fill="#470960"/>
<path d="M23.2452 68.9327C23.3061 68.9692 23.3304 69.0503 23.2939 69.1152C23.2574 69.176 23.1763 69.1963 23.1114 69.1598C23.0465 69.1273 23.0222 69.0462 23.0627 68.9813C23.0992 68.9164 23.1803 68.8921 23.2452 68.9327Z" fill="#470960"/>
<path d="M23.6792 68.2636C23.74 68.3042 23.7521 68.3893 23.7116 68.4461C23.671 68.5069 23.5899 68.5232 23.5291 68.4826C23.4683 68.4421 23.448 68.3569 23.4926 68.2961C23.5332 68.2352 23.6183 68.219 23.6792 68.2636Z" fill="#470960"/>
<path d="M24.1577 67.6269C24.2145 67.6715 24.2226 67.7567 24.178 67.8134C24.1334 67.8702 24.0523 67.8783 23.9914 67.8337C23.9347 67.7891 23.9225 67.7039 23.9712 67.6472C24.0158 67.5904 24.1009 67.5823 24.1577 67.6269Z" fill="#470960"/>
<path d="M24.6889 67.0267C24.7417 67.0754 24.7457 67.1605 24.697 67.2132C24.6484 67.27 24.5632 67.27 24.5064 67.2213C24.4537 67.1727 24.4497 67.0875 24.4983 67.0348C24.5511 66.978 24.6322 66.978 24.6889 67.0267Z" fill="#470960"/>
<path d="M25.2608 66.467C25.3094 66.5238 25.3054 66.609 25.2526 66.6576C25.1999 66.7063 25.1148 66.7022 25.0661 66.6495C25.0134 66.5968 25.0174 66.5116 25.0702 66.4589C25.1269 66.4102 25.208 66.4143 25.2608 66.467Z" fill="#470960"/>
<path d="M26.4246 66.6496C26.376 66.7023 26.2908 66.7064 26.2381 66.6577C26.1854 66.609 26.1813 66.5239 26.23 66.4711C26.2827 66.4144 26.3638 66.4103 26.4206 66.463C26.4733 66.5117 26.4773 66.5969 26.4246 66.6496Z" fill="#7C2248"/>
<path d="M26.9843 67.2213C26.9275 67.27 26.8423 67.27 26.7937 67.2132C26.745 67.1605 26.7491 67.0754 26.8018 67.0267C26.8586 66.978 26.9397 66.978 26.9924 67.0348C27.0411 67.0875 27.037 67.1727 26.9843 67.2213Z" fill="#7C2248"/>
<path d="M27.4953 67.8337C27.4385 67.8783 27.3533 67.8702 27.3087 67.8134C27.2641 67.7567 27.2722 67.6756 27.329 67.6269C27.3858 67.5823 27.4709 67.5904 27.5196 67.6472C27.5642 67.7039 27.5561 67.7891 27.4953 67.8337Z" fill="#7C2248"/>
<path d="M27.9616 68.4826C27.9008 68.5231 27.8197 68.5069 27.7751 68.4461C27.7345 68.3893 27.7507 68.3041 27.8116 68.2636C27.8724 68.223 27.9535 68.2352 27.9981 68.296C28.0427 68.3568 28.0224 68.442 27.9616 68.4826Z" fill="#7C2248"/>
<path d="M28.3793 69.1598C28.3144 69.1963 28.2333 69.176 28.1968 69.1152C28.1603 69.0503 28.1806 68.9692 28.2455 68.9327C28.3103 68.8921 28.3915 68.9164 28.428 68.9813C28.4644 69.0462 28.4442 69.1273 28.3793 69.1598Z" fill="#7C2248"/>
<path d="M28.7443 69.8735C28.6753 69.9019 28.5983 69.8735 28.5659 69.8086C28.5375 69.7438 28.5618 69.6667 28.6267 69.6343C28.6956 69.6018 28.7767 69.6261 28.8051 69.6951C28.8376 69.76 28.8092 69.8411 28.7443 69.8735Z" fill="#7C2248"/>
<path d="M29.0525 70.6076C28.9835 70.632 28.9065 70.5995 28.8822 70.5306C28.8538 70.4657 28.8862 70.3886 28.9552 70.3602C29.0241 70.3319 29.1011 70.3643 29.1295 70.4332C29.1579 70.5022 29.1214 70.5833 29.0525 70.6076Z" fill="#7C2248"/>
<path d="M29.308 71.3619C29.239 71.3821 29.162 71.3416 29.1417 71.2727C29.1214 71.2078 29.1579 71.1307 29.2309 71.1104C29.2999 71.0861 29.3729 71.1267 29.3972 71.1956C29.4175 71.2645 29.381 71.3416 29.308 71.3619Z" fill="#7C2248"/>
<path d="M29.5026 72.1364C29.4296 72.1486 29.3607 72.104 29.3445 72.035C29.3282 71.962 29.3728 71.8931 29.4458 71.8728C29.5148 71.8566 29.5878 71.9012 29.604 71.9742C29.6202 72.0472 29.5756 72.1202 29.5026 72.1364Z" fill="#7C2248"/>
<path d="M29.6405 72.9191C29.5675 72.9313 29.5026 72.8786 29.4904 72.8096C29.4783 72.7366 29.5269 72.6717 29.5999 72.6596C29.6729 72.6474 29.7419 72.6961 29.754 72.7691C29.7662 72.8421 29.7135 72.911 29.6405 72.9191Z" fill="#7C2248"/>
<path d="M29.7216 73.714C29.6486 73.718 29.5838 73.6613 29.5756 73.5923C29.5716 73.5193 29.6284 73.4544 29.7014 73.4463C29.7744 73.4423 29.8392 73.495 29.8433 73.572C29.8474 73.645 29.7946 73.7099 29.7216 73.714Z" fill="#7C2248"/>
<path d="M29.7379 74.5088C29.6649 74.5088 29.6081 74.448 29.6081 74.375C29.6081 74.302 29.6649 74.2452 29.7379 74.2452C29.8149 74.2412 29.8717 74.302 29.8757 74.375C29.8717 74.4521 29.8109 74.5129 29.7379 74.5088Z" fill="#7C2248"/>
<path d="M29.7014 75.3036C29.6284 75.2996 29.5716 75.2347 29.5756 75.1617C29.5838 75.0887 29.6446 75.036 29.7216 75.04C29.7946 75.0441 29.8474 75.109 29.8433 75.182C29.8392 75.2549 29.7744 75.3117 29.7014 75.3036Z" fill="#7C2248"/>
<path d="M29.5999 76.0945C29.5269 76.0864 29.4783 76.0174 29.4904 75.9444C29.5026 75.8755 29.5675 75.8228 29.6405 75.8349C29.7135 75.8431 29.7662 75.912 29.754 75.985C29.7419 76.058 29.6729 76.1067 29.5999 76.0945Z" fill="#7C2248"/>
<path d="M29.4458 76.8771C29.3728 76.8609 29.3282 76.792 29.3445 76.719C29.3607 76.65 29.4296 76.6054 29.5026 76.6176C29.5756 76.6338 29.6202 76.7028 29.604 76.7758C29.5878 76.8488 29.5148 76.8934 29.4458 76.8771Z" fill="#7C2248"/>
<path d="M29.2309 77.6436C29.1579 77.6233 29.1214 77.5504 29.1417 77.4814C29.162 77.4125 29.239 77.3719 29.308 77.3922C29.381 77.4125 29.4175 77.4855 29.3972 77.5585C29.3729 77.6274 29.2999 77.668 29.2309 77.6436Z" fill="#7C2248"/>
<path d="M28.9552 78.3938C28.8862 78.3654 28.8538 78.2884 28.8822 78.2195C28.9065 78.1546 28.9835 78.1181 29.0525 78.1465C29.1214 78.1708 29.1579 78.2478 29.1295 78.3168C29.1011 78.3898 29.0241 78.4222 28.9552 78.3938Z" fill="#7C2248"/>
<path d="M28.6267 79.1197C28.5618 79.0872 28.5375 79.0102 28.5659 78.9413C28.5983 78.8764 28.6753 78.848 28.7443 78.8804C28.8092 78.9129 28.8376 78.9899 28.8051 79.0589C28.7767 79.1278 28.6916 79.1521 28.6267 79.1197Z" fill="#7C2248"/>
<path d="M28.2455 79.8213C28.1806 79.7848 28.1603 79.7037 28.1968 79.6388C28.2333 79.578 28.3144 79.5536 28.3793 79.5901C28.4442 79.6266 28.4644 79.7078 28.428 79.7726C28.3915 79.8375 28.3103 79.8578 28.2455 79.8213Z" fill="#7C2248"/>
<path d="M27.8115 80.4904C27.7507 80.4498 27.7385 80.3647 27.775 80.3079C27.8197 80.2471 27.9008 80.2308 27.9616 80.2714C28.0224 80.312 28.0427 80.3931 27.9981 80.4579C27.9535 80.5188 27.8724 80.535 27.8115 80.4904Z" fill="#7C2248"/>
<path d="M27.329 81.1271C27.2722 81.0784 27.2641 80.9973 27.3087 80.9406C27.3533 80.8838 27.4385 80.8757 27.4953 80.9203C27.5561 80.9649 27.5642 81.0501 27.5196 81.1068C27.475 81.1636 27.3858 81.1717 27.329 81.1271Z" fill="#7C2248"/>
<path d="M26.8018 81.7273C26.7491 81.6746 26.745 81.5894 26.7937 81.5367C26.8423 81.484 26.9275 81.484 26.9843 81.5286C27.037 81.5773 27.0411 81.6624 26.9924 81.7192C26.9397 81.776 26.8545 81.776 26.8018 81.7273Z" fill="#7C2248"/>
<path d="M26.23 82.283C26.1813 82.2302 26.1854 82.1451 26.2381 82.0964C26.2908 82.0478 26.376 82.0518 26.4246 82.1045C26.4773 82.1572 26.4733 82.2424 26.4206 82.2911C26.3638 82.3397 26.2786 82.3397 26.23 82.283Z" fill="#7C2248"/>
<path d="M25.7433 66.2238V65.8831L25.6622 65.948L25.5771 66.021L25.6622 66.1224L25.7028 66.171L25.7271 66.1994L25.7352 66.2116L25.7474 66.2238C25.7433 66.2238 25.7433 66.2238 25.7433 66.2238Z" fill="#7C2248"/>
<mask id="mask2_152_127" style="mask-type:luminance" maskUnits="userSpaceOnUse" x="25" y="65" width="1" height="2">
<path d="M25.6176 65.8709H25.7474V66.2318H25.6176V65.8709Z" fill="white"/>
</mask>
<g mask="url(#mask2_152_127)">
<mask id="mask3_152_127" style="mask-type:luminance" maskUnits="userSpaceOnUse" x="25" y="65" width="1" height="2">
<path d="M25.7435 66.2236V65.883L25.6624 65.9479L25.5772 66.0209L25.6624 66.1223L25.703 66.1709L25.7273 66.1993L25.7354 66.2115L25.7476 66.2236C25.7435 66.2236 25.7435 66.2236 25.7435 66.2236Z" fill="white"/>
</mask>
<g mask="url(#mask3_152_127)">
<path d="M25.8285 65.948L25.8488 65.9683V65.9723L25.8528 65.9804L25.8569 65.9845V65.9885L25.8609 65.9966V66.0048L25.865 66.0129V66.0372L25.8609 66.0453V66.0534L25.8569 66.0615V66.0656L25.8528 66.0696V66.0778L25.8447 66.0859V66.094L25.8366 66.1021L25.8326 66.1102L25.8204 66.1224L25.8123 66.1264L25.8042 66.1345L25.7961 66.1386L25.7879 66.1467L25.7798 66.1508L25.7758 66.1548H25.7717L25.7636 66.1589L25.7596 66.1629H25.7474V66.167H25.7433C25.7433 66.167 25.7433 66.167 25.7474 66.167L25.7393 66.1629H25.7312L25.7231 66.1589L25.719 66.1548H25.7149L25.7068 66.1508L25.6987 66.1426L25.6906 66.1386L25.6825 66.1305L25.6744 66.1264L25.6582 66.1102L25.6541 66.1021L25.646 66.094L25.642 66.0859V66.0818L25.6379 66.0778L25.6338 66.0696V66.0656L25.6298 66.0615V66.0494L25.6257 66.0453V66.0048L25.6298 66.0007V65.9885L25.6338 65.9845V65.9804L25.6379 65.9723L25.642 65.9683V65.9642L25.6582 65.948H25.6622L25.6663 65.9439L25.6744 65.9399H25.6785L25.6825 65.9358H25.6906L25.6947 65.9318H25.792L25.7961 65.9358H25.8042L25.8082 65.9399H25.8123L25.8204 65.9439L25.8244 65.948H25.8285Z" fill="#7C2248"/>
</g>
</g>
<path d="M25.7433 66.2238V65.8831L25.8285 65.948L25.9136 66.021L25.8285 66.1224L25.7839 66.171L25.7636 66.1994L25.7514 66.2116L25.7474 66.2197H25.7433V66.2238Z" fill="#470960"/>
<mask id="mask4_152_127" style="mask-type:luminance" maskUnits="userSpaceOnUse" x="25" y="65" width="1" height="2">
<path d="M25.7352 65.8709H25.9258V66.2318H25.7352V65.8709Z" fill="white"/>
</mask>
<g mask="url(#mask4_152_127)">
<mask id="mask5_152_127" style="mask-type:luminance" maskUnits="userSpaceOnUse" x="25" y="65" width="1" height="2">
<path d="M25.7434 66.2238V65.8832L25.8286 65.9481L25.9137 66.0211L25.8286 66.1224L25.784 66.1711L25.7637 66.1995L25.7515 66.2117L25.7475 66.2198H25.7434V66.2238Z" fill="white"/>
</mask>
<g mask="url(#mask5_152_127)">
<path d="M25.8285 66.1223L25.8204 66.1304L25.8123 66.1345L25.8042 66.1426L25.7961 66.1466L25.7879 66.1548L25.7798 66.1588L25.7758 66.1629H25.7717L25.7636 66.1669L25.7596 66.171H25.7474L25.7433 66.175C25.7433 66.175 25.7433 66.175 25.7474 66.175H25.7433L25.7393 66.171H25.7312L25.7231 66.1669L25.719 66.1629H25.7149L25.7068 66.1588L25.6987 66.1507L25.6906 66.1466L25.6825 66.1385L25.6744 66.1345L25.6622 66.1223L25.6582 66.1142L25.646 66.102L25.642 66.0939V66.0899L25.6379 66.0858L25.6338 66.0777V66.0736L25.6298 66.0696V66.0574L25.6257 66.0534V66.0128L25.6298 66.0088V65.9966L25.6338 65.9925V65.9885L25.6379 65.9804L25.642 65.9763V65.9723L25.6582 65.956H25.6622L25.6663 65.952L25.6744 65.9479H25.6785L25.6825 65.9439H25.6906L25.6947 65.9398H25.792L25.7961 65.9439H25.8042L25.8082 65.9479H25.8123L25.8204 65.952L25.8244 65.956H25.8285L25.8447 65.9723V65.9763L25.8488 65.9804L25.8528 65.9885V65.9925L25.8569 65.9966V66.0047L25.8609 66.0088V66.0574L25.8569 66.0615V66.0736L25.8528 66.0777L25.8488 66.0858V66.0899L25.8447 66.0939L25.8407 66.102L25.8285 66.1142V66.1223Z" fill="#470960"/>
</g>
</g>
<path d="M25.7433 82.5303V82.871L25.9136 82.7331L25.8285 82.6317L25.7839 82.579L25.7636 82.5547L25.7514 82.5425L25.7474 82.5344L25.7433 82.5303Z" fill="#470960"/>
<mask id="mask6_152_127" style="mask-type:luminance" maskUnits="userSpaceOnUse" x="25" y="82" width="1" height="1">
<path d="M25.7352 82.5182H25.9258V82.8467H25.7352V82.5182Z" fill="white"/>
</mask>
<g mask="url(#mask6_152_127)">
<mask id="mask7_152_127" style="mask-type:luminance" maskUnits="userSpaceOnUse" x="25" y="82" width="1" height="1">
<path d="M25.7434 82.5305V82.8711L25.9137 82.7332L25.8286 82.6318L25.784 82.5791L25.7637 82.5548L25.7515 82.5426L25.7475 82.5345L25.7434 82.5305Z" fill="white"/>
</mask>
<g mask="url(#mask7_152_127)">
<path d="M25.6622 82.8021L25.6379 82.7778V82.7737L25.6338 82.7696V82.7615L25.6298 82.7575V82.7453L25.6257 82.7413V82.7169L25.6298 82.7088V82.7007L25.6338 82.6926V82.6885L25.6379 82.6845V82.6764L25.646 82.6683V82.6602L25.6541 82.652L25.6582 82.6439L25.6663 82.6358L25.6703 82.6277L25.6785 82.6237L25.6866 82.6155L25.6947 82.6115L25.7028 82.6034H25.7109L25.719 82.5953H25.7271L25.7312 82.5912H25.7352L25.7433 82.5872H25.7474C25.7474 82.5872 25.7474 82.5872 25.7433 82.5872H25.7514L25.7555 82.5912H25.7596L25.7677 82.5953H25.7717L25.7758 82.5993L25.7839 82.6034H25.7879L25.792 82.6074L25.8001 82.6115L25.8082 82.6196L25.8163 82.6237L25.8204 82.6277L25.8244 82.6358L25.8326 82.6439L25.8366 82.652L25.8447 82.6602L25.8488 82.6683V82.6723L25.8528 82.6764L25.8569 82.6845V82.6885L25.8609 82.6926V82.7048L25.865 82.7088V82.7453L25.8609 82.7534V82.7615L25.8569 82.7696L25.8528 82.7737V82.7778L25.8204 82.8102H25.8163L25.8123 82.8143L25.8042 82.8183H25.7961L25.7879 82.8224H25.7514L25.7474 82.8183L25.7393 82.8224H25.7028L25.6987 82.8183H25.6866L25.6825 82.8143L25.6744 82.8102H25.6703L25.6622 82.8021Z" fill="#470960"/>
</g>
</g>
<path d="M25.7433 82.5303V82.871L25.6622 82.802L25.5771 82.7331L25.6622 82.6317L25.7028 82.579L25.7271 82.5547L25.7352 82.5425L25.7433 82.5344V82.5303H25.7474C25.7433 82.5303 25.7433 82.5303 25.7433 82.5303Z" fill="#470960"/>
<mask id="mask8_152_127" style="mask-type:luminance" maskUnits="userSpaceOnUse" x="25" y="82" width="1" height="1">
<path d="M25.6176 82.5182H25.7474V82.8467H25.6176V82.5182Z" fill="white"/>
</mask>
<g mask="url(#mask8_152_127)">
<mask id="mask9_152_127" style="mask-type:luminance" maskUnits="userSpaceOnUse" x="25" y="82" width="1" height="1">
<path d="M25.7435 82.5303V82.871L25.6624 82.802L25.5772 82.7331L25.6624 82.6317L25.703 82.579L25.7273 82.5547L25.7354 82.5425L25.7435 82.5344V82.5303H25.7476C25.7435 82.5303 25.7435 82.5303 25.7435 82.5303Z" fill="white"/>
</mask>
<g mask="url(#mask9_152_127)">
<path d="M25.6622 82.6315L25.6663 82.6275L25.6703 82.6193L25.6784 82.6112L25.6865 82.6072L25.6946 82.5991L25.7028 82.595H25.7068L25.7109 82.591L25.719 82.5869H25.723L25.7271 82.5829H25.7352L25.7393 82.5788H25.7474L25.7514 82.5829H25.7595L25.7636 82.5869H25.7676L25.7757 82.591L25.7798 82.595H25.7839L25.792 82.5991L25.8001 82.6072L25.8082 82.6112L25.8163 82.6193L25.8204 82.6275L25.8285 82.6356L25.8325 82.6437L25.8406 82.6518L25.8447 82.6599L25.8487 82.664V82.668L25.8528 82.6761L25.8569 82.6802V82.6923L25.8609 82.6964V82.7451L25.8569 82.7491V82.7532L25.8528 82.7613V82.7653L25.8447 82.7735V82.7775L25.8204 82.8018H25.8122L25.8041 82.81H25.792L25.7879 82.814H25.7474L25.7433 82.81L25.7393 82.814H25.6987L25.6946 82.81H25.6825L25.6744 82.8018H25.6663L25.6419 82.7775V82.7735L25.6338 82.7653V82.7613L25.6298 82.7532V82.7451L25.6257 82.737V82.7005L25.6298 82.6964V82.6842L25.6338 82.6802V82.6761L25.6379 82.668L25.6419 82.664V82.6599L25.646 82.6518L25.6541 82.6437L25.6581 82.6356L25.6622 82.6315Z" fill="#470960"/>
</g>
</g>
<path d="M25.6906 82.8304L25.646 82.7533C24.0685 79.87 23.886 76.4756 25.1472 73.4463C26.4084 70.4129 28.9471 68.1419 32.1102 67.2132L32.1954 67.1889L32.24 67.266C33.8135 70.1493 33.996 73.5436 32.7348 76.577C31.4776 79.6064 28.939 81.8774 25.7758 82.806L25.6906 82.8304ZM32.0859 67.4525C29.0282 68.3771 26.5788 70.5873 25.354 73.5315C24.1334 76.4716 24.2956 79.7605 25.8001 82.5668C28.8579 81.6422 31.3073 79.432 32.532 76.4919C33.7527 73.5477 33.5904 70.2588 32.0859 67.4525Z" fill="#470960"/>
<mask id="mask10_152_127" style="mask-type:luminance" maskUnits="userSpaceOnUse" x="24" y="74" width="18" height="11">
<path d="M24.5795 74.5413H41.3159V84.9229H24.5795V74.5413Z" fill="white"/>
</mask>
<g mask="url(#mask10_152_127)">
<path d="M30.8815 84.12C29.0931 84.12 27.3128 83.6779 25.6906 82.7979L25.6136 82.7533L25.6379 82.6682C26.5706 79.5172 28.8498 76.9907 31.8953 75.7376C34.9368 74.4804 38.3433 74.6629 41.2388 76.2323L41.3159 76.2769L41.2915 76.3621C40.3588 79.5131 38.0797 82.0396 35.0342 83.2967C33.6959 83.8483 32.2887 84.12 30.8815 84.12ZM25.8772 82.6438C28.6956 84.1443 32.0008 84.3065 34.949 83.0899C37.9053 81.8693 40.1236 79.4279 41.0523 76.3864C38.2338 74.886 34.9328 74.7237 31.9805 75.9403C29.0241 77.157 26.8059 79.5983 25.8772 82.6438Z" fill="#470960"/>
</g>
<path d="M25.8001 82.8304L25.7109 82.806C22.5518 81.8774 20.0131 79.6064 18.7519 76.577C17.4907 73.5436 17.6732 70.1534 19.2507 67.266L19.2953 67.1889L19.3805 67.2132C22.5437 68.1419 25.0823 70.4129 26.3395 73.4463C27.6007 76.4756 27.4182 79.87 25.8407 82.7533L25.8001 82.8304ZM19.4048 67.4525C17.9003 70.2629 17.7381 73.5517 18.9587 76.4919C20.1835 79.432 22.6329 81.6422 25.6906 82.5668C27.1951 79.7605 27.3574 76.4716 26.1367 73.5315C24.912 70.5873 22.4626 68.3771 19.4048 67.4525Z" fill="#7C2248"/>
<mask id="mask11_152_127" style="mask-type:luminance" maskUnits="userSpaceOnUse" x="10" y="74" width="17" height="11">
<path d="M10.1708 74.5413H26.6558V84.9229H10.1708V74.5413Z" fill="white"/>
</mask>
<g mask="url(#mask11_152_127)">
<path d="M20.6052 84.12C19.2021 84.12 17.7908 83.8483 16.4525 83.2967C13.411 82.0396 11.1279 79.5131 10.1992 76.3621L10.1708 76.2769L10.2519 76.2323C13.1474 74.6629 16.5499 74.4804 19.5954 75.7376C22.6369 76.9907 24.9201 79.5172 25.8488 82.6682L25.8772 82.7533L25.796 82.7979C24.178 83.6779 22.3977 84.12 20.6052 84.12ZM10.4385 76.3864C11.3671 79.4279 13.5854 81.8693 16.5377 83.0899C19.494 84.3065 22.7951 84.1443 25.6136 82.6438C24.6849 79.5983 22.4666 77.157 19.5103 75.9403C16.558 74.7237 13.2569 74.886 10.4385 76.3864Z" fill="#7C2248"/>
</g>
<path d="M24.839 82.7574C24.839 82.6844 24.8958 82.6236 24.9688 82.6195C25.0418 82.6195 25.1026 82.6763 25.1066 82.7493C25.1107 82.8223 25.0499 82.8831 24.9769 82.8872C24.9039 82.8912 24.839 82.8304 24.839 82.7574Z" fill="#7C2248"/>
<path d="M24.0401 82.7452C24.0441 82.6722 24.105 82.6154 24.178 82.6195C24.251 82.6235 24.3077 82.6844 24.3077 82.7573C24.3037 82.8303 24.2429 82.8912 24.1658 82.8871C24.0928 82.879 24.036 82.8182 24.0401 82.7452Z" fill="#7C2248"/>
<path d="M23.2412 82.6762C23.2493 82.6032 23.3182 82.5505 23.3872 82.5586C23.4602 82.5667 23.5129 82.6316 23.5048 82.7046C23.5007 82.7776 23.4318 82.8303 23.3588 82.8222C23.2858 82.8141 23.2331 82.7452 23.2412 82.6762Z" fill="#7C2248"/>
<path d="M22.4545 82.5424C22.4666 82.4694 22.5356 82.4289 22.6086 82.437C22.6815 82.4532 22.7262 82.5222 22.714 82.5952C22.7018 82.6682 22.6329 82.7128 22.5599 82.7006C22.4869 82.6884 22.4382 82.6154 22.4545 82.5424Z" fill="#7C2248"/>
<path d="M21.6758 82.3559C21.6961 82.2869 21.7691 82.2423 21.838 82.2626C21.907 82.2829 21.9516 82.3559 21.9313 82.4248C21.9151 82.4978 21.8421 82.5384 21.7691 82.5181C21.6961 82.5019 21.6555 82.4289 21.6758 82.3559Z" fill="#7C2248"/>
<path d="M20.9134 82.1126C20.9378 82.0436 21.0148 82.0071 21.0838 82.0315C21.1527 82.0558 21.1892 82.1288 21.1649 82.1977C21.1446 82.2707 21.0675 82.3072 20.9945 82.2829C20.9256 82.2586 20.8891 82.1815 20.9134 82.1126Z" fill="#7C2248"/>
<path d="M20.1753 81.8125C20.2037 81.7435 20.2808 81.7151 20.3497 81.7435C20.4146 81.7719 20.447 81.849 20.4186 81.9179C20.3903 81.9828 20.3092 82.0152 20.2402 81.9868C20.1753 81.9585 20.1429 81.8773 20.1753 81.8125Z" fill="#7C2248"/>
<path d="M19.4576 81.4556C19.4941 81.3907 19.5752 81.3664 19.6401 81.3988C19.7049 81.4353 19.7293 81.5164 19.6928 81.5773C19.6603 81.6462 19.5792 81.6705 19.5143 81.634C19.4454 81.6016 19.4211 81.5205 19.4576 81.4556Z" fill="#7C2248"/>
<path d="M18.7681 81.046C18.8087 80.9852 18.8939 80.9649 18.9547 81.0055C19.0155 81.046 19.0358 81.1271 18.9952 81.188C18.9587 81.2528 18.8736 81.2731 18.8128 81.2285C18.7479 81.192 18.7316 81.1069 18.7681 81.046Z" fill="#7C2248"/>
<path d="M18.1152 80.5877C18.1598 80.5309 18.2409 80.5188 18.3018 80.5634C18.3585 80.6039 18.3748 80.6851 18.3301 80.7459C18.2855 80.8067 18.2044 80.8189 18.1436 80.7743C18.0828 80.7337 18.0706 80.6445 18.1152 80.5877Z" fill="#7C2248"/>
<path d="M17.4988 80.0849C17.5475 80.0281 17.6326 80.0241 17.6854 80.0687C17.7421 80.1173 17.7462 80.2025 17.6975 80.2593C17.6529 80.3161 17.5678 80.3201 17.511 80.2714C17.4542 80.2228 17.4501 80.1376 17.4988 80.0849Z" fill="#7C2248"/>
<path d="M16.9189 79.5334C16.9716 79.4807 17.0527 79.4807 17.1055 79.5334C17.1582 79.5862 17.1582 79.6713 17.1055 79.72C17.0568 79.7727 16.9716 79.7768 16.9149 79.724C16.8662 79.6713 16.8662 79.5862 16.9189 79.5334Z" fill="#7C2248"/>
<path d="M16.3795 78.9453C16.4363 78.8966 16.5215 78.9007 16.5661 78.9575C16.6147 79.0143 16.6107 79.0954 16.5539 79.144C16.4971 79.1927 16.416 79.1886 16.3674 79.1319C16.3187 79.0751 16.3228 78.9899 16.3795 78.9453Z" fill="#7C2248"/>
<path d="M15.8888 78.3128C15.9497 78.2722 16.0308 78.2844 16.0754 78.3411C16.1159 78.402 16.1078 78.4831 16.047 78.5277C15.9902 78.5723 15.901 78.5601 15.8604 78.5034C15.8158 78.4425 15.828 78.3574 15.8888 78.3128Z" fill="#7C2248"/>
<path d="M15.4468 77.6517C15.5076 77.6152 15.5888 77.6314 15.6293 77.6922C15.6699 77.7531 15.6496 77.8382 15.5888 77.8788C15.5279 77.9153 15.4428 77.8991 15.4022 77.8382C15.3617 77.7733 15.3819 77.6882 15.4468 77.6517Z" fill="#7C2248"/>
<path d="M15.0534 76.9583C15.1183 76.9258 15.1994 76.9502 15.2319 77.011C15.2643 77.0759 15.24 77.157 15.1751 77.1935C15.1102 77.23 15.0291 77.2056 14.9967 77.1367C14.9602 77.0718 14.9885 76.9907 15.0534 76.9583Z" fill="#7C2248"/>
<path d="M14.7128 76.2364C14.7817 76.208 14.8588 76.2364 14.8872 76.3053C14.9156 76.3702 14.8872 76.4473 14.8223 76.4797C14.7533 76.5081 14.6722 76.4797 14.6438 76.4108C14.6155 76.3418 14.6479 76.2648 14.7128 76.2364Z" fill="#7C2248"/>
<path d="M14.4289 75.4902C14.5019 75.4699 14.5749 75.5023 14.5992 75.5713C14.6236 75.6402 14.5871 75.7173 14.5181 75.7416C14.4492 75.77 14.3721 75.7335 14.3478 75.6605C14.3194 75.5915 14.36 75.5145 14.4289 75.4902Z" fill="#7C2248"/>
<path d="M14.2018 74.7278C14.2748 74.7075 14.3478 74.7521 14.364 74.821C14.3843 74.89 14.3438 74.963 14.2708 74.9832C14.2018 75.0035 14.1248 74.963 14.1086 74.89C14.0883 74.817 14.1329 74.744 14.2018 74.7278Z" fill="#7C2248"/>
<path d="M14.0356 73.9491C14.1085 73.937 14.1775 73.9816 14.1897 74.0546C14.2018 74.1235 14.1572 74.1925 14.0842 74.2087C14.0112 74.2249 13.9382 74.1762 13.9261 74.1032C13.9139 74.0302 13.9626 73.9613 14.0356 73.9491Z" fill="#7C2248"/>
<path d="M13.922 73.1584C13.999 73.1502 14.0599 73.203 14.068 73.276C14.0801 73.3449 14.0274 73.4098 13.9544 73.422C13.8814 73.4301 13.8125 73.3773 13.8044 73.3043C13.7963 73.2314 13.849 73.1665 13.922 73.1584Z" fill="#7C2248"/>
<path d="M13.8693 72.3635C13.9423 72.3635 14.0072 72.4202 14.0112 72.4892C14.0112 72.5622 13.9545 72.6271 13.8815 72.6311C13.8085 72.6352 13.7476 72.5784 13.7436 72.5013C13.7395 72.4284 13.7963 72.3635 13.8693 72.3635Z" fill="#7C2248"/>
<path d="M13.8774 71.5647C13.9544 71.5687 14.0112 71.6295 14.0072 71.7025C14.0031 71.7755 13.9423 71.8323 13.8693 71.8323C13.7963 71.8283 13.7355 71.7674 13.7395 71.6944C13.7436 71.6174 13.8044 71.5606 13.8774 71.5647Z" fill="#7C2248"/>
<path d="M14.8344 70.8712C14.8344 70.9442 14.7777 71.005 14.7047 71.009C14.6317 71.009 14.5708 70.9523 14.5668 70.8793C14.5627 70.8063 14.6195 70.7454 14.6966 70.7414C14.7696 70.7414 14.8304 70.7982 14.8344 70.8712Z" fill="#7C2248"/>
<path d="M15.6333 70.8833C15.6293 70.9563 15.5685 71.0131 15.4955 71.009C15.4225 71.005 15.3657 70.9442 15.3657 70.8712C15.3697 70.7982 15.4306 70.7414 15.5076 70.7454C15.5806 70.7495 15.6374 70.8103 15.6333 70.8833Z" fill="#7C2248"/>
<path d="M16.4282 70.9563C16.4201 71.0293 16.3552 71.082 16.2822 71.0699C16.2092 71.0617 16.1565 70.9969 16.1646 70.9279C16.1727 70.8549 16.2376 70.7981 16.3106 70.8063C16.3877 70.8144 16.4404 70.8833 16.4282 70.9563Z" fill="#7C2248"/>
<path d="M17.219 71.0861C17.2068 71.1591 17.1379 71.2037 17.0649 71.1915C16.9919 71.1753 16.9473 71.1063 16.9594 71.0333C16.9716 70.9603 17.0406 70.9157 17.1136 70.9279C17.1865 70.9401 17.2352 71.0131 17.219 71.0861Z" fill="#7C2248"/>
<path d="M17.9976 71.2726C17.9773 71.3416 17.9043 71.3862 17.8354 71.3659C17.7624 71.3456 17.7219 71.2726 17.7381 71.2037C17.7584 71.1307 17.8314 71.0902 17.9043 71.1104C17.9773 71.1267 18.0179 71.1997 17.9976 71.2726Z" fill="#7C2248"/>
<path d="M18.76 71.516C18.7316 71.5849 18.6586 71.6214 18.5897 71.5971C18.5208 71.5727 18.4843 71.4997 18.5045 71.4308C18.5289 71.3578 18.6059 71.3213 18.6749 71.3456C18.7479 71.374 18.7844 71.447 18.76 71.516Z" fill="#7C2248"/>
<path d="M19.4981 71.8201C19.4697 71.885 19.3927 71.9134 19.3237 71.885C19.2588 71.8566 19.2264 71.7796 19.2548 71.7106C19.2832 71.6457 19.3643 71.6133 19.4332 71.6417C19.4981 71.6701 19.5305 71.7512 19.4981 71.8201Z" fill="#7C2248"/>
<path d="M20.2159 72.1729C20.1794 72.2378 20.0983 72.2621 20.0334 72.2297C19.9685 72.1932 19.9442 72.1162 19.9807 72.0513C20.0131 71.9823 20.0943 71.958 20.1591 71.9945C20.2281 72.0269 20.2524 72.108 20.2159 72.1729Z" fill="#7C2248"/>
<path d="M20.9013 72.5825C20.8607 72.6433 20.7796 72.6636 20.7188 72.623C20.6579 72.5825 20.6377 72.5014 20.6742 72.4406C20.7147 72.3757 20.7958 72.3554 20.8607 72.4C20.9256 72.4406 20.9418 72.5217 20.9013 72.5825Z" fill="#7C2248"/>
<path d="M21.5582 73.0408C21.5136 73.0976 21.4285 73.1097 21.3717 73.0651C21.3109 73.0246 21.2987 72.9435 21.3433 72.8826C21.3839 72.8218 21.469 72.8096 21.5298 72.8543C21.5907 72.8989 21.6028 72.984 21.5582 73.0408Z" fill="#7C2248"/>
<path d="M22.1746 73.5477C22.126 73.6004 22.0408 73.6085 21.9881 73.5599C21.9313 73.5112 21.9273 73.426 21.9759 73.3733C22.0205 73.3165 22.1057 73.3125 22.1625 73.3611C22.2192 73.4058 22.2233 73.4909 22.1746 73.5477Z" fill="#7C2248"/>
<path d="M22.7545 74.0951C22.7018 74.1478 22.6166 74.1478 22.568 74.0951C22.5153 74.0424 22.5153 73.9613 22.5639 73.9086C22.6166 73.8558 22.7018 73.8518 22.7545 73.9045C22.8073 73.9613 22.8073 74.0424 22.7545 74.0951Z" fill="#7C2248"/>
<path d="M23.2939 74.6873C23.2371 74.7319 23.152 74.7279 23.1033 74.6711C23.0587 74.6184 23.0628 74.5332 23.1195 74.4845C23.1723 74.4359 23.2574 74.444 23.3061 74.5008C23.3547 74.5535 23.3466 74.6386 23.2939 74.6873Z" fill="#7C2248"/>
<path d="M23.7846 75.3158C23.7238 75.3563 23.6386 75.3442 23.5981 75.2874C23.5575 75.2266 23.5656 75.1454 23.6264 75.1008C23.6832 75.0562 23.7684 75.0684 23.813 75.1292C23.8576 75.186 23.8454 75.2712 23.7846 75.3158Z" fill="#7C2248"/>
<path d="M24.2266 75.9769C24.1658 76.0174 24.0847 75.9971 24.0441 75.9363C24.0036 75.8755 24.0239 75.7944 24.0847 75.7538C24.1455 75.7133 24.2307 75.7335 24.2712 75.7944C24.3118 75.8552 24.2915 75.9404 24.2266 75.9769Z" fill="#7C2248"/>
<path d="M24.62 76.6744C24.5551 76.7069 24.474 76.6825 24.4416 76.6176C24.4051 76.5528 24.4335 76.4716 24.4943 76.4351C24.5592 76.4027 24.6403 76.427 24.6768 76.4919C24.7092 76.5568 24.6849 76.6379 24.62 76.6744Z" fill="#7C2248"/>
<path d="M24.9606 77.3922C24.8917 77.4206 24.8146 77.3922 24.7863 77.3232C24.7579 77.2583 24.7863 77.1813 24.8511 77.1489C24.9201 77.1205 25.0012 77.1489 25.0296 77.2178C25.058 77.2867 25.0255 77.3638 24.9606 77.3922Z" fill="#7C2248"/>
<path d="M25.2445 78.1383C25.1715 78.1626 25.0985 78.1261 25.0742 78.0572C25.0499 77.9883 25.0864 77.9112 25.1553 77.8869C25.2242 77.8625 25.3013 77.899 25.3256 77.968C25.35 78.0369 25.3135 78.114 25.2445 78.1383Z" fill="#7C2248"/>
<path d="M25.4676 78.9007C25.3986 78.921 25.3256 78.8764 25.3054 78.8074C25.2891 78.7385 25.3297 78.6655 25.3986 78.6452C25.4716 78.6249 25.5446 78.6655 25.5649 78.7385C25.5811 78.8115 25.5406 78.8845 25.4676 78.9007Z" fill="#7C2248"/>
<path d="M25.6379 79.6834C25.5649 79.6956 25.496 79.6469 25.4838 79.5739C25.4716 79.505 25.5162 79.4361 25.5892 79.4198C25.6582 79.4077 25.7312 79.4523 25.7433 79.5253C25.7596 79.5983 25.7109 79.6713 25.6379 79.6834Z" fill="#7C2248"/>
<path d="M25.7474 80.4702C25.6744 80.4783 25.6095 80.4256 25.6014 80.3526C25.5933 80.2836 25.646 80.2187 25.719 80.2066C25.792 80.1985 25.8609 80.2512 25.869 80.3242C25.8771 80.3972 25.8204 80.4621 25.7474 80.4702Z" fill="#7C2248"/>
<path d="M25.8001 81.265C25.7271 81.269 25.6663 81.2122 25.6622 81.1392C25.6582 81.0662 25.7149 81.0054 25.7879 81.0014C25.8609 80.9973 25.9258 81.0541 25.9258 81.1271C25.9339 81.2041 25.8731 81.265 25.8001 81.265Z" fill="#7C2248"/>
<path d="M25.792 82.064C25.719 82.0599 25.6622 81.9991 25.6663 81.9261C25.6663 81.8531 25.7312 81.7963 25.8042 81.8004C25.8772 81.8004 25.9339 81.8612 25.9339 81.9342C25.9299 82.0113 25.865 82.068 25.792 82.064Z" fill="#7C2248"/>
<path d="M14.0477 71.0496L13.8044 70.8063L13.7963 70.9158L13.7841 71.0212L13.9179 71.0334L13.9828 71.0415H14.0193L14.0355 71.0455H14.0518C14.0477 71.0496 14.0477 71.0496 14.0477 71.0496Z" fill="#7C2248"/>
<mask id="mask12_152_127" style="mask-type:luminance" maskUnits="userSpaceOnUse" x="13" y="70" width="2" height="2">
<path d="M13.7801 70.7941H14.0639V71.0496H13.7801V70.7941Z" fill="white"/>
</mask>
<g mask="url(#mask12_152_127)">
<mask id="mask13_152_127" style="mask-type:luminance" maskUnits="userSpaceOnUse" x="13" y="70" width="2" height="2">
<path d="M14.0478 71.0498L13.8045 70.8065L13.7964 70.916L13.7842 71.0215L13.918 71.0336L13.9829 71.0417H14.0194L14.0356 71.0458H14.0519C14.0478 71.0498 14.0478 71.0498 14.0478 71.0498Z" fill="white"/>
</mask>
<g mask="url(#mask13_152_127)">
<path d="M13.9142 70.7981H13.9466L13.9507 70.8021H13.9547L13.9628 70.8062H13.9669L13.9709 70.8102L13.9791 70.8143H13.9831L14.0074 70.8386L14.0115 70.8467V70.8508L14.0156 70.8548L14.0196 70.8629V70.867L14.0237 70.8711L14.0277 70.8792V70.8832L14.0318 70.8913V70.9035L14.0358 70.9116V70.9562L14.0318 70.9643V70.9765L14.0277 70.9846V70.9887L14.0237 70.9927L14.0196 71.0008V71.0049L14.0156 71.0089V71.013H14.0115C14.0156 71.013 14.0156 71.013 14.0156 71.013L14.0074 71.0171H14.0034L13.9993 71.0211L13.9912 71.0252H13.9872L13.9831 71.0292H13.9709L13.9628 71.0333H13.902L13.8939 71.0292H13.8817L13.8736 71.0252L13.8696 71.0211H13.8655L13.8574 71.0171L13.8533 71.013H13.8493L13.8412 71.0089L13.8047 70.9724V70.9643L13.7966 70.9562V70.9441L13.7925 70.94V70.9076L13.7966 70.9035V70.8913L13.8006 70.8873L13.8047 70.8792V70.8751L13.8736 70.8062H13.8777L13.8858 70.7981H13.8939L13.8979 70.794H13.9101L13.9142 70.7981Z" fill="#7C2248"/>
</g>
</g>
<path d="M14.0477 71.0496L13.8044 70.8063L13.9139 70.7982L14.0193 70.786L14.0315 70.9198L14.0436 71.0172V71.0496C14.0477 71.0496 14.0477 71.0496 14.0477 71.0496Z" fill="#7C2248"/>
<mask id="mask14_152_127" style="mask-type:luminance" maskUnits="userSpaceOnUse" x="13" y="70" width="2" height="2">
<path d="M13.8044 70.7819H14.0477V71.0496H13.8044V70.7819Z" fill="white"/>
</mask>
<g mask="url(#mask14_152_127)">
<mask id="mask15_152_127" style="mask-type:luminance" maskUnits="userSpaceOnUse" x="13" y="70" width="2" height="2">
<path d="M14.0477 71.0495L13.8044 70.8062L13.9139 70.7981L14.0193 70.7859L14.0315 70.9197L14.0436 71.017V71.0495C14.0477 71.0495 14.0477 71.0495 14.0477 71.0495Z" fill="white"/>
</mask>
<g mask="url(#mask15_152_127)">
<path d="M14.0354 70.9198V70.9523L14.0313 70.9604V70.9726L14.0273 70.9807V70.9847L14.0232 70.9888V70.9969L14.0151 71.005V71.0131L14.0111 71.0172H14.007L13.9989 71.0253H13.9908L13.9867 71.0293H13.9827L13.9746 71.0334H13.9624L13.9543 71.0374H13.9097L13.9016 71.0334H13.8894L13.8813 71.0293H13.8732L13.8651 71.0212H13.857L13.8489 71.0131H13.8407L13.8083 70.9807L13.8042 70.9726V70.9685L13.8002 70.9645L13.7961 70.9563V70.9482L13.7921 70.9442V70.9117L13.7961 70.9036V70.8955L13.8002 70.8874L13.8042 70.8833V70.8793L13.8772 70.8063H13.8813L13.8854 70.8022L13.8935 70.7982H13.9016L13.9097 70.7941H13.9421L13.9462 70.7982H13.9584L13.9665 70.8063H13.9746L14.0151 70.8468V70.855L14.0232 70.8631V70.8712L14.0273 70.8752L14.0313 70.8833V70.8955L14.0354 70.9036V70.9198Z" fill="#7C2248"/>
</g>
</g>
<path d="M25.6217 82.5789L25.865 82.8222L25.8772 82.7168L25.8853 82.6073L25.7555 82.5951L25.6866 82.587H25.6541L25.6379 82.583H25.6217C25.6217 82.5789 25.6217 82.5789 25.6217 82.5789Z" fill="#7C2248"/>
<mask id="mask16_152_127" style="mask-type:luminance" maskUnits="userSpaceOnUse" x="25" y="82" width="1" height="1">
<path d="M25.6176 82.5708H25.8974V82.8263H25.6176V82.5708Z" fill="white"/>
</mask>
<g mask="url(#mask16_152_127)">
<mask id="mask17_152_127" style="mask-type:luminance" maskUnits="userSpaceOnUse" x="25" y="82" width="1" height="1">
<path d="M25.6216 82.5789L25.865 82.8222L25.8771 82.7167L25.8852 82.6072L25.7555 82.5951L25.6865 82.587H25.6541L25.6379 82.5829H25.6216C25.6216 82.5789 25.6216 82.5789 25.6216 82.5789Z" fill="white"/>
</mask>
<g mask="url(#mask17_152_127)">
<path d="M25.7595 82.8301H25.727L25.7189 82.8261H25.7149L25.7108 82.822H25.7027L25.6946 82.8139H25.6905L25.6662 82.7896L25.6621 82.7815L25.654 82.7733V82.7652L25.6459 82.7571V82.749L25.6419 82.745V82.7368L25.6378 82.7328V82.7166L25.6338 82.7125V82.676L25.6378 82.672V82.6557L25.6419 82.6517V82.6436L25.6459 82.6395V82.6355L25.65 82.6274L25.654 82.6233V82.6192L25.6621 82.6111H25.6662L25.6743 82.6071L25.6784 82.603H25.6824L25.6905 82.599H25.6986L25.7068 82.5949H25.7676L25.7757 82.599H25.7879L25.796 82.603L25.8 82.6071H25.8041L25.8122 82.6111L25.8162 82.6152H25.8203L25.8284 82.6192L25.8609 82.6517V82.6557L25.8649 82.6639L25.869 82.6679V82.672L25.873 82.6801V82.6882L25.8771 82.6963V82.7166L25.873 82.7206V82.7328L25.869 82.7368V82.7409L25.8649 82.749L25.8609 82.7531V82.7571L25.796 82.822H25.7919L25.7879 82.8261L25.7798 82.8301H25.7757L25.7716 82.8342H25.7595V82.8301Z" fill="#470960"/>
</g>
</g>
<path d="M25.6217 82.5789L25.865 82.8222L25.7596 82.8303L25.6501 82.8425L25.6379 82.7087L25.6338 82.6438L25.6298 82.6114V82.5951L25.6257 82.587V82.5789C25.6217 82.5789 25.6217 82.5789 25.6217 82.5789Z" fill="#470960"/>
<mask id="mask18_152_127" style="mask-type:luminance" maskUnits="userSpaceOnUse" x="25" y="82" width="1" height="1">
<path d="M25.6176 82.5708H25.869V82.8466H25.6176V82.5708Z" fill="white"/>
</mask>
<g mask="url(#mask18_152_127)">
<mask id="mask19_152_127" style="mask-type:luminance" maskUnits="userSpaceOnUse" x="25" y="82" width="1" height="1">
<path d="M25.6216 82.5789L25.865 82.8222L25.7595 82.8303L25.65 82.8425L25.6379 82.7086L25.6338 82.6437L25.6298 82.6113V82.5951L25.6257 82.587V82.5789C25.6216 82.5789 25.6216 82.5789 25.6216 82.5789Z" fill="white"/>
</mask>
<g mask="url(#mask19_152_127)">
<path d="M25.6378 82.7084V82.6638L25.6419 82.6557V82.6435L25.6459 82.6395L25.65 82.6314V82.6273L25.654 82.6233L25.6581 82.6152V82.6111H25.6621L25.6662 82.607L25.6743 82.603H25.6784L25.6824 82.5989H25.6905L25.6946 82.5949H25.7068L25.7149 82.5908H25.7595L25.7676 82.5949H25.7798L25.7879 82.5989H25.796L25.8041 82.607H25.8122L25.8203 82.6152H25.8284L25.8609 82.6476V82.6557L25.869 82.6638V82.6719L25.873 82.676V82.6881L25.8771 82.6922V82.7125L25.873 82.7206V82.7287L25.869 82.7328V82.7409L25.8609 82.749V82.753L25.7919 82.822H25.7879L25.7798 82.826L25.7757 82.8301H25.7635L25.7595 82.8341H25.727L25.723 82.8301H25.7108L25.7068 82.826L25.6986 82.822H25.6946L25.654 82.7814L25.65 82.7733V82.7693L25.6459 82.7652L25.6419 82.7571V82.753L25.6378 82.7449V82.7409L25.6338 82.7328V82.7206L25.6378 82.7084Z" fill="#7C2248"/>
</g>
</g>
<path d="M25.6865 81.7963C25.7595 81.7963 25.8204 81.853 25.8244 81.926C25.8285 81.999 25.7717 82.0599 25.6947 82.0639C25.6217 82.068 25.5608 82.0071 25.5568 81.9341C25.5527 81.8611 25.6135 81.8003 25.6865 81.7963Z" fill="#470960"/>
<path d="M25.6987 81.0014C25.7717 81.0054 25.8285 81.0662 25.8244 81.1392C25.8204 81.2122 25.7595 81.269 25.6865 81.265C25.6135 81.265 25.5527 81.2041 25.5568 81.1271C25.5649 81.0541 25.6257 80.9973 25.6987 81.0014Z" fill="#470960"/>
<path d="M25.7717 80.2066C25.8447 80.2187 25.8974 80.2836 25.8853 80.3526C25.8772 80.4256 25.8123 80.4783 25.7393 80.4702C25.6663 80.4661 25.6136 80.3972 25.6217 80.3242C25.6298 80.2512 25.6987 80.1985 25.7717 80.2066Z" fill="#470960"/>
<path d="M25.9015 79.4198C25.9745 79.4361 26.0191 79.505 26.0069 79.5739C25.9907 79.6469 25.9218 79.6956 25.8488 79.6834C25.7758 79.6713 25.7312 79.5983 25.7433 79.5253C25.7555 79.4523 25.8285 79.4077 25.9015 79.4198Z" fill="#470960"/>
<path d="M26.088 78.6452C26.157 78.6655 26.2016 78.7385 26.1813 78.8074C26.1651 78.8804 26.0921 78.921 26.0191 78.9048C25.9461 78.8845 25.9055 78.8115 25.9258 78.7425C25.9461 78.6696 26.0191 78.6249 26.088 78.6452Z" fill="#470960"/>
<path d="M26.3354 77.8869C26.4043 77.9112 26.4408 77.9883 26.4165 78.0572C26.3922 78.1261 26.3192 78.1626 26.2462 78.1383C26.1772 78.118 26.1407 78.041 26.1651 77.968C26.1894 77.899 26.2665 77.8625 26.3354 77.8869Z" fill="#470960"/>
<path d="M26.6396 77.1489C26.7045 77.1813 26.7328 77.2583 26.7045 77.3232C26.6761 77.3922 26.599 77.4206 26.5301 77.3922C26.4652 77.3638 26.4327 77.2867 26.4611 77.2178C26.4895 77.1489 26.5706 77.1205 26.6396 77.1489Z" fill="#470960"/>
<path d="M26.9964 76.4351C27.0573 76.4716 27.0856 76.5527 27.0491 76.6176C27.0167 76.6825 26.9356 76.7068 26.8707 76.6744C26.8058 76.6379 26.7815 76.5568 26.8139 76.4919C26.8504 76.427 26.9275 76.3986 26.9964 76.4351Z" fill="#470960"/>
<path d="M27.406 75.7538C27.4668 75.7944 27.4831 75.8755 27.4466 75.9363C27.406 75.9971 27.3249 76.0174 27.26 75.9768C27.1992 75.9403 27.1789 75.8552 27.2195 75.7944C27.26 75.7295 27.3452 75.7132 27.406 75.7538Z" fill="#470960"/>
<path d="M27.8643 75.1008C27.9251 75.1454 27.9332 75.2266 27.8927 75.2874C27.8481 75.3442 27.767 75.3563 27.7061 75.3158C27.6494 75.2712 27.6331 75.186 27.6777 75.1292C27.7223 75.0684 27.8075 75.0562 27.8643 75.1008Z" fill="#470960"/>
<path d="M28.3712 74.4845C28.428 74.5332 28.432 74.6183 28.3833 74.671C28.3387 74.7278 28.2536 74.7319 28.1968 74.6832C28.14 74.6386 28.136 74.5534 28.1846 74.4967C28.2333 74.4399 28.3144 74.4358 28.3712 74.4845Z" fill="#470960"/>
<path d="M28.9227 73.9086C28.9754 73.9613 28.9754 74.0424 28.9227 74.0952C28.874 74.1479 28.7889 74.1479 28.7361 74.0952C28.6834 74.0465 28.6794 73.9613 28.7321 73.9086C28.7889 73.8559 28.874 73.8559 28.9227 73.9086Z" fill="#470960"/>
<path d="M29.5148 73.3692C29.5635 73.426 29.5594 73.5111 29.5026 73.5598C29.4459 73.6044 29.3648 73.6003 29.3161 73.5436C29.2674 73.4908 29.2715 73.4057 29.3283 73.357C29.385 73.3084 29.4702 73.3165 29.5148 73.3692Z" fill="#470960"/>
<path d="M30.1474 72.8826C30.192 72.9435 30.1758 73.0246 30.119 73.0651C30.0623 73.1097 29.9812 73.0976 29.9325 73.0408C29.8879 72.984 29.9001 72.8948 29.9609 72.8543C30.0217 72.8096 30.1069 72.8218 30.1474 72.8826Z" fill="#470960"/>
<path d="M30.8125 72.4406C30.849 72.5014 30.8328 72.5825 30.772 72.623C30.7111 72.6636 30.626 72.6433 30.5854 72.5825C30.5449 72.5217 30.5652 72.4406 30.626 72.4C30.6909 72.3595 30.776 72.3797 30.8125 72.4406Z" fill="#470960"/>
<path d="M31.51 72.0513C31.5425 72.1162 31.5182 72.1932 31.4533 72.2297C31.3924 72.2621 31.3113 72.2378 31.2748 72.1729C31.2383 72.108 31.2627 72.0269 31.3275 71.9945C31.3965 71.958 31.4776 71.9823 31.51 72.0513Z" fill="#470960"/>
<path d="M32.236 71.7106C32.2644 71.7796 32.2319 71.8566 32.167 71.885C32.1021 71.9134 32.021 71.885 31.9926 71.8201C31.9602 71.7512 31.9926 71.6701 32.0575 71.6417C32.1265 71.6133 32.2076 71.6457 32.236 71.7106Z" fill="#470960"/>
<path d="M32.9821 71.4308C33.0065 71.4997 32.97 71.5727 32.901 71.5971C32.8321 71.6214 32.755 71.5849 32.7307 71.516C32.7023 71.447 32.7388 71.37 32.8118 71.3456C32.8808 71.3213 32.9578 71.3578 32.9821 71.4308Z" fill="#470960"/>
<path d="M33.7485 71.2037C33.7688 71.2726 33.7242 71.3456 33.6553 71.3659C33.5863 71.3862 33.5133 71.3416 33.4931 71.2726C33.4728 71.2037 33.5133 71.1267 33.5863 71.1104C33.6593 71.0902 33.7323 71.1307 33.7485 71.2037Z" fill="#470960"/>
<path d="M34.5313 71.0333C34.5434 71.1063 34.4988 71.1753 34.4258 71.1915C34.3528 71.2037 34.2839 71.1591 34.2717 71.0861C34.2555 71.0131 34.3042 70.9401 34.3772 70.9279C34.4502 70.9157 34.5191 70.9603 34.5313 71.0333Z" fill="#470960"/>
<path d="M35.322 70.9238C35.3301 70.9968 35.2774 71.0617 35.2044 71.0698C35.1355 71.078 35.0666 71.0252 35.0584 70.9522C35.0503 70.8833 35.103 70.8144 35.176 70.8062C35.249 70.7981 35.318 70.8509 35.322 70.9238Z" fill="#470960"/>
<path d="M36.1209 70.8712C36.125 70.9442 36.0682 71.005 35.9952 71.009C35.9222 71.0131 35.8573 70.9563 35.8533 70.8833C35.8492 70.8103 35.906 70.7495 35.9831 70.7454C36.0601 70.7414 36.1209 70.7982 36.1209 70.8712Z" fill="#470960"/>
<path d="M36.9239 70.8793C36.9198 70.9523 36.859 71.0091 36.786 71.0091C36.713 71.005 36.6562 70.9442 36.6562 70.8712C36.6562 70.7982 36.7211 70.7373 36.7941 70.7414C36.8671 70.7455 36.928 70.8063 36.9239 70.8793Z" fill="#470960"/>
<path d="M37.6174 71.8323C37.5444 71.8323 37.4835 71.7755 37.4795 71.7025C37.4795 71.6295 37.5363 71.5687 37.6093 71.5646C37.6823 71.5606 37.7431 71.6214 37.7471 71.6944C37.7512 71.7674 37.6944 71.8323 37.6174 71.8323Z" fill="#470960"/>
<path d="M37.6052 72.6271C37.5322 72.623 37.4755 72.5622 37.4795 72.4892C37.4836 72.4162 37.5444 72.3594 37.6174 72.3635C37.6944 72.3635 37.7512 72.4243 37.7472 72.5014C37.7431 72.5744 37.6823 72.6311 37.6052 72.6271Z" fill="#470960"/>
<path d="M37.5363 73.422C37.4633 73.4138 37.4106 73.349 37.4187 73.276C37.4268 73.203 37.4917 73.1502 37.5647 73.1584C37.6377 73.1665 37.6944 73.2314 37.6823 73.3043C37.6742 73.3773 37.6093 73.4301 37.5363 73.422Z" fill="#470960"/>
<path d="M37.4065 74.2087C37.3335 74.1925 37.2889 74.1235 37.3011 74.0546C37.3132 73.9816 37.3822 73.937 37.4552 73.9491C37.5282 73.9613 37.5768 74.0302 37.5606 74.1032C37.5484 74.1762 37.4754 74.2249 37.4065 74.2087Z" fill="#470960"/>
<path d="M37.22 74.9832C37.147 74.963 37.1064 74.89 37.1226 74.821C37.1429 74.7521 37.2159 74.7075 37.2889 74.7278C37.3578 74.744 37.3984 74.817 37.3822 74.89C37.3619 74.9589 37.2889 75.0035 37.22 74.9832Z" fill="#470960"/>
<path d="M36.9726 75.7416C36.9036 75.7173 36.8671 75.6403 36.8915 75.5713C36.9158 75.5024 36.9888 75.4659 37.0577 75.4902C37.1307 75.5105 37.1672 75.5875 37.1429 75.6605C37.1186 75.7295 37.0415 75.766 36.9726 75.7416Z" fill="#470960"/>
<path d="M36.6685 76.4797C36.6036 76.4473 36.5752 76.3702 36.6036 76.3053C36.632 76.2364 36.709 76.208 36.778 76.2364C36.8428 76.2648 36.8753 76.3418 36.8469 76.4108C36.8185 76.4797 36.7374 76.5081 36.6685 76.4797Z" fill="#470960"/>
<path d="M36.3115 77.1935C36.2507 77.157 36.2223 77.0758 36.2588 77.011C36.2913 76.9461 36.3724 76.9217 36.4373 76.9582C36.5021 76.9907 36.5265 77.0718 36.494 77.1367C36.4575 77.2016 36.3764 77.2299 36.3115 77.1935Z" fill="#470960"/>
<path d="M35.902 77.8788C35.8412 77.8383 35.8209 77.7531 35.8614 77.6923C35.902 77.6314 35.9831 77.6112 36.0439 77.6517C36.1088 77.6882 36.1291 77.7734 36.0885 77.8342C36.048 77.8991 35.9628 77.9153 35.902 77.8788Z" fill="#470960"/>
<path d="M35.4437 78.5277C35.3829 78.4831 35.3748 78.402 35.4153 78.3411C35.4599 78.2844 35.541 78.2722 35.6019 78.3128C35.6586 78.3574 35.6749 78.4425 35.6303 78.5034C35.5856 78.5601 35.5005 78.5723 35.4437 78.5277Z" fill="#470960"/>
<path d="M34.9368 79.1441C34.88 79.0954 34.8759 79.0103 34.9205 78.9576C34.9692 78.9048 35.0544 78.8967 35.1071 78.9454C35.1639 78.99 35.172 79.0752 35.1233 79.1319C35.0747 79.1887 34.9895 79.1928 34.9368 79.1441Z" fill="#470960"/>
<path d="M34.3852 79.72C34.3325 79.6673 34.3325 79.5862 34.3852 79.5334C34.4339 79.4807 34.5191 79.4807 34.5718 79.5334C34.6245 79.5821 34.6286 79.6673 34.5758 79.72C34.5191 79.7727 34.4339 79.7727 34.3852 79.72Z" fill="#470960"/>
<path d="M33.7891 80.2593C33.7445 80.2025 33.7486 80.1173 33.8054 80.0687C33.8581 80.0241 33.9432 80.0281 33.9919 80.0849C34.0406 80.1376 34.0365 80.2228 33.9797 80.2714C33.923 80.3201 33.8378 80.3161 33.7891 80.2593Z" fill="#470960"/>
<path d="M33.1606 80.7459C33.116 80.6851 33.1281 80.6039 33.189 80.5634C33.2458 80.5188 33.3269 80.5309 33.3755 80.5877C33.4201 80.6445 33.408 80.7337 33.3471 80.7743C33.2863 80.8189 33.2011 80.8067 33.1606 80.7459Z" fill="#470960"/>
<path d="M32.4955 81.188C32.4549 81.1271 32.4752 81.046 32.536 81.0055C32.5968 80.9649 32.678 80.9852 32.7185 81.046C32.7591 81.1069 32.7388 81.192 32.678 81.2285C32.6171 81.2731 32.532 81.2488 32.4955 81.188Z" fill="#470960"/>
<path d="M31.7979 81.5773C31.7614 81.5124 31.7898 81.4353 31.8507 81.3988C31.9156 81.3664 31.9967 81.3907 32.0332 81.4556C32.0697 81.5205 32.0453 81.6016 31.9764 81.634C31.9115 81.6705 31.8304 81.6462 31.7979 81.5773Z" fill="#470960"/>
<path d="M31.072 81.9179C31.0436 81.849 31.0761 81.7719 31.141 81.7435C31.2059 81.7151 31.287 81.7435 31.3154 81.8125C31.3478 81.8773 31.3154 81.9585 31.2505 81.9868C31.1775 82.0152 31.1004 81.9828 31.072 81.9179Z" fill="#470960"/>
<path d="M30.3218 82.1977C30.3015 82.1288 30.338 82.0558 30.407 82.0315C30.4759 82.0071 30.5489 82.0436 30.5773 82.1126C30.6016 82.1815 30.5651 82.2586 30.4962 82.2829C30.4232 82.3072 30.3461 82.2707 30.3218 82.1977Z" fill="#470960"/>
<path d="M29.5554 82.4289C29.5391 82.3559 29.5797 82.2829 29.6527 82.2626C29.7216 82.2464 29.7946 82.2869 29.8149 82.3599C29.8352 82.4289 29.7946 82.5018 29.7216 82.5221C29.6486 82.5383 29.5756 82.4978 29.5554 82.4289Z" fill="#470960"/>
<path d="M28.7767 82.5952C28.7645 82.5222 28.8092 82.4532 28.8821 82.437C28.9551 82.4289 29.0241 82.4694 29.0363 82.5424C29.0525 82.6154 29.0038 82.6884 28.9308 82.7006C28.8578 82.7168 28.7889 82.6682 28.7767 82.5952Z" fill="#470960"/>
<path d="M27.9819 82.7047C27.9738 82.6317 28.0265 82.5668 28.0995 82.5587C28.1725 82.5506 28.2374 82.6033 28.2455 82.6763C28.2577 82.7452 28.2049 82.8142 28.1279 82.8223C28.0549 82.8304 27.99 82.7777 27.9819 82.7047Z" fill="#470960"/>
<path d="M27.183 82.7573C27.183 82.6844 27.2398 82.6235 27.3128 82.6195C27.3858 82.6154 27.4466 82.6722 27.4506 82.7452C27.4547 82.8182 27.3979 82.879 27.3249 82.8831C27.2479 82.8871 27.187 82.8303 27.183 82.7573Z" fill="#470960"/>
<path d="M26.3841 82.7493C26.3881 82.6763 26.4489 82.6195 26.5219 82.6195C26.5949 82.6236 26.6517 82.6844 26.6517 82.7574C26.6477 82.8304 26.5868 82.8912 26.5138 82.8872C26.4368 82.8831 26.38 82.8223 26.3841 82.7493Z" fill="#470960"/>
<path d="M37.439 71.0496L37.6823 70.8063L37.5768 70.7982L37.4674 70.786L37.4552 70.9198L37.4511 70.9847L37.4471 71.0172V71.0334L37.443 71.0415V71.0496C37.439 71.0496 37.439 71.0496 37.439 71.0496Z" fill="#470960"/>
<mask id="mask20_152_127" style="mask-type:luminance" maskUnits="userSpaceOnUse" x="37" y="70" width="1" height="2">
<path d="M37.4349 70.7819H37.6904V71.0496H37.4349V70.7819Z" fill="white"/>
</mask>
<g mask="url(#mask20_152_127)">
<mask id="mask21_152_127" style="mask-type:luminance" maskUnits="userSpaceOnUse" x="37" y="70" width="1" height="2">
<path d="M37.4389 71.0495L37.6822 70.8062L37.5768 70.7981L37.4673 70.7859L37.4551 70.9197L37.4511 70.9846L37.447 71.017V71.0333L37.443 71.0414V71.0495C37.4389 71.0495 37.4389 71.0495 37.4389 71.0495Z" fill="white"/>
</mask>
<g mask="url(#mask21_152_127)">
<path d="M37.6943 70.9156V70.944L37.6902 70.948V70.9561L37.6862 70.9642L37.6821 70.9683V70.9724L37.6781 70.9805L37.6456 71.0129H37.6416L37.6335 71.017L37.6294 71.021H37.6253L37.6172 71.0251L37.6132 71.0291H37.6051L37.601 71.0332H37.5848L37.5807 71.0372H37.5321L37.524 71.0332H37.5118L37.5077 71.0291H37.4996L37.4956 71.0251H37.4915L37.4834 71.021L37.4793 71.017H37.4753V71.0129L37.4712 71.0048L37.4672 71.0007V70.9967L37.4631 70.9886V70.9845L37.4591 70.9805V70.9642L37.455 70.9602V70.9115L37.4591 70.9075V70.8912L37.4631 70.8872V70.8791L37.4672 70.875L37.4712 70.8669V70.8629L37.4753 70.8588L37.4793 70.8507V70.8466L37.5118 70.8142L37.5199 70.8101H37.524L37.528 70.8061L37.5361 70.802H37.5442L37.5523 70.798H37.5848L37.5888 70.802H37.601L37.6091 70.8101H37.6172L37.6497 70.8426V70.8466L37.6578 70.8507L37.6821 70.875V70.8791L37.6902 70.8872V70.8912L37.6943 70.8994V70.9034L37.6983 70.9075V70.9156H37.6943Z" fill="#470960"/>
</g>
</g>
<path d="M37.439 71.0496L37.6823 70.8063L37.6945 70.9158L37.7026 71.0212L37.5728 71.0334L37.5039 71.0415H37.4714L37.4552 71.0455H37.439C37.439 71.0496 37.439 71.0496 37.439 71.0496Z" fill="#470960"/>
<mask id="mask22_152_127" style="mask-type:luminance" maskUnits="userSpaceOnUse" x="37" y="70" width="1" height="2">
<path d="M37.4349 70.7941H37.7066V71.0496H37.4349V70.7941Z" fill="white"/>
</mask>
<g mask="url(#mask22_152_127)">
<mask id="mask23_152_127" style="mask-type:luminance" maskUnits="userSpaceOnUse" x="37" y="70" width="1" height="2">
<path d="M37.439 71.0498L37.6823 70.8065L37.6945 70.916L37.7026 71.0215L37.5729 71.0336L37.5039 71.0417H37.4715L37.4552 71.0458H37.439C37.439 71.0498 37.439 71.0498 37.439 71.0498Z" fill="white"/>
</mask>
<g mask="url(#mask23_152_127)">
<path d="M37.5728 71.0371H37.5363L37.5323 71.0331H37.5161L37.512 71.029H37.4998L37.4958 71.025L37.4877 71.0209H37.4836L37.4796 71.0168L37.4714 71.0128C37.4755 71.0168 37.4755 71.0168 37.4755 71.0168L37.4714 71.0128L37.4674 71.0047V71.0006L37.4633 70.9966L37.4593 70.9885V70.9803L37.4552 70.9722V70.9601L37.4512 70.952V70.9195L37.4552 70.9114V70.8992L37.4593 70.8911V70.8871L37.4633 70.879V70.8749L37.4674 70.8668L37.4714 70.8627V70.8587L37.4755 70.8506L37.5161 70.81H37.5201L37.5282 70.806L37.5323 70.8019H37.5444L37.5485 70.7979H37.5809L37.585 70.8019H37.5972L37.6012 70.806L37.6093 70.81H37.6134L37.6823 70.879V70.883L37.6904 70.8911V70.8992L37.6945 70.9033V70.9155L37.6985 70.9195V70.9398L37.6945 70.9438V70.956L37.6904 70.9601V70.9682L37.6823 70.9763V70.9844L37.6499 71.0168H37.6418L37.6337 71.025H37.6256L37.6174 71.0331H37.6093L37.6012 71.0371H37.5891L37.5809 71.0412L37.5728 71.0371Z" fill="#470960"/>
</g>
</g>
<path d="M25.865 82.5789L25.6217 82.8222L25.7312 82.8303L25.8366 82.8425L25.8488 82.7087L25.8609 82.6114V82.5789C25.865 82.5789 25.865 82.5789 25.865 82.5789Z" fill="#7C2248"/>
<mask id="mask24_152_127" style="mask-type:luminance" maskUnits="userSpaceOnUse" x="25" y="82" width="1" height="1">
<path d="M25.6176 82.5708H25.869V82.8466H25.6176V82.5708Z" fill="white"/>
</mask>
<g mask="url(#mask24_152_127)">
<mask id="mask25_152_127" style="mask-type:luminance" maskUnits="userSpaceOnUse" x="25" y="82" width="1" height="1">
<path d="M25.865 82.5789L25.6216 82.8222L25.7311 82.8303L25.8366 82.8425L25.8487 82.7086L25.8609 82.6113V82.5789C25.865 82.5789 25.865 82.5789 25.865 82.5789Z" fill="white"/>
</mask>
<g mask="url(#mask25_152_127)">
<path d="M25.6134 82.7165V82.6841L25.6174 82.676V82.6719L25.6215 82.6679V82.6598L25.6296 82.6517V82.6476L25.6539 82.6233L25.662 82.6192L25.6701 82.6111H25.6783L25.6864 82.603H25.6945L25.6985 82.5989H25.7066L25.7148 82.5949H25.7269L25.735 82.5908H25.7675L25.7756 82.5949H25.7877L25.7959 82.5989H25.804L25.8121 82.603L25.8161 82.607H25.8202L25.8283 82.6111L25.8324 82.6152C25.8283 82.6111 25.8283 82.6111 25.8283 82.6111L25.8324 82.6192L25.8364 82.6233V82.6273L25.8405 82.6354L25.8445 82.6395V82.6517L25.8486 82.6557V82.6719L25.8526 82.676V82.7125L25.8486 82.7165V82.7328L25.8445 82.7368V82.7449L25.8405 82.749V82.7571L25.8324 82.7652V82.7733L25.8242 82.7814L25.8202 82.7895L25.7959 82.8139H25.7918L25.7837 82.822H25.7756L25.7715 82.826H25.7675L25.7594 82.8301H25.7188L25.7107 82.826H25.7066L25.7026 82.822H25.6945L25.6864 82.8139H25.6823L25.658 82.7895L25.6539 82.7814H25.6499L25.6215 82.753V82.749L25.6174 82.7409L25.6134 82.7368V82.7328L25.6093 82.7287V82.7165H25.6134Z" fill="#7C2248"/>
</g>
</g>
<path d="M25.865 82.5789L25.6217 82.8222L25.6136 82.7168L25.6014 82.6073L25.7352 82.5951L25.8001 82.587H25.8366L25.8528 82.583H25.8691C25.865 82.5789 25.865 82.5789 25.865 82.5789Z" fill="#7C2248"/>
<mask id="mask26_152_127" style="mask-type:luminance" maskUnits="userSpaceOnUse" x="25" y="82" width="1" height="1">
<path d="M25.6014 82.5708H25.8691V82.8263H25.6014V82.5708Z" fill="white"/>
</mask>
<g mask="url(#mask26_152_127)">
<mask id="mask27_152_127" style="mask-type:luminance" maskUnits="userSpaceOnUse" x="25" y="82" width="1" height="1">
<path d="M25.865 82.5789L25.6217 82.8222L25.6136 82.7167L25.6014 82.6072L25.7352 82.5951L25.8001 82.587H25.8366L25.8528 82.5829H25.8691C25.865 82.5789 25.865 82.5789 25.865 82.5789Z" fill="white"/>
</mask>
<g mask="url(#mask27_152_127)">
<path d="M25.7353 82.5949H25.7799L25.788 82.5989H25.8002L25.8042 82.603H25.8123L25.8204 82.6111H25.8285L25.8326 82.6152V82.6192L25.8407 82.6273V82.6354L25.8448 82.6395V82.6435L25.8488 82.6517V82.6638L25.8529 82.6719V82.7165L25.8488 82.7246V82.7368L25.8448 82.7449V82.749L25.8407 82.7571L25.8367 82.7611V82.7652L25.8326 82.7733L25.8285 82.7774V82.7814L25.8245 82.7895L25.8002 82.8139H25.7961L25.788 82.8179L25.7839 82.822H25.7799L25.7718 82.826H25.7677L25.7637 82.8301H25.7191L25.715 82.826H25.7069L25.7028 82.822H25.6988L25.6907 82.8179L25.6866 82.8139H25.6826L25.6582 82.7895V82.7814H25.6501L25.6258 82.7571V82.753L25.6217 82.749L25.6177 82.7409V82.7368L25.6136 82.7328V82.7287L25.6096 82.7206V82.68L25.6136 82.6719V82.6679L25.6177 82.6638V82.6557L25.6258 82.6476V82.6435L25.6501 82.6192L25.6582 82.6152L25.6663 82.607H25.6744L25.6826 82.5989H25.6907L25.6947 82.5949H25.7028L25.7109 82.5908H25.7231L25.7353 82.5949Z" fill="#470960"/>
</g>
</g>
<path d="M26.6801 85.6691C26.6801 85.9448 26.5828 86.176 26.3882 86.3706C26.1935 86.5653 25.9583 86.6626 25.6825 86.6626C25.4108 86.6626 25.1756 86.5653 24.9809 86.3706C24.7863 86.176 24.689 85.9448 24.689 85.6691C24.689 85.3974 24.7863 85.1622 24.9809 84.9716C25.1756 84.7769 25.4108 84.6796 25.6825 84.6796C25.9583 84.6796 26.1935 84.7769 26.3882 84.9716C26.5828 85.1622 26.6801 85.3974 26.6801 85.6691Z" fill="url(#paint0_linear_152_127)"/>
<path d="M26.5544 89.1973C26.5544 89.4365 26.4692 89.6393 26.2989 89.8096C26.1286 89.98 25.9258 90.0611 25.6825 90.0611C25.4432 90.0611 25.2405 89.98 25.0702 89.8096C24.8998 89.6393 24.8147 89.4365 24.8147 89.1973C24.8147 88.958 24.8998 88.7553 25.0702 88.5849C25.2405 88.4146 25.4432 88.3335 25.6825 88.3335C25.9258 88.3335 26.1286 88.4146 26.2989 88.5849C26.4692 88.7553 26.5544 88.958 26.5544 89.1973Z" fill="url(#paint1_linear_152_127)"/>
<path d="M26.4287 92.7213C26.4287 92.9282 26.3557 93.1026 26.2097 93.2485C26.0637 93.3905 25.8893 93.4635 25.6825 93.4635C25.4797 93.4635 25.3013 93.3905 25.1594 93.2485C25.0134 93.1026 24.9404 92.9282 24.9404 92.7213C24.9404 92.5186 25.0134 92.3442 25.1594 92.1982C25.3013 92.0522 25.4797 91.9833 25.6825 91.9833C25.8893 91.9833 26.0637 92.0522 26.2097 92.1982C26.3557 92.3442 26.4287 92.5186 26.4287 92.7213Z" fill="url(#paint2_linear_152_127)"/>
<path d="M26.303 96.2495C26.303 96.4198 26.2422 96.5658 26.1205 96.6874C26.0029 96.8051 25.8569 96.8659 25.6825 96.8659C25.5122 96.8659 25.3662 96.8051 25.2486 96.6874C25.1269 96.5658 25.0661 96.4198 25.0661 96.2495C25.0661 96.0791 25.1269 95.9332 25.2486 95.8155C25.3662 95.6939 25.5122 95.6331 25.6825 95.6331C25.8569 95.6331 26.0029 95.6939 26.1205 95.8155C26.2422 95.9332 26.303 96.0791 26.303 96.2495Z" fill="url(#paint3_linear_152_127)"/>
<path d="M26.1773 99.7776C26.1773 99.9114 26.1286 100.029 26.0313 100.122C25.938 100.22 25.8204 100.268 25.6825 100.268C25.5487 100.268 25.4311 100.22 25.3337 100.122C25.2405 100.029 25.1918 99.9114 25.1918 99.7776C25.1918 99.6397 25.2405 99.5262 25.3337 99.4289C25.4311 99.3315 25.5487 99.2869 25.6825 99.2869C25.8204 99.2869 25.938 99.3315 26.0313 99.4289C26.1286 99.5262 26.1773 99.6397 26.1773 99.7776Z" fill="url(#paint4_linear_152_127)"/>
<path d="M26.9234 63.9041C26.9234 64.1758 26.8261 64.411 26.6314 64.6056C26.4368 64.7962 26.2016 64.8936 25.9258 64.8936C25.6541 64.8936 25.4189 64.7962 25.2242 64.6056C25.0296 64.411 24.9323 64.1758 24.9323 63.9041C24.9323 63.6283 25.0296 63.3971 25.2242 63.2025C25.4189 63.0119 25.6541 62.9146 25.9258 62.9146C26.2016 62.9146 26.4368 63.0119 26.6314 63.2025C26.8261 63.3971 26.9234 63.6283 26.9234 63.9041Z" fill="url(#paint5_linear_152_127)"/>
<path d="M26.7977 60.3759C26.7977 60.6152 26.7126 60.822 26.5422 60.9883C26.3719 61.1586 26.1691 61.2438 25.9258 61.2438C25.6866 61.2438 25.4838 61.1586 25.3135 60.9883C25.1431 60.822 25.058 60.6152 25.058 60.3759C25.058 60.1407 25.1431 59.9339 25.3135 59.7676C25.4838 59.5973 25.6866 59.5121 25.9258 59.5121C26.1691 59.5121 26.3719 59.5973 26.5422 59.7676C26.7126 59.9339 26.7977 60.1407 26.7977 60.3759Z" fill="url(#paint6_linear_152_127)"/>
<path d="M26.672 56.8519C26.672 57.0546 26.599 57.229 26.453 57.375C26.307 57.521 26.1326 57.594 25.9258 57.594C25.723 57.594 25.5446 57.521 25.4027 57.375C25.2567 57.229 25.1837 57.0546 25.1837 56.8519C25.1837 56.645 25.2567 56.4707 25.4027 56.3247C25.5446 56.1827 25.723 56.1097 25.9258 56.1097C26.1326 56.1097 26.307 56.1827 26.453 56.3247C26.599 56.4707 26.672 56.645 26.672 56.8519Z" fill="url(#paint7_linear_152_127)"/>
<path d="M26.5463 53.3237C26.5463 53.494 26.4855 53.64 26.3638 53.7617C26.2462 53.8793 26.1002 53.9401 25.9258 53.9401C25.7555 53.9401 25.6095 53.8793 25.4919 53.7617C25.3702 53.64 25.3094 53.494 25.3094 53.3237C25.3094 53.1534 25.3702 53.0074 25.4919 52.8898C25.6095 52.7681 25.7555 52.7073 25.9258 52.7073C26.1002 52.7073 26.2462 52.7681 26.3638 52.8898C26.4855 53.0074 26.5463 53.1534 26.5463 53.3237Z" fill="url(#paint8_linear_152_127)"/>
<path d="M26.4206 49.7956C26.4206 49.9334 26.3719 50.047 26.2746 50.1443C26.1813 50.2417 26.0637 50.2903 25.9258 50.2903C25.792 50.2903 25.6744 50.2417 25.5771 50.1443C25.4838 50.047 25.4351 49.9334 25.4351 49.7956C25.4351 49.6617 25.4838 49.5441 25.5771 49.4509C25.6744 49.3535 25.792 49.3049 25.9258 49.3049C26.0637 49.3049 26.1813 49.3535 26.2746 49.4509C26.3719 49.5441 26.4206 49.6617 26.4206 49.7956Z" fill="url(#paint9_linear_152_127)"/>
<defs>
<linearGradient id="paint0_linear_152_127" x1="25.6846" y1="84.6796" x2="25.6846" y2="86.6626" gradientUnits="userSpaceOnUse">
<stop stop-color="#7C2248"/>
<stop offset="1" stop-color="#470960"/>
</linearGradient>
<linearGradient id="paint1_linear_152_127" x1="25.6845" y1="88.3335" x2="25.6845" y2="90.0611" gradientUnits="userSpaceOnUse">
<stop stop-color="#7C2248"/>
<stop offset="1" stop-color="#470960"/>
</linearGradient>
<linearGradient id="paint2_linear_152_127" x1="25.6845" y1="91.9833" x2="25.6845" y2="93.4635" gradientUnits="userSpaceOnUse">
<stop stop-color="#7C2248"/>
<stop offset="1" stop-color="#470960"/>
</linearGradient>
<linearGradient id="paint3_linear_152_127" x1="25.6845" y1="95.6331" x2="25.6845" y2="96.8659" gradientUnits="userSpaceOnUse">
<stop stop-color="#7C2248"/>
<stop offset="1" stop-color="#470960"/>
</linearGradient>
<linearGradient id="paint4_linear_152_127" x1="25.6845" y1="99.2869" x2="25.6845" y2="100.268" gradientUnits="userSpaceOnUse">
<stop stop-color="#7C2248"/>
<stop offset="1" stop-color="#470960"/>
</linearGradient>
<linearGradient id="paint5_linear_152_127" x1="25.9278" y1="62.9146" x2="25.9278" y2="64.8936" gradientUnits="userSpaceOnUse">
<stop stop-color="#7C2248"/>
<stop offset="1" stop-color="#470960"/>
</linearGradient>
<linearGradient id="paint6_linear_152_127" x1="25.9279" y1="59.5121" x2="25.9279" y2="61.2438" gradientUnits="userSpaceOnUse">
<stop stop-color="#7C2248"/>
<stop offset="1" stop-color="#470960"/>
</linearGradient>
<linearGradient id="paint7_linear_152_127" x1="25.9278" y1="56.1097" x2="25.9278" y2="57.594" gradientUnits="userSpaceOnUse">
<stop stop-color="#7C2248"/>
<stop offset="1" stop-color="#470960"/>
</linearGradient>
<linearGradient id="paint8_linear_152_127" x1="25.9279" y1="52.7073" x2="25.9279" y2="53.9401" gradientUnits="userSpaceOnUse">
<stop stop-color="#7C2248"/>
<stop offset="1" stop-color="#470960"/>
</linearGradient>
<linearGradient id="paint9_linear_152_127" x1="25.9278" y1="49.3049" x2="25.9278" y2="50.2903" gradientUnits="userSpaceOnUse">
<stop stop-color="#7C2248"/>
<stop offset="1" stop-color="#470960"/>
</linearGradient>
</defs>
</svg>
