<svg width="11" height="11" viewBox="0 0 11 11" fill="none" xmlns="http://www.w3.org/2000/svg">
<path d="M5.24907 9.19394C7.31335 9.19394 8.97953 7.51968 8.97953 5.44732C8.97953 3.38303 7.31335 1.71686 5.24907 1.71686M5.24907 9.19394C3.1767 9.19394 1.50244 7.51968 1.50244 5.44732C1.50244 3.38303 3.1767 1.71686 5.24907 1.71686M5.24907 9.19394V1.71686M8.48482 3.58613H1.99957M8.50564 7.2792H1.97875M1.52265 5.4554H8.95932" stroke="#470960" stroke-width="0.565165" stroke-linecap="round" stroke-linejoin="round"/>
<path d="M5.24502 9.19394C6.27726 9.19394 7.11025 7.51968 7.11025 5.44732C7.11025 3.38303 6.27726 1.71686 5.24502 1.71686C4.20873 1.71686 3.3717 3.38303 3.3717 5.44732C3.3717 7.51968 4.20873 9.19394 5.24502 9.19394Z" stroke="#470960" stroke-width="0.565165" stroke-linecap="round" stroke-linejoin="round"/>
</svg>
