<svg width="33" height="32" viewBox="0 0 33 32" fill="none" xmlns="http://www.w3.org/2000/svg">
<g clip-path="url(#clip0_152_57)">
<path d="M6.5 3.99774C6.5 2.93688 6.92143 1.91946 7.67157 1.16931C8.42172 0.419169 9.43913 -0.0022583 10.5 -0.0022583L22.5 -0.0022583C23.5609 -0.0022583 24.5783 0.419169 25.3284 1.16931C26.0786 1.91946 26.5 2.93688 26.5 3.99774V27.9977C26.5 29.0586 26.0786 30.076 25.3284 30.8262C24.5783 31.5763 23.5609 31.9977 22.5 31.9977H10.5C9.43913 31.9977 8.42172 31.5763 7.67157 30.8262C6.92143 30.076 6.5 29.0586 6.5 27.9977V3.99774ZM18.5 25.9977C18.5 25.4673 18.2893 24.9586 17.9142 24.5835C17.5391 24.2085 17.0304 23.9977 16.5 23.9977C15.9696 23.9977 15.4609 24.2085 15.0858 24.5835C14.7107 24.9586 14.5 25.4673 14.5 25.9977C14.5 26.5282 14.7107 27.0369 15.0858 27.412C15.4609 27.787 15.9696 27.9977 16.5 27.9977C17.0304 27.9977 17.5391 27.787 17.9142 27.412C18.2893 27.0369 18.5 26.5282 18.5 25.9977Z" fill="#470960"/>
</g>
<defs>
<clipPath id="clip0_152_57">
<rect width="32" height="32" fill="white" transform="translate(0.5 -0.0022583)"/>
</clipPath>
</defs>
</svg>
