<svg width="25" height="24" viewBox="0 0 25 24" fill="none" xmlns="http://www.w3.org/2000/svg">
<path d="M18.937 20.9349H6.06299C5.39995 20.9349 4.76406 20.6715 4.29522 20.2027C3.82638 19.7338 3.56299 19.0979 3.56299 18.4349V5.56088C3.56299 4.89784 3.82638 4.26196 4.29522 3.79312C4.76406 3.32427 5.39995 3.06088 6.06299 3.06088H18.937C19.6 3.06088 20.2359 3.32427 20.7048 3.79312C21.1736 4.26196 21.437 4.89784 21.437 5.56088V18.4349C21.437 19.0979 21.1736 19.7338 20.7048 20.2027C20.2359 20.6715 19.6 20.9349 18.937 20.9349ZM6.06299 4.06088C5.66516 4.06088 5.28363 4.21892 5.00233 4.50022C4.72102 4.78153 4.56299 5.16306 4.56299 5.56088V18.4349C4.56299 18.8327 4.72102 19.2142 5.00233 19.4955C5.28363 19.7768 5.66516 19.9349 6.06299 19.9349H18.937C19.3348 19.9349 19.7163 19.7768 19.9977 19.4955C20.279 19.2142 20.437 18.8327 20.437 18.4349V5.56088C20.437 5.16306 20.279 4.78153 19.9977 4.50022C19.7163 4.21892 19.3348 4.06088 18.937 4.06088H6.06299Z" fill="#470960"/>
<path d="M12.5 16.592C11.5914 16.591 10.7034 16.3206 9.94841 15.8151C9.1934 15.3095 8.60522 14.5915 8.25824 13.7517C7.91125 12.9119 7.82102 11.9881 7.99897 11.0971C8.17691 10.2061 8.61503 9.38779 9.25796 8.7457C9.90088 8.10362 10.7197 7.66657 11.611 7.48978C12.5023 7.313 13.4259 7.40443 14.2653 7.75252C15.1046 8.1006 15.8219 8.68971 16.3264 9.44538C16.831 10.201 17.1002 11.0893 17.1 11.998C17.0984 13.2169 16.6131 14.3854 15.7506 15.2468C14.8881 16.1082 13.7189 16.592 12.5 16.592ZM12.5 8.39798C11.7894 8.39897 11.095 8.61052 10.5046 9.00593C9.91417 9.40133 9.45417 9.96284 9.18269 10.6195C8.91121 11.2762 8.84044 11.9987 8.97931 12.6955C9.11819 13.3924 9.46048 14.0326 9.96294 14.535C10.4654 15.0375 11.1055 15.3798 11.8024 15.5187C12.4993 15.6575 13.2217 15.5868 13.8784 15.3153C14.5351 15.0438 15.0966 14.5838 15.492 13.9934C15.8874 13.4029 16.099 12.7086 16.1 11.998C16.1 11.0432 15.7207 10.1275 15.0456 9.45239C14.3704 8.77726 13.4548 8.39798 12.5 8.39798Z" fill="#470960"/>
<path d="M17.7 7.90293C18.2937 7.90293 18.775 7.42164 18.775 6.82793C18.775 6.23422 18.2937 5.75293 17.7 5.75293C17.1063 5.75293 16.625 6.23422 16.625 6.82793C16.625 7.42164 17.1063 7.90293 17.7 7.90293Z" fill="#470960"/>
</svg>
