<svg width="25" height="24" viewBox="0 0 25 24" fill="none" xmlns="http://www.w3.org/2000/svg">
<path d="M19.52 4.97281C18.131 3.58441 16.3614 2.63907 14.4352 2.25634C12.5089 1.87361 10.5123 2.07067 8.69806 2.82261C6.88377 3.57455 5.3332 4.84759 4.24242 6.48076C3.15163 8.11393 2.56962 10.0339 2.56999 11.9978C2.56999 14.6319 3.61603 17.1581 5.47812 19.0212C7.34021 20.8842 9.86593 21.9315 12.5 21.9328C13.8035 21.9334 15.0945 21.6786 16.3 21.1828C17.5017 20.6756 18.5948 19.9423 19.52 19.0228C20.4426 18.1003 21.1745 17.0051 21.6739 15.7998C22.1732 14.5944 22.4302 13.3025 22.4302 11.9978C22.4302 10.6931 22.1732 9.4012 21.6739 8.19584C21.1745 6.99048 20.4426 5.89529 19.52 4.97281ZM18.82 18.3128C17.39 19.7489 15.5138 20.6553 13.5 20.8828V14.3228H15.38C15.6452 14.3228 15.8996 14.2175 16.0871 14.0299C16.2746 13.8424 16.38 13.588 16.38 13.3228C16.38 13.0576 16.2746 12.8032 16.0871 12.6157C15.8996 12.4282 15.6452 12.3228 15.38 12.3228H13.5V9.58281C13.5 9.3176 13.6053 9.06324 13.7929 8.87571C13.9804 8.68817 14.2348 8.58281 14.5 8.58281H15.7C15.9652 8.58281 16.2196 8.47746 16.4071 8.28992C16.5946 8.10238 16.7 7.84803 16.7 7.58281C16.7 7.3176 16.5946 7.06324 16.4071 6.87571C16.2196 6.68817 15.9652 6.58281 15.7 6.58281H14C13.337 6.58281 12.7011 6.84621 12.2322 7.31505C11.7634 7.78389 11.5 8.41977 11.5 9.08281V12.3228H9.62999C9.36478 12.3228 9.11042 12.4282 8.92289 12.6157C8.73535 12.8032 8.62999 13.0576 8.62999 13.3228C8.62999 13.588 8.73535 13.8424 8.92289 14.0299C9.11042 14.2175 9.36478 14.3228 9.62999 14.3228H11.5V20.8828C9.64288 20.6709 7.89927 19.881 6.51544 18.6245C5.13161 17.368 4.17751 15.7085 3.78789 13.8804C3.39828 12.0523 3.59285 10.148 4.34412 8.43647C5.0954 6.72494 6.3654 5.29269 7.97474 4.34203C9.58409 3.39137 11.4514 2.97035 13.313 3.13843C15.1746 3.30651 16.9363 4.05521 18.3494 5.27876C19.7624 6.50231 20.7553 8.13887 21.1879 9.95729C21.6204 11.7757 21.4708 13.6841 20.76 15.4128C20.3073 16.496 19.6484 17.481 18.82 18.3128Z" fill="#470960"/>
</svg>
