<svg width="25" height="24" viewBox="0 0 25 24" fill="none" xmlns="http://www.w3.org/2000/svg">
<g clip-path="url(#clip0_156_36)">
<path d="M22.9133 11.6844C20.6667 7.53109 16.7267 5.01776 12.3667 5.01776C8.00667 5.01776 4.06 7.53109 1.83333 11.6844L1.64667 11.9978L1.82 12.3178C4.06667 16.4711 8.00667 18.9844 12.3667 18.9844C16.7267 18.9844 20.6733 16.5044 22.9133 12.3178L23.0867 11.9978L22.9133 11.6844ZM12.3667 17.6178C8.61333 17.6178 5.16667 15.5244 3.16667 11.9978C5.16667 8.47109 8.61333 6.37776 12.3667 6.37776C16.12 6.37776 19.5267 8.47776 21.56 11.9978C19.5267 15.5244 16.1133 17.6178 12.3667 17.6178Z" fill="#470960"/>
<path d="M12.56 16.5911C15.0858 16.5911 17.1333 14.5435 17.1333 12.0177C17.1333 9.49195 15.0858 7.4444 12.56 7.4444C10.0342 7.4444 7.98666 9.49195 7.98666 12.0177C7.98666 14.5435 10.0342 16.5911 12.56 16.5911Z" fill="#470960"/>
</g>
<defs>
<clipPath id="clip0_156_36">
<rect width="24" height="24" fill="white" transform="translate(0.5 -0.0022583)"/>
</clipPath>
</defs>
</svg>
