<svg width="33" height="32" viewBox="0 0 33 32" fill="none" xmlns="http://www.w3.org/2000/svg">
<path d="M16.5 2.66439C17.9667 2.66439 19.1667 3.86439 19.1667 5.33106C19.1667 6.79772 17.9667 7.99772 16.5 7.99772C15.0333 7.99772 13.8333 6.79772 13.8333 5.33106C13.8333 3.86439 15.0333 2.66439 16.5 2.66439ZM21.7 10.7977C21.1667 10.2644 20.2333 9.33106 18.5 9.33106H15.1667C11.4333 9.33106 8.49999 6.39772 8.49999 2.66439H5.83333C5.83333 6.93106 8.63333 10.3977 12.5 11.5977V29.3311H15.1667V21.3311H17.8333V29.3311H20.5V13.4644L25.8333 18.6644L27.7 16.7977L21.7 10.7977Z" fill="#470960"/>
</svg>
