<svg width="33" height="32" viewBox="0 0 33 32" fill="none" xmlns="http://www.w3.org/2000/svg">
<path d="M20.5 15.9978H22.5V21.6644L26.3133 23.9178L25.3133 25.5444L20.5 22.6644V15.9978ZM31.1667 21.3311C31.1667 23.8064 30.1833 26.1804 28.433 27.9308C26.6827 29.6811 24.3087 30.6644 21.8333 30.6644C17.8333 30.6644 14.3667 28.1044 13.06 24.5311L11.1667 23.8644L4.04667 26.6244L3.83334 26.6644C3.65653 26.6644 3.48696 26.5942 3.36193 26.4692C3.23691 26.3441 3.16667 26.1746 3.16667 25.9978V5.83776C3.16667 5.5311 3.36667 5.2911 3.64667 5.19776L11.1667 2.66443L19.1667 5.46443L26.2867 2.66443H26.5C26.6768 2.66443 26.8464 2.73467 26.9714 2.85969C27.0964 2.98472 27.1667 3.15428 27.1667 3.3311V13.6644C29.58 15.3311 31.1667 18.1578 31.1667 21.3311ZM12.5 21.3311C12.5 17.1044 15.3133 13.5311 19.1667 12.3844V8.14443L11.1667 5.3311V21.1844L12.5 21.6511V21.3311ZM21.8333 14.6644C20.0652 14.6644 18.3695 15.3668 17.1193 16.6171C15.8691 17.8673 15.1667 19.563 15.1667 21.3311C15.1667 23.0992 15.8691 24.7949 17.1193 26.0451C18.3695 27.2954 20.0652 27.9978 21.8333 27.9978C23.6014 27.9978 25.2971 27.2954 26.5474 26.0451C27.7976 24.7949 28.5 23.0992 28.5 21.3311C28.5 19.563 27.7976 17.8673 26.5474 16.6171C25.2971 15.3668 23.6014 14.6644 21.8333 14.6644Z" fill="#470960"/>
</svg>
