<svg width="11" height="10" viewBox="0 0 11 10" fill="none" xmlns="http://www.w3.org/2000/svg">
<path d="M8.78717 6.07385L6.99721 5.2717C6.91611 5.23695 6.82762 5.22298 6.73976 5.23105C6.6519 5.23913 6.56744 5.26899 6.49403 5.31793C6.48658 5.32271 6.47948 5.32803 6.47281 5.33385L5.53729 6.12955C5.52758 6.13484 5.51678 6.1378 5.50573 6.1382C5.49468 6.13859 5.48369 6.13641 5.47363 6.13182C4.87231 5.84158 4.24939 5.22245 3.95801 4.62946C3.95315 4.61955 3.95063 4.60866 3.95063 4.59763C3.95063 4.5866 3.95315 4.57571 3.95801 4.5658L4.75636 3.61854C4.76209 3.61153 4.7674 3.60419 4.77228 3.59656C4.82054 3.52286 4.8497 3.43831 4.85711 3.35052C4.86452 3.26274 4.84995 3.17449 4.81471 3.09375L4.01825 1.30683C3.97302 1.20135 3.8948 1.11338 3.79533 1.05612C3.69585 0.998873 3.5805 0.975427 3.46657 0.989306C2.97142 1.0544 2.51692 1.29756 2.18799 1.67335C1.85907 2.04913 1.67823 2.53183 1.67926 3.03123C1.67926 5.99807 4.0929 8.4117 7.05973 8.4117C7.55912 8.41266 8.04177 8.23179 8.41754 7.90288C8.7933 7.57397 9.03649 7.11951 9.10166 6.6244C9.11551 6.511 9.09238 6.39616 9.03572 6.29697C8.97905 6.19777 8.89188 6.11952 8.78717 6.07385ZM7.05973 7.95701C4.34373 7.95701 2.13395 5.74723 2.13395 3.03123C2.13269 2.64245 2.27301 2.2665 2.52871 1.97363C2.78442 1.68076 3.138 1.49101 3.5234 1.43983H3.53212C3.54739 1.44011 3.56221 1.445 3.57465 1.45386C3.58709 1.46272 3.59657 1.47513 3.60183 1.48946L4.40133 3.27449C4.40589 3.28441 4.40825 3.29521 4.40825 3.30613C4.40825 3.31705 4.40589 3.32784 4.40133 3.33777L3.60146 4.28731C3.59549 4.29408 3.59004 4.3013 3.58516 4.3089C3.53511 4.38531 3.50564 4.47335 3.4996 4.56449C3.49356 4.65564 3.51115 4.7468 3.55068 4.82914C3.88677 5.51724 4.58017 6.20533 5.27584 6.54142C5.35867 6.58073 5.45027 6.5979 5.54171 6.59126C5.63316 6.58462 5.72132 6.55439 5.7976 6.50353C5.8048 6.4986 5.81199 6.4933 5.81881 6.48761L6.75396 5.69191C6.76319 5.68695 6.77339 5.68404 6.78385 5.68339C6.79432 5.68273 6.8048 5.68435 6.81458 5.68812L8.60491 6.49027C8.61954 6.49649 8.63183 6.50716 8.64006 6.52076C8.64829 6.53436 8.65203 6.5502 8.65076 6.56605C8.59984 6.95163 8.41027 7.30547 8.11746 7.56146C7.82466 7.81745 7.44866 7.95806 7.05973 7.95701Z" fill="#470960"/>
</svg>
