<svg width="33" height="32" viewBox="0 0 33 32" fill="none" xmlns="http://www.w3.org/2000/svg">
<path d="M29.485 21.8827C29.2621 23.5765 28.4303 25.1313 27.1449 26.2566C25.8595 27.3819 24.2084 28.0008 22.5 27.9977C12.575 27.9977 4.5 19.9227 4.5 9.99773C4.49693 8.28934 5.11585 6.63825 6.24116 5.35284C7.36647 4.06744 8.92121 3.23561 10.615 3.01273C11.0433 2.96043 11.4771 3.04805 11.8515 3.26252C12.2259 3.47699 12.5209 3.80681 12.6925 4.20273L15.3325 10.0965V10.1115C15.4639 10.4145 15.5181 10.7454 15.4904 11.0746C15.4627 11.4037 15.3539 11.7209 15.1737 11.9977C15.1512 12.0315 15.1275 12.0627 15.1025 12.094L12.5 15.179C13.4362 17.0815 15.4262 19.054 17.3537 19.9927L20.3962 17.404C20.4261 17.3789 20.4574 17.3555 20.49 17.334C20.7666 17.1495 21.0849 17.0369 21.416 17.0063C21.747 16.9757 22.0805 17.0282 22.3862 17.159L22.4025 17.1665L28.2912 19.8052C28.6879 19.9762 29.0185 20.2709 29.2337 20.6454C29.4488 21.0199 29.537 21.454 29.485 21.8827Z" fill="#470960"/>
</svg>
