<svg width="33" height="32" viewBox="0 0 33 32" fill="none" xmlns="http://www.w3.org/2000/svg">
<path d="M5.83333 29.3311L11.1667 26.6644V22.6644H27.1667M15.1667 26.6644H27.1667M11.1667 18.6644L15.1667 15.9977L16.5 10.6644C20.5 11.9977 20.5 15.9977 20.5 18.6644M4.5 22.6644C4.5 23.018 4.64048 23.3572 4.89052 23.6072C5.14057 23.8572 5.47971 23.9977 5.83333 23.9977C6.18696 23.9977 6.52609 23.8572 6.77614 23.6072C7.02619 23.3572 7.16667 23.018 7.16667 22.6644C7.16667 22.3108 7.02619 21.9716 6.77614 21.7216C6.52609 21.4715 6.18696 21.3311 5.83333 21.3311C5.47971 21.3311 5.14057 21.4715 4.89052 21.7216C4.64048 21.9716 4.5 22.3108 4.5 22.6644ZM11.1667 6.66439C11.1667 7.01801 11.3071 7.35715 11.5572 7.6072C11.8072 7.85725 12.1464 7.99772 12.5 7.99772C12.8536 7.99772 13.1928 7.85725 13.4428 7.6072C13.6929 7.35715 13.8333 7.01801 13.8333 6.66439C13.8333 6.31077 13.6929 5.97163 13.4428 5.72158C13.1928 5.47153 12.8536 5.33105 12.5 5.33105C12.1464 5.33105 11.8072 5.47153 11.5572 5.72158C11.3071 5.97163 11.1667 6.31077 11.1667 6.66439Z" stroke="#470960" stroke-width="2.66667" stroke-linecap="round" stroke-linejoin="round"/>
</svg>
